/* XPM */
static char *_0974_e6d8cef82a3ee028c2f0f4c0399c2feb77172c23abe27c9daba9617ab62b9b83[] = {
/* columns rows colors chars-per-pixel */
"75 75 5 1 ",
"  c #9CDEDE",
". c #94D6EF",
"X c #94CEF7",
"o c #B5DEE7",
"O c #DEE7D6",
/* pixels */
"   XXXoooXXX       ooo   XXX      XXXoooooooooooooooo   ooooooooooXXX      ",
"   XXXoooXXX       ooo   XXX      XXXoooooooooooooooo   ooooooooooXXX      ",
"   XXXoooXXX       ooo   XXX      XXXoooooooooooooooo   ooooooooooXXX      ",
"oooooooooooo....   ...ooo   oooooooooooooooo   ......ooo   oooooooooo   XXX",
"oooooooooooo....   ...ooo   oooooooooooooooo   ......ooo   oooooooooo   XXX",
"oooooooooooo....   ...ooo   oooooooooooooooo   ......ooo   oooooooooo   XXX",
"oooXXXXXX...                oooooo...XXXXXXX......ooo   ...XXXoooo...ooo   ",
"oooXXXXXX...                oooooo...XXXXXXX......ooo   ...XXXoooo...ooo   ",
"oooXXXXXX...                oooooo...XXXXXXX......ooo   ...XXXoooo...ooo   ",
"   ooo   ooo.......ooo...ooooooooo   ..........XXX............             ",
"   ooo   ooo.......ooo...ooooooooo   ..........XXX............             ",
"   ooo   ooo.......ooo...ooooooooo   ..........XXX............             ",
"XXXooo   ...    ooo            oooooooooo......ooo......      ....         ",
"XXXooo   ...    ooo            oooooooooo......ooo......      ....         ",
"XXXooo   ...    ooo            oooooooooo......ooo......      ....         ",
"XXXooo   ...    ooo            oooooooooo......ooo......      ....         ",
"XXXXXX...ooooooo               ......ooooooo...   XXX         .......XXX   ",
"XXXXXX...ooooooo               ......ooooooo...   XXX         .......XXX   ",
"XXXXXX...ooooooo               ......ooooooo...   XXX         .......XXX   ",
"   ...XXX             ooo...ooo...ooo.............   oooooo       .........",
"   ...XXX             ooo...ooo...ooo.............   oooooo       .........",
"   ...XXX             ooo...ooo...ooo.............   oooooo       .........",
"XXX   ...       XXX   ooooooooo..........ooo      XXX   oooooo       ...ooo",
"XXX   ...       XXX   ooooooooo..........ooo      XXX   oooooo       ...ooo",
"XXX   ...       XXX   ooooooooo..........ooo      XXX   oooooo       ...ooo",
"      ...oooXXXXooooooOOOoooooo...XXXoooooooooo   ......      ooooooo...   ",
"      ...oooXXXXooooooOOOoooooo...XXXoooooooooo   ......      ooooooo...   ",
"      ...oooXXXXooooooOOOoooooo...XXXoooooooooo   ......      ooooooo...   ",
"oooooo   ooooooooooOOOooooooXXX...ooo    ooo      XXX.........    OOOooo   ",
"oooooo   ooooooooooOOOooooooXXX...ooo    ooo      XXX.........    OOOooo   ",
"oooooo   ooooooooooOOOooooooXXX...ooo    ooo      XXX.........    OOOooo   ",
"   oooooooooOOOOOOOooo............   oooo...XXX      ooo..........OOOOOOooo",
"   oooooooooOOOOOOOooo............   oooo...XXX      ooo..........OOOOOOooo",
"   oooooooooOOOOOOOooo............   oooo...XXX      ooo..........OOOOOOooo",
"...   oooooooooo............XXXooo   XXXXXXX   oooooo...ooo.......ooo   ...",
"...   oooooooooo............XXXooo   XXXXXXX   oooooo...ooo.......ooo   ...",
"...   oooooooooo............XXXooo   XXXXXXX   oooooo...ooo.......ooo   ...",
"XXX   ooo   ....XXXooo   ooo   ooo       ooo      oooooo   ..........   ...",
"XXX   ooo   ....XXXooo   ooo   ooo       ooo      oooooo   ..........   ...",
"XXX   ooo   ....XXXooo   ooo   ooo       ooo      oooooo   ..........   ...",
"XXX   ooo   ....XXXooo   ooo   ooo       ooo      oooooo   ..........   ...",
"XXXooo   .......ooo   ......      .......   oooooo...ooo......oooo   ...ooo",
"XXXooo   .......ooo   ......      .......   oooooo...ooo......oooo   ...ooo",
"XXXooo   .......ooo   ......      .......   oooooo...ooo......oooo   ...ooo",
"XXX      XXX    XXX...ooo......XXX...ooooOOOoooooooooOOO   XXXooooooooooXXX",
"XXX      XXX    XXX...ooo......XXX...ooooOOOoooooooooOOO   XXXooooooooooXXX",
"XXX      XXX    XXX...ooo......XXX...ooooOOOoooooooooOOO   XXXooooooooooXXX",
"...XXX      XXXX...oooooo   ......XXX....oooOOOOOOoooOOOXXXooo....oooooo   ",
"...XXX      XXXX...oooooo   ......XXX....oooOOOOOOoooOOOXXXooo....oooooo   ",
"...XXX      XXXX...oooooo   ......XXX....oooOOOOOOoooOOOXXXooo....oooooo   ",
"...XXXooo       ...XXX...ooo   ...   XXXX......   OOOoooooo...oooo   oooooo",
"...XXXooo       ...XXX...ooo   ...   XXXX......   OOOoooooo...oooo   oooooo",
"...XXXooo       ...XXX...ooo   ...   XXXX......   OOOoooooo...oooo   oooooo",
"XXX   ooo   oooo   XXX   ooo      ooo..........XXXooo...   OOOooooOOO      ",
"XXX   ooo   oooo   XXX   ooo      ooo..........XXXooo...   OOOooooOOO      ",
"XXX   ooo   oooo   XXX   ooo      ooo..........XXXooo...   OOOooooOOO      ",
"XXXXXX   oooXXXXXXXooo      ooooooooo....   ooooooXXXooo   ...ooooooo   ...",
"XXXXXX   oooXXXXXXXooo      ooooooooo....   ooooooXXXooo   ...ooooooo   ...",
"XXXXXX   oooXXXXXXXooo      ooooooooo....   ooooooXXXooo   ...ooooooo   ...",
"         XXXoooo         ...ooo   ooo          ooooooXXX..........XXX...   ",
"         XXXoooo         ...ooo   ooo          ooooooXXX..........XXX...   ",
"         XXXoooo         ...ooo   ooo          ooooooXXX..........XXX...   ",
"XXX   oooooo    ooo......            OOOOOOOooo...ooo...XXXXXXXXXX...ooo...",
"XXX   oooooo    ooo......            OOOOOOOooo...ooo...XXXXXXXXXX...ooo...",
"XXX   oooooo    ooo......            OOOOOOOooo...ooo...XXXXXXXXXX...ooo...",
"XXX   oooooo    ooo......            OOOOOOOooo...ooo...XXXXXXXXXX...ooo...",
"oooXXX......OOOOooo...XXXoooooo......oooo   OOO   XXX...XXX   oooo   ooo   ",
"oooXXX......OOOOooo...XXXoooooo......oooo   OOO   XXX...XXX   oooo   ooo   ",
"oooXXX......OOOOooo...XXXoooooo......oooo   OOO   XXX...XXX   oooo   ooo   ",
"   oooooooooOOOOXXX......XXX...   ooooooo......oooXXX   ...XXX    oooXXXooo",
"   oooooooooOOOOXXX......XXX...   ooooooo......oooXXX   ...XXX    oooXXXooo",
"   oooooooooOOOOXXX......XXX...   ooooooo......oooXXX   ...XXX    oooXXXooo",
"            XXXXooo   XXXooo...XXXXXX.......oooooooooXXXXXX   XXXXooooooooo",
"            XXXXooo   XXXooo...XXXXXX.......oooooooooXXXXXX   XXXXooooooooo",
"            XXXXooo   XXXooo...XXXXXX.......oooooooooXXXXXX   XXXXooooooooo"
};
