/* XPM */
static char *_2577_0f567927ce9b1ab404af58950be5f6db11624221f535019eed0d10ae425d5ca2[] = {
/* columns rows colors chars-per-pixel */
"75 75 13 1 ",
"  c #AC7217",
". c #BC8B20",
"X c #C59B28",
"o c #DDAC20",
"O c #E6BC30",
"+ c #E6CD38",
"@ c #EEDD51",
"# c #9CDEDE",
"$ c #94D6EF",
"% c #94CEF7",
"& c #B5DEE7",
"* c #DEE7D6",
"= c #E6E6E6",
/* pixels */
"###%%%&&&%%%#######&&&###%%%######%%%&&&&&&&&&&&&&&&&###&&&&&&&&&&%%%######",
"###%%%&&&%%%#######&&&###%%%######%%%&&&&&&&&&&&&&&&&###&&&&&&&&&&%%%######",
"###%%%&&&%%%#######&&&###%%%######%%%&&&&&&&&&&&&&&&&###&&&&&&&&&&%%%######",
"&&&&&&&&&&&&$$$$###$$$&&&###&&&&&&&&&&&&&&&&###$$$$$$&&&###&&&&&&&&&&###%%%",
"&&&&&&&&&&&&$$$$###$$$&&&###&&&&&&&&&&&&&&&&###$$$$$$&&&###&&&&&&&&&&###%%%",
"&&&&&&&&&&&&$$$$###$$$&&&###&&&&&&&&&&&&&&&&###$$$$$$&&&###&&&&&&&&&&###%%%",
"&&&%%%%%%$$$################&&&&&&$$$%%%%%%%$$$$$$&&&###$$$%%%&&&&$$$&&&###",
"&&&%%%%%%$$$################&&&&&&$$$%%%%%%%$$$$$$&&&###$$$%%%&&&&$$$&&&###",
"&&&%%%%%%$$$################&&&&&&$$$%%%%%%%$$$$$$&&&###$$$%%%&&&&$$$&&&###",
"###&&&###&&&$$$$$$$&&&$$$&&&&&&&&&###$$$$$$$$$$%%%$$$$$$$$$$$$#############",
"###&&&###&&&$$$$$$$&&&$$$&&&&&&&&&###$$$$$$$$$$%%%$$$$$$$$$$$$#############",
"###&&&###&&&$$$$$$$&&&$$$&&&&&&&&&###$$$$$$$$$$%%%$$$$$$$$$$$$#############",
"%%%&&&###$$$####&&&############&&&&&&&&&&$$$$$$&&&$$$$$$######$$$$#########",
"%%%&&&###$$$####&&&############&&&&&&&&&&$$$$$$&&&$$$$$$######$$$$#########",
"%%%&&&###$$$####&&&############&&&&&&&&&&$$$$$$&&&$$$$$$######$$$$#########",
"%%%&&&###$$$####&&&############&&&&&&&&&&$$$$$$&&&$$$$$$######$$$$#########",
"%%%%%%$$$&&&&&&&###############$$$$$$&&&&&&&$$$###%%%#########$$$$$$$%%%###",
"%%%%%%$$$&&&&&&&###############$$$$$$&&&&&&&$$$###%%%#########$$$$$$$%%%###",
"%%%%%%$$$&&&&&&&###############$$$$$$&&&&&&&$$$###%%%#########$$$$$$$%%%###",
"###$$$%%%#############&&&$$$&&&$$$&&&$$$$$$$$$$$$$###&&&&&&#######$$$$$$$$$",
"###$$$%%%#############&&&$$$&&&$$$&&&$$$$$$$$$$$$$###&&&&&&#######$$$$$$$$$",
"###$$$%%%#############&&&$$$&&&$$$&&&$$$$$$$$$$$$$###&&&&&&#######$$$$$$$$$",
"%%%###$$$#######%%%###&&&&&&&&&$$$$$$$$$$&&&######%%%###&&&&&&#######$$$&&&",
"%%%###$$$#######%%%###&&&&&&&&&$$$$$$$$$$&&&######%%%###&&&&&&#######$$$&&&",
"%%%###$$$#######%%%###&&&&&&&&&$$$$$$$$$$&&&######%%%###&&&&&&#######$$$&&&",
"######$$$&&&%%%%&&&&&&***&&&&&OO++++OOO&&&&&&&&###$$$$$$######&&&&&&&$$$###",
"######$$$&&&%%%%&&&&&&***&&&&&OO++++OOO&&&&&&&&###$$$$$$######&&&&&&&$$$###",
"######$$$&&&%%%%&&&&&&***&OO+++++++++++++OO&&&&###$$$$$$######&&&&&&&$$$###",
"&&&&&&###&&&&&&&&&&***&&&&OO+++++++++++++OO&######%%%$$$$$$$$$####***&&&###",
"&&&&&&###&&&&&&&&&&***&&OO+++++++++++++++++OO#####%%%$$$$$$$$$####***&&&###",
"&&&&&&###&&&&&&&&&&***&&OO+++++++++++++++++OO#####%%%$$$$$$$$$####***&&&###",
"###&&&&&&&&&*******&&&$$@@@@@@  @@@@===@@@@@@%%######&&&$$$$$$$$$$******&&&",
"###&&&&&&&&&*******&&&$$@@@@@@  @@@@===@@@@@@%%######&&&$$$$$$$$$$******&&&",
"###&&&&&&&&&*******&&&++@@@@@@  @@@@===@@@@@@++######&&&$$$$$$$$$$******&&&",
"$$$###&&&&&&&&&&$$$$$$++@@@@@@  @@@@===@@@@@@++&&&&&&$$$&&&$$$$$$$&&&###$$$",
"$$$###&&&&&&&&&&$$$$$$++++++++  ++++===++++++++&&&&&&$$$&&&$$$$$$$&&&###$$$",
"$$$###&&&&&&&&&&$$$$$$++++++++  ++++===++++++++&&&&&&$$$&&&$$$$$$$&&&###$$$",
"%%%###&&&###$$$$%%%&&&OOOOOOOO  OOOO===OOOOOOOO###&&&&&&###$$$$$$$$$$###$$$",
"%%%###&&&###$$$$%%%&&&OOOOOOOO  OOOO===OOOOOOOO###&&&&&&###$$$$$$$$$$###$$$",
"%%%###&&&###$$$$%%%&&&OOOOOOOO  OOOO===OOOOOOoo###&&&&&&###$$$$$$$$$$###$$$",
"%%%###&&&###$$$$%%%&&&OOOOOOOO  OOOO===OOOOOOoo###&&&&&&###$$$$$$$$$$###$$$",
"%%%&&&###$$$$$$$&&&###OOOOOOOO  OOOO===OOOOOOoo&&&$$$&&&$$$$$$&&&&###$$$&&&",
"%%%&&&###$$$$$$$&&&###$$oooooo  oooo===ooOOoo&&&&&$$$&&&$$$$$$&&&&###$$$&&&",
"%%%&&&###$$$$$$$&&&###$$oooooo  oooo===ooOOoo&&&&&$$$&&&$$$$$$&&&&###$$$&&&",
"%%%######%%%####%%%$$$&&..oooo..=======oooo..&&&&&&&&***###%%%&&&&&&&&&&%%%",
"%%%######%%%####%%%$$$&&..oooo..=======oooo..&&&&&&&&***###%%%&&&&&&&&&&%%%",
"%%%######%%%####%%%$$$&&&$..ooooooooooooo..*&&&&&&&&&***###%%%&&&&&&&&&&%%%",
"$$$%%%######%%%%$$$&&&&&&#..ooooooooooooo..&******&&&***%%%&&&$$$$&&&&&&###",
"$$$%%%######%%%%$$$&&&&&&###$$XXooooXXX$$&&&******&&&***%%%&&&$$$$&&&&&&###",
"$$$%%%######%%%%$$$&&&&&&###$$XXooooXXX$$&&&******&&&***%%%&&&$$$$&&&&&&###",
"$$$%%%&&&#######$$$%%%$$$&&&###$$$###%%%%$$$$$$###***&&&&&&$$$&&&&###&&&&&&",
"$$$%%%&&&#######$$$%%%$$$&&&###$$$###%%%%$$$$$$###***&&&&&&$$$&&&&###&&&&&&",
"$$$%%%&&&#######$$$%%%$$$&&&###$$$###%%%%$$$$$$###***&&&&&&$$$&&&&###&&&&&&",
"%%%###&&&###&&&&###%%%###&&&######&&&$$$$$$$$$$%%%&&&$$$###***&&&&***######",
"%%%###&&&###&&&&###%%%###&&&######&&&$$$$$$$$$$%%%&&&$$$###***&&&&***######",
"%%%###&&&###&&&&###%%%###&&&######&&&$$$$$$$$$$%%%&&&$$$###***&&&&***######",
"%%%%%%###&&&%%%%%%%&&&######&&&&&&&&&$$$$###&&&&&&%%%&&&###$$$&&&&&&&###$$$",
"%%%%%%###&&&%%%%%%%&&&######&&&&&&&&&$$$$###&&&&&&%%%&&&###$$$&&&&&&&###$$$",
"%%%%%%###&&&%%%%%%%&&&######&&&&&&&&&$$$$###&&&&&&%%%&&&###$$$&&&&&&&###$$$",
"#########%%%&&&&#########$$$&&&###&&&##########&&&&&&%%%$$$$$$$$$$%%%$$$###",
"#########%%%&&&&#########$$$&&&###&&&##########&&&&&&%%%$$$$$$$$$$%%%$$$###",
"#########%%%&&&&#########$$$&&&###&&&##########&&&&&&%%%$$$$$$$$$$%%%$$$###",
"%%%###&&&&&&####&&&$$$$$$############*******&&&$$$&&&$$$%%%%%%%%%%$$$&&&$$$",
"%%%###&&&&&&####&&&$$$$$$############*******&&&$$$&&&$$$%%%%%%%%%%$$$&&&$$$",
"%%%###&&&&&&####&&&$$$$$$############*******&&&$$$&&&$$$%%%%%%%%%%$$$&&&$$$",
"%%%###&&&&&&####&&&$$$$$$############*******&&&$$$&&&$$$%%%%%%%%%%$$$&&&$$$",
"&&&%%%$$$$$$****&&&$$$%%%&&&&&&$$$$$$&&&&###***###%%%$$$%%%###&&&&###&&&###",
"&&&%%%$$$$$$****&&&$$$%%%&&&&&&$$$$$$&&&&###***###%%%$$$%%%###&&&&###&&&###",
"&&&%%%$$$$$$****&&&$$$%%%&&&&&&$$$$$$&&&&###***###%%%$$$%%%###&&&&###&&&###",
"###&&&&&&&&&****%%%$$$$$$%%%$$$###&&&&&&&$$$$$$&&&%%%###$$$%%%####&&&%%%&&&",
"###&&&&&&&&&****%%%$$$$$$%%%$$$###&&&&&&&$$$$$$&&&%%%###$$$%%%####&&&%%%&&&",
"###&&&&&&&&&****%%%$$$$$$%%%$$$###&&&&&&&$$$$$$&&&%%%###$$$%%%####&&&%%%&&&",
"############%%%%&&&###%%%&&&$$$%%%%%%$$$$$$$&&&&&&&&&%%%%%%###%%%%&&&&&&&&&",
"############%%%%&&&###%%%&&&$$$%%%%%%$$$$$$$&&&&&&&&&%%%%%%###%%%%&&&&&&&&&",
"############%%%%&&&###%%%&&&$$$%%%%%%$$$$$$$&&&&&&&&&%%%%%%###%%%%&&&&&&&&&"
};
