/* XPM */
static char *_890_e8a077d2368d11baf15ad79cd6f5953dda6d9d3b010ce06efb83ad22ca48d989[] = {
/* columns rows colors chars-per-pixel */
"75 75 219 2 ",
"   c #000002",
".  c #000F05",
"X  c #00030B",
"o  c #030A0B",
"O  c #090B0B",
"+  c #001F0A",
"@  c #17140E",
"#  c #000613",
"$  c #030714",
"%  c #000A1C",
"&  c #091417",
"*  c #2C1A03",
"=  c #002E0F",
"-  c #062D17",
";  c #003F17",
":  c #003E19",
">  c #2E2605",
",  c #3C2304",
"<  c #000D25",
"1  c #000D2A",
"2  c #021926",
"3  c #00112C",
"4  c #08132F",
"5  c #011532",
"6  c #01143E",
"7  c #00193D",
"8  c #142C2F",
"9  c #21272C",
"0  c #2B3136",
"q  c #4A2B06",
"w  c #653806",
"e  c #004617",
"r  c #004F1B",
"t  c #005E1E",
"y  c #135318",
"u  c #065428",
"i  c #314B24",
"p  c #006E23",
"a  c #03742F",
"s  c #007F29",
"d  c #0B6C34",
"f  c #6A4502",
"g  c #7A4506",
"h  c #6C5506",
"j  c #67560B",
"k  c #041644",
"l  c #011943",
"z  c #011C4B",
"x  c #011C54",
"c  c #042C44",
"v  c #193C4F",
"b  c #012055",
"n  c #01225C",
"m  c #063C5E",
"M  c #323B46",
"N  c #28395A",
"B  c #022563",
"V  c #062764",
"C  c #02266A",
"Z  c #022A6E",
"A  c #13366F",
"S  c #022A74",
"D  c #02237B",
"F  c #022B7A",
"G  c #212F6C",
"H  c #34474F",
"J  c #394757",
"K  c #074164",
"L  c #0E4E75",
"P  c #29497B",
"I  c #225371",
"U  c #48556B",
"Y  c #546878",
"T  c #626E74",
"R  c #8E5306",
"E  c #916202",
"W  c #9E6B00",
"Q  c #8F7D0D",
"!  c #917107",
"~  c #AA6209",
"^  c #B3720A",
"/  c #A07632",
"(  c #C56F0B",
")  c #867D6B",
"_  c #008329",
"`  c #008F2D",
"'  c #068336",
"]  c #039B33",
"[  c #00A534",
"{  c #00AF37",
"}  c #00AF38",
"|  c #00B639",
" . c #00BF3C",
".. c #00C33E",
"X. c #00CF41",
"o. c #00D342",
"O. c #00DF46",
"+. c #00E147",
"@. c #00EF4B",
"#. c #00F44C",
"$. c #00FA4E",
"%. c #AA900D",
"&. c #D68706",
"*. c #D78804",
"=. c #DB9505",
"-. c #E79D00",
";. c #E59B07",
":. c #DEA205",
">. c #EDAD06",
",. c #F2BD0A",
"<. c #F7C30F",
"1. c #EFD115",
"2. c #F1D210",
"3. c #FAD513",
"4. c #FDDC14",
"5. c #FFDF18",
"6. c #FFE016",
"7. c #FDDF2F",
"8. c #FFE333",
"9. c #BB8A4B",
"0. c #9E8C60",
"q. c #B7A26D",
"w. c #D4A844",
"e. c #EEBB4F",
"r. c #D8BD7D",
"t. c #F1D368",
"y. c #022884",
"u. c #033184",
"i. c #03338C",
"p. c #032996",
"a. c #043795",
"s. c #043896",
"d. c #033698",
"f. c #033899",
"g. c #022BA6",
"h. c #033AA3",
"j. c #0439A8",
"k. c #0438B9",
"l. c #0E5593",
"z. c #095E93",
"x. c #335285",
"c. c #0A6197",
"v. c #106390",
"b. c #084DA8",
"n. c #1071AA",
"m. c #2867A9",
"M. c #425B8B",
"N. c #536F8B",
"B. c #58759B",
"V. c #677887",
"C. c #627F9D",
"Z. c #7171AA",
"A. c #033CC4",
"S. c #0439CA",
"D. c #043CD7",
"F. c #043EE7",
"G. c #043DF7",
"H. c #217DC7",
"J. c #0540E9",
"K. c #0541F5",
"L. c #0442FD",
"P. c #0842FF",
"I. c #6C849A",
"U. c #748998",
"Y. c #6986A4",
"T. c #7C95AC",
"R. c #7794B2",
"E. c #0F8CD2",
"W. c #0D8DD5",
"Q. c #1292D8",
"!. c #2995D8",
"~. c #219CE2",
"^. c #2CA4ED",
"/. c #3AB3F4",
"(. c #779BC7",
"). c #4BB9FB",
"_. c #50BAF9",
"`. c #52C0FF",
"'. c #6CD0F7",
"]. c #959B93",
"[. c #8F9AA0",
"{. c #859AB5",
"}. c #8BA0AD",
"|. c #89A4B9",
" X c #90A6B9",
".X c #95ACBB",
"XX c #F7D88B",
"oX c #F8DC9D",
"OX c #FCEDAA",
"+X c #829BC8",
"@X c #93ABC5",
"#X c #91A9CC",
"$X c #9BB4C8",
"%X c #9DBCD6",
"&X c #A3BBCC",
"*X c #A7BFDA",
"=X c #9BC4D6",
"-X c #9CDEDE",
";X c #BAC4CE",
":X c #ACC4D6",
">X c #A6C2D8",
",X c #B9CADB",
"<X c #94D6EF",
"1X c #94CEF7",
"2X c #BECFE8",
"3X c #B5DEE7",
"4X c #CDD3DC",
"5X c #DEE7D6",
"6X c #F4EDDF",
"7X c #C8D9E5",
"8X c #D4DFE9",
"9X c #D9E3EC",
"0X c #DFECF8",
"qX c #DEFFFF",
"wX c #EBEDF1",
"eX c #ECF1F5",
"rX c #EAF4FB",
"tX c #F1F9FA",
"yX c #FDFCFE",
/* pixels */
"-X-X-X1X1X1X3X3X3X1X1X1X-X-X-X-X-X-X-X3X3X3X-X-X-X1X1X1X-X-X-X-X-X-X1X1X;   3X3X3X3X3X3X3X3X3X3X3X3X3X3X3X-X-X-X3X3X3X3X3X3X3X3X3X3X1X1X1X-X-X-X-X-X-X",
"-X-X-X1X1X1X3X3X3X1X1X1X-X-X-X-X-X-X-X3X3X3X-X-X-X1X1X1X-X-X-X-X-X-X| p j w p s 3X3X3X3X3X3X3X3X3X3X3X3X3X-X-X-X3X3X3X3X3X3X3X3X3X3X1X1X1X-X-X-X-X-X-X",
"-X-X-X1X1X1X3X3X3X1X1X1X-X-X-X-X-X-X-X3X3X3X-X-X-X1X1X1X-X-X-X-X-X-Xs   R (   + 3X3X3X3X3X3X3X3X3X3X3X3X3X-X-X-X3X3X3X3X3X3X3X3X3X3X1X1X1X-X-X-X-X-X-X",
"3X3X3X3X3X3X3X3X3X3X3X3X<X<X<X<X-X-X-X<X<X<X3X3X3X-X-X_ = o.3X3X3X3Xs   R (   + 3X3X3X3X-X= = <X<X<X<X<X<X3X3X3X-X-X-X3X3X3X3X3X3X3X3X3X3X-X-X-X1X1X1X",
"3X3X3X3X3X3X3X3X3X3X3X3X<X<X<X<X-X-X-X<X<X<X3X3X3X-X-Xp   X.3X3X3X3Xa O R ( O + 3X3X3X3X-X. . <X<X<X<X<X<X3X3X3X-X-X-X3X3X3X3X3X3X3X3X3X3X-X-X-X1X1X1X",
"3X3X3X3X3X3X3X3X3X3X3X3X<X<X<X<X-X-X-X<X<X<X3X3X3X{   R -.*   3XX.  w ( ( ( ( ~ X t 3Xt   =.=.X r <X<X<X<X3X3X3X-X-X-X3X3X3X3X3X3X3X3X3X3X-X-X-X1X1X1X",
"3X3X3X1X1X1X1X1X1X<X<X<X-X-X-X-X-X-X-X-X-X-X-X-X-X{   E >.> X 3XX.  w ( ( ( ( ~   t 1Xt   :.:.  r <X3X3X3X-X-X-X<X<X<X1X1X1X3X3X3X3X<X<X<X3X3X3X-X-X-X",
"3X3X3X1X1X1X1X1X1X<X<X<X-X-X-X-X-X-X-X-X-X-X-X-X-X{   Q 6.>   3XX.  w ( ( ( ( ~   t 1Xt   1.1.  r <X3X3X3X-X-X-X<X<X<X1X1X1X3X3X3X3X<X<X<X3X3X3X-X-X-X",
"3X3X3X1X1X1X1X1X1X<X<X<X-X-X-X-X-X-X-X-X-X-X-X-X-X{   Q 6.> X _ d w R ( g w ( ^ w i ' -   1.1.X r <X3X3X3X-X-X-X<X<X<X1X1X1X3X3X3X3X<X<X<X3X3X3X-X-X-X",
"-X-X-X3X3X3X-X-X-X3X3X3X<X<X<X<X<X<X<X3X3X3X<X<X<X{   Q 6.>     * ( ( ( , X ( ( ( w       2.1.  r 1X<X<X<X<X<X<X<X<X<X<X<X<X-X-X-X-X-X-X-X-X-X-X-X-X-X",
"-X-X-X3X3X3X-X-X-X3X3X3X<X<X<X<X<X<X<X3X3X3X<X<X<X{   Q 6.^ ~   * ( R , / q.* , ( w   w R 3.2.  r 1X<X<X<X<X<X<X<X<X<X<X<X<X-X-X-X-X-X-X-X-X-X-X-X-X-X",
"-X-X-X3X3X3X-X-X-X3X3X3X<X<X<X<X<X<X<X3X3X3X<X<X<X{ X %.6.=.*.  * *.f   q.XX  @ ( R   g ^ 3.2.  r 1X<X<X<X<X<X<X<X<X<X<X<X<X-X-X-X-X-X-X-X-X-X-X-X-X-X",
"1X1X1X3X3X3X-X-X-X<X<X<X-X-X-X-X3X3X3X-X-X-X-X-X-X{   Q 5.=.&.      f *.t.XXoXr.      E ;.4.2.  r 3X<X<X<X<X<X<X-X-X-X-X-X-X<X<X<X<X-X-X-X-X-X-X-X-X-X",
"1X1X1X3X3X3X-X-X-X<X<X<X-X-X-X-X3X3X3X-X-X-X-X$.O.] @ Q 3.;.=.X     f ;.e.XXoXr.      E -.4.2.@ y +.#.<X<X<X<X<X-X-X-X-X-X-X<X<X<X<X-X-X-X-X-X-X-X-X-X",
"1X1X1X3X3X3X-X-X-X<X<X<X-X-X-X-X3X3X3X-X-X-X-X@.  , ( *.-.3.5.      h <.4.5.3X8X      E -.4.4.-.W   ` <X<X<X<X<X-X-X-X-X-X-X<X<X<X<X-X-X-X-X-X-X-X-X-X",
"1X1X1X3X3X3X-X-X-X<X<X<X-X-X-X-X3X3X3X-X-X-X-X@.  , ( *.-.3.5.  @ h %.<.4.5.3X6Xf q   ! ,.5.4.-.W   ` <X<X<X<X<X-X-X-X-X-X-X<X<X<X<X-X-X-X-X-X-X-X-X-X",
"1X1X1X1X1X1X<X<X<X3X3X3X3X3X3X3X-X-X-X-X-X-X-X@.X , ( *.-.3.5.  > <.<.<.6.6.3X6X-.E   %.6.6.5.-.W   ` 1X1X-X-X-X-X-X-X-X-X-X<X<X<X<X<X<X<X1X1X1X-X-X-X",
"1X1X1X1X1X1X<X<X<X3X3X3X3X3X3X3X-X-X-X-X-X-X-X@.  , ( *.-.>.>.W ^ >.<.4.6.6.t.t.OXr.%.1.6.6.4.-.W   ` 1X1X-X-X-X-X-X-X-X-X-X<X<X<X<X<X<X<X1X1X1X-X-X-X",
"1X1X1X1X1X1X<X<X<X3X3X3X3X3X3X3X-X-X-X-X-X-X-X@.  , ( *.-.-.-.-.:.-.<.6.6.6.6.8.3XOX5.5.6.6.5.-.W   ` 1X1X-X-X-X-X-X-X-X-X-X<X<X<X<X<X<X<X1X1X1X-X-X-X",
"-X-X-X<X<X<X1X1X1X-X-X-X-X-X-X-X-X-X-X-X-X-X3X@.  q ( =.-.-.-.-.-.-.2.6.6.6.6.8.<XOX5.6.6.6.6.-.W   ` -X-X3X3X3X3X3X3X-X-X-X-X-X-X-X<X<X<X<X<X<X<X<X<X",
"-X-X-X<X<X<X1X1X1X-X-X-X-X-X-X-X-X-X-X-X-X-X@.+.o q ^ ( -.-.-.-.-.-.,.5.6.4.4.7.tXOX4.4.4.4.3.=.W O ` @.$.3X3X3X3X3X3X-X-X-X-X-X-X-X<X<X<X<X<X<X<X<X<X",
"-X-X-X<X<X<X1X1X1X-X-X-X-X-X-X-X-X-X-X-X-X-Xo O I.) ( ( ( ;.-.-.-.-.-.-.-.-.-.-.-.-.-.-.-.-.=.^ / 0.i . X.3X3X3X3X3X3X-X-X-X-X-X-X-X<X<X<X<X<X<X<X<X<X",
"1X1X1X-X-X-X<X<X<X-X-X-X-X-X-X-X1X1X+.{ } } 8 M R.].9.9.9.w.w.w.w.e.e.e.e.e.e.e.e.e.e.e.e.e.e.q.q.[.T M ] } } ..3X3X3X3X3X3X-X-X-X-X-X-X-X<X<X<X3X3X3X",
"1X1X1X-X-X-X<X<X<X-X-X-X-X-X-X-X1X1X]   X X V.I.=X=X:X:X:X>X:X:X,X<X<X<X<X<X<X<X<X3X3X3X-X-XyXrXqXqX7X:X9     : 3X3X3X3X3X3X-X-X-X-X-X-X-X<X<X<X3X3X3X",
"1X1X1X-X-X-X<X<X<X-X-X-X-X-X-X-X@.p d J Y T |. X>X>X:X:X:X8X9X9XwX<X<X<X<X<X<X<X<X3X3X3X-X-XyXtXtXyXwX9X].].J M p p p O.3X3X-X-X-X-X-X-X-X<X<X<X3X3X3X",
"-X-X-X-X-X-X<X<X<X3X3X3X1X1X1X1X+.  0 Y.@X:X:X:X:X:X:X:X:XeX3X<X<X<X1X1X1X3X3X3X3X3X3X3X3X3X3X-X-X-X<X<X1X1XZ.M.      ..-X-X3X3X3X3X3X3X3X<X<X<X-X-X-X",
"-X-X-X-X-X-X<X<X<X3X3X3X1X1X1X+ 8 .X$X&X>X:X:X:X:X:X:X8XtXyX3X<X<X<X1X1X1X3X3X3X3X3X3X3X3X3X3X-X-X-X<X<X1X<XwXwX5X;X.X0 = -X3X3X3X3X3X3X3X<X<X<X-X-X-X",
"-X-X-X-X-X-X<X<X<X3X3X3X1X1X1X  @ :X:X:X:X:X:X:X*X:X:X9X3X3X3X<X<X<X1X1X1X3X3X3X3X3X3X3X3X3X3X-X-X-X<X<X<X<XyXyXyX8X:X0   -X3X3X3X3X3X3X3X<X<X<X-X-X-X",
"3X3X3X3X3X3X-X-X-X3X3X3X3X3X3X  o B P U.@X%X:X:X:X7X3X3X1X1X1X<XeX&X8X3X3X-X-X-X-X3X3X3X-X-X-X-X-X-X9X,X4X2X%X#XU.H   X.<X<X-X-X-X-X5X5X5X3X3X3X-X-X-X",
"3X3X3X3X3X3X-X-X-X3X3X3X3X3X3X  o B P N.Y.R.$X$X:X7X3X3X1X1X1XeX9X$X7X3X3X-X-XyXwXtX3X3X-XeXeXeXtX-X0X7X$X#X(.R.B.N $ `  .<X-X-X-X-X5X5X5X3X3X3X-X-X-X",
"3X3X3X3X3X3X-X-X-X3X3X3X3X3X3X  o B B V B B C.Y.:X7X3X3X1X1X1X:X&XY.;X3X3X-X-XtX:X7X3X3X-X:X:X:X7X<XtX0Xm.d.f.f.d.y.B $   <X-X-X-X-X5X5X5X3X3X3X-X-X-X",
"-X-X-X3X3X3X3X3X3X3X3X3X5X5X5X  X B B V x.B.|.|.:X,X7X4X;X{.T.B.B.I.$X7XtX3X3XtX X&X8XeX1X9X7XB.Y.(.2XtX#X+Xf.j.S.j.u.<   s ` <X<X<X5X5X5X5X5X5X3X3X3X",
"-X-X-X3X3X3X3X3X3X3X3X3X5X5X5X  X B V G I.=X:X:X:X:X%X{.U.A B B G U.(.=XeX3X3XeXU.}.%X9X1X1XeXB S f.#X-X-X3Xh.k.K.D.j.5 X   = <X<X<X5X5X5X5X5X5X3X3X3X",
"-X-X-X3X3X3X3X3X3XO.; ; ; ; ;   X $ $ $ N M.P P x.P P P I V B B B P N.T.:X,X|.}.A P x.{.2XyXyX,X{.f.x.M.M.M.3 x G.F.F.C k c.z.: _ <X5X5X5X5X5X5X3X3X3X",
"<X<X<X-X-X-X3X3X3XX.      X X           6 G B B B B B B B B B B B B P U.$X:XI.B.V V V Y.:XyX-X3X:Xf.y.C B B   6 G.K.G.D n W.n.X t <X3X3X3X-X-X-X<X<X<X",
"<X<X<X-X-X-X= X   9 :X:X:X:X:X;X:X:XV.  6 n B B B S a.a.d.d.a.f.d.f.F V n B B C f.s.f.F B B B B S f.f.f.f.d.  < f.S.L.L.L.B n         X #.-X-X-X<X<X<X",
"<X<X<X-X@.+.: @ @ M :X:X:X:X:X*X*X*XV.  7 B B B B F a.a.a.s.s.f.f.j.a.S S S C Z a.a.f.u.D S S S u.j.j.h.j.h.o 3 y.k.L.L.L.S C $ O   @ @ o.+.-X-X<X<X<X",
"1X1X1X-Xp   }.,X:X:X:X:X&X:X:X:X:X:XV.  7 B B B a.a.s.s.f.a.s.s.j.G.G.L.L.L.f.d.a.a.s.D.P.P.L.L.L.G.L.L.L.L.a.Z   y.L.G.L.P.K.a.n   U.:XO . -X-X<X<X<X",
"1X1X1X-Xp   U.|.:X:X:X:X:X:X:X:X&XT J 4 x B B V a.a.f.a.a.f.f.A.D.L.L.G.L.L.A.A.A.A.A.J.P.P.L.L.L.L.L.L.L.L.A.p.  x k.F.G.P.K.k.S   V.|.O . -X-X<X<X<X",
"1X1X1X-Xp   N.I.:X:X:X:X:X:X:X:X.X  < n B B B V f.a.s.f.f.f.f.L.L.L.L.L.L.L.L.L.L.L.L.L.L.L.L.L.L.L.L.L.L.L.G.S.X 5 x S.G.L.L.G.p.O I I.O . -X-X<X<X<X",
"1X1X1X-Xo.{ i 8 :X:X*X*X;X:X:X:X.X  < B B B y.u.s.s.f.s.f.s.f.L.L.L.L.L.K.L.L.L.L.L.L.K.L.L.L.L.L.L.L.L.L.L.G.S.k 3 % d.A.L.K.A.S   & 0 [ } -X-X<X<X<X",
"1X1X1X3X3X3X= X *X:X:X:X:X*X:X:X.X  < B B B a.s.f.s.s.s.f.a.f.P.L.L.L.L.L.L.L.L.L.L.L.L.L.L.L.L.L.L.L.L.L.L.G.D.x 5 X F h.L.K.h.V       #.<X<X<X3X3X3X",
"1X1X1X3X3X3X@.@.O 0 :X:X:X:X:X:X.X  < B B B a.s.a.f.s.s.s.F.K.L.L.L.L.L.L.L.L.L.L.L.L.L.L.L.L.L.L.K.L.L.L.L.G.L.G.D   X X $ # X     [ @.$.<X<X<X3X3X3X",
"1X1X1X3X3X3X-X<X  9 &X&X:X:X:X:X.X  < V B B a.s.s.s.f.f.s.J.L.L.L.L.L.L.L.L.L.L.L.L.L.L.L.L.L.L.L.L.L.L.L.L.L.L.L.y.  O O $ o O O   { -X-X<X<X<X3X3X3X",
"1X1X1X-X-X-X-X-X      H I.$X:X:X.X  < B B B a.a.s.s.s.a.a.J.L.K.L.L.L.L.L.L.L.L.L.L.L.L.L.L.L.L.L.L.L.L.L.L.L.L.G.y.  [.:XV.I.Y.U   { 3X3X3X3X3X1X1X1X",
"1X1X1X-X-X-X .{ 9 0 M Y T.&X:XU.V.< 5 B B B u.u.s.a.s.s.a.D.F.G.K.L.L.L.L.L.L.L.L.L.L.L.L.L.L.L.L.L.L.L.L.L.L.L.G.g.k N.U.{.{.R.N.9 ' { $.3X3X3X1X1X1X",
"1X1X1X-X-X-X=   I.U.*X=X:X:X:X  X B B B B B B V a.a.a.f.a.b.b.G.K.G.L.L.L.L.L.L.L.L.L.L.L.L.L.L.L.L.L.L.L.L.L.L.G.L.L.k   *X*X*X@XI.9   @.3X3X3X1X1X1X",
"<X<X<X1X1X1X[ ` M M U I.|.|.|.  X B B B B B z l l 7 7 l k x B g.j.A.F.L.L.L.L.L.L.F.A.A.A.A.S.L.L.L.L.L.L.L.L.L.L.L.L.6   {.T.U J M d ` $.3X3X3X-X-X-X",
"<X<X<X1X1X1X-X-X  X X J I.C.Y.  o B B B B B 5 3           % 3 C S d.S.L.L.L.L.L.P.D.f.f.f.f.f.P.L.L.L.L.L.L.L.L.L.L.L.k   C.V.  X X { 3X3X3X3X3X-X-X-X",
"<X<X<X1X1X1X-X-XO.+.+.a & & @   X B B B 3 X X X           X X o o $ 5 z Z S S S h.a.a.a.a.f.f.f.f.j.D.K.L.K.L.L.L.L.G.6   & - O.O.O.@.3X3X3X3X3X-X-X-X",
"<X<X<X1X1X1X3X3X3X-X-Xs     X   X B B B <                           % 3 x B B C s.s.a.s.a.a.a.a.a.a.A.K.G.K.G.G.L.P.L.6     & 3X3X3X-X-X-X3X3X3X3X3X3X",
"<X<X<X1X1X1X3X3X3X-X-X-X-X-X-X  X B 7                 X   X                                         % 2 B S G.G.L.L.L.k   <X3X3X3X3X-X-X-X3X3X3X3X3X3X",
"<X<X<X1X1X1X3X3X3X-X-X-X-X-X-X  X B k           X           X                                       $ < z x S.S.L.L.G.k   <X3X3X3X3X-X-X-X3X3X3X3X3X3X",
"1X1X1X-X-X-X3X3X3X-X-X-X3X3X3X  X B 6 X                           X                                         $ x L.P.G.6   5X3X3X3X3X5X5X5X-X-X-X-X-X-X",
"1X1X1X-X-X-X3X3X3X-X-X-X3X3X3X  X B 6         X       % 5 X X         X         X     < 5 5 3         X     $ k k.D.P.6   5X3X3X3X3X5X5X5X-X-X-X-X-X-X",
"1X1X1X-X-X-X3X3X3X-X-X-X3X3X3X  o B 7     X           5 B #     X         X           7 B B n               $ 1 B k.P.6   5X3X3X3X3X5X5X5X-X-X-X-X-X-X",
"1X1X1X1X1X1X-X-X-X3X3X3X1X1X1X  X B k             < S F i.%     X < 2 1 < <           n i.i.u.            X X o # p.P.k   <X3X3X3X3X3X3X3X-X-X-X<X<X<X",
"1X1X1X1X1X1X-X-X-X3X3X3X1X1X1X  X B 7             3 f.f.a.%       3 5 5 5 5           B f.a.i.                    D G.k   <X3X3X3X3X3X3X3X-X-X-X<X<X<X",
"1X1X1X1X1X1X-X-X-X3X3X3X1X1X1X  $ B b 5 $       B Z c.b.a.%   5 5 5 5 5 5 5 5 2       n f.c.z.B l                 y.G.6   <X3X3X3X3X3X3X3X-X-X-X<X<X<X",
"-X-X-X-X-X-X-X-X-X1X1X1X3X3X3X+ + b z 5 #     X C L c.l.f.%   5 5 5 5 5 5 5 5 3 X X   n a.c.z.Z z       X   X   X D F.7 + <X<X<X<X<X1X1X1X<X<X<X-X-X-X",
"-X-X-X-X-X-X-X-X-X1X1X1X3X3X3X3XO.  < B <     X f.b.Q.n.c.2   5 5 5 5 5 5 5 5 5 5 %   n s.H.H.c.K             $ B 5 X  .<X<X<X<X<X<X1X1X1X<X<X<X-X-X-X",
"-X-X-X-X-X-X-X-X-X1X1X1X3X3X3X3XO.  1 B 7 3     F b.^.E.n.2   5 5 5 5 5 5 5 5 5 5 2   b u.!.!.z.K       X   3 6 F 6    .<X<X<X<X<X<X1X1X1X<X<X<X-X-X-X",
"1X1X1X-X-X-X3X3X3X3X3X3X-X-X-X-XO.X < B B B X X V l.`.^.Q.2   5 5 5 5 5 5 5 5 5 5 %   7 B /./.c.K           B Z a.z    .1X1X1X1X1X1X<X<X<X3X3X3X<X<X<X",
"1X1X1X-X-X-X3X3X3X3X3X3X-X-X-X-X#.} a % z B l l & K `.)./.L K o & b b b b b b b 5 %   7 n ).).!.v.      6 l u.Z 1 d { @.1X1X1X1X1X1X<X<X<X3X3X3X<X<X<X",
"1X1X1X-X-X-X3X3X3X3X3X3X-X-X-X-X3X3X]   6 B B n   v `.`.`.n.z.  # B B B B B B n 5 %   7 A _._.^.m.      z V a.Z   _ 1X1X1X1X1X1X1X1X<X<X<X3X3X3X<X<X<X",
"1X1X1X-X-X-X3X3X3X3X3X3X-X-X-X-X3X3X$.@.t X x n   c Q.Q.Q.W.E.  # B B B B B B B n 7   m l.'.'.^.m.  z i.a.i.X : @.#.1X1X1X1X1X1X1X1X<X<X<X3X3X3X<X<X<X",
"3X3X3X1X1X1X<X<X<X<X<X<X5X5X5X5X3X3X3X<Xp . b n   c W.W.W.W.E.  # B V B B B B B n 7   m v.'.'.^.n.o b i.i.i.. r 1X1X1X-X-X-X3X3X3X3X-X-X-X3X3X3X-X-X-X",
"3X3X3X1X1X1X<X<X<X<X<X<X5X5X5X5X3X3X3X<X<X<X.     c W.W.W.c.z.  % a.a.a.Z B B B B 7   l.Q.Q.Q.'.'.E.m       <X<X1X1X1X-X-X-X3X3X3X3X-X-X-X3X3X3X-X-X-X",
"3X3X3X1X1X1X<X<X<X<X<X<X5X5X5X5X3X3X3X<X<X<Xt e X c W.W.W.L K X # B S u.S S Z S S l   L E.E.W.'._.~.K   e r <X<X1X1X1X-X-X-X3X3X3X3X-X-X-X3X3X3X-X-X-X",
"-X-X-X3X3X3X3X3X3X3X3X3X5X5X5X5X1X1X1X<X<X<X<X@.  c W.W.W.2         5 B u.a.a.a.s.n   m z.E.W.W.~._.I   X.-X-X-X<X<X<X1X1X1X-X-X-X-X3X3X3X1X1X1X3X3X3X",
"-X-X-X3X3X3X3X3X3X3X3X3X5X5X5X5X1X1X1X<X<X<X<X$.` a m m m s ` ` ` ` u 3 7 l l k l <   2 7 E.E.E.~._.I X X.-X-X-X<X<X<X1X1X1X-X-X-X-X3X3X3X1X1X1X3X3X3X",
"-X-X-X3X3X3X3X3X3X3X3X3X5X5X5X5X1X1X1X<X<X<X<X<X<X} X X X o.<X-X-X<Xs   X         X X     E.E.E.~.`.I   X.-X-X-X<X<X<X1X1X1X-X-X-X-X3X3X3X1X1X1X3X3X3X",
"-X-X-X-X-X-X-X-X-X-X-X-X1X1X1X1X3X3X3X-X-X-X1X1X1X#.O.O.O.$.<X1X1X1X@.O.O.O.O.O.+.+.+.+.+.2 2 E.Q.Q.K   o.1X1X1X1X1X1X-X-X-X1X1X1X1X3X3X3X3X3X3X3X3X3X",
"-X-X-X-X-X-X-X-X-X-X-X-X1X1X1X1X3X3X3X-X-X<X1X1X1X3X3X3X<X<X<X1X1X1X1X1X1X<X<X<X<X<X<X<X3X. o Q.W.W.K   o.1X1X1X1X1X1X-X-X-X1X1X1X1X3X3X3X3X3X3X3X3X3X",
"-X-X-X-X-X-X-X-X-X-X-X-X1X1X1X1X3X3X3X-X-X-X1X1X1X3X3X3X<X<X<X1X1X1X1X<X1X<X<X<X<X<X<X<X3X3X3X3X3X3X3X3X3X1X1X1X1X1X1X-X-X-X1X1X1X1X3X3X3X3X3X3X3X3X3X"
};
