/* XPM */
static char *f075fb6a65804102f54200543504f3e5ztSLMRCIvdf3OapP[] = {
/* columns rows colors chars-per-pixel */
"75 75 15 1 ",
"  c black",
". c #004121",
"X c #002063",
"o c #006142",
"O c #E76100",
"+ c #0041A5",
"@ c #0061C6",
"# c #6382C6",
"$ c #E7A284",
"% c #9CDEDE",
"& c #94D6EF",
"* c #94CEF7",
"= c #A5C3E7",
"- c #B5DEE7",
"; c #DEE7D6",
/* pixels */
"%%%***---***%%%%%%%---%%%***%%%%%%***----------------%%%----------***%%%%%%",
"%%%***---***%%%%%%%---%%%***%%%%%%***----------------%%%----------***%%%%%%",
"%%%***---***%%%%%%%---%%%***%%%%%%***----------------%%%----------***%%%%%%",
"------------&&&&%%%&&&---%%%----------------%%%&&&&&&---%%%----------%%%***",
"------------&&&&%%%&&&---%%%----------------%%%&&&&&&---%%%----------%%%***",
"------------&&&&%%%&&&---%%%----------------%%%&&&&&&---%%%----------%%%***",
"---******&&&%%%%%%%%%%%%%%%%------&&&*******&&&&&&---%%%&&&***----&&&---%%%",
"---******&&&%%%%%%%%%%%%%%%%------&&&*******&&&&&&---%%%&&&***----&&&---%%%",
"---******&&&%%%%%%%%%%%%%%%%------&&&*******&&&&&&---%%%&&&***----&&&---%%%",
"%%%---%%%---&&&&&&&---&&&---------%%%&&&&&&&&&&***&&&&&&&&&&&&%%%%%%%%%%%%%",
"%%%---%%%---&&&&&&&---&&&---------%%%&&&&&&&&&&***&&&&&&&&&&&&%%%%%%%%%%%%%",
"%%%---%%%---&&&&&&&---&&&---------%%%&&&&&&&&&&***&&&&&&&&&&&&%%%%%%%%%%%%%",
"***---%%%&&&%%%%---%%%%%%%%%%%%----------&&&&&&---&&&&&&%%%%%%&&&&%%%%%%%%%",
"***---%%%&&&%%%%---%%%%%%%%%%%%----------&&&&&&---&&&&&&%%%%%%&&&&%%%%%%%%%",
"***---%%%&&&%%%%---%%%%%%%%%%%%----------&&&&&&---&&&&&&%%%%%%&&&&%%%%%%%%%",
"***---%%%&&&%%%%---%%%%%%%%            --&&&&&&---&&&&&&%%%%%%&&&&%%%%%%%%%",
"******&&&-------%%%%%%%%   ++@@@@@++++X    -&&&%%%***%%%%%%%%%&&&&&&&***%%%",
"******&&&-------%%%%%%  #==%%%%&&=##XX+++XX &&&%%%***%%%%%%%%%&&&&&&&***%%%",
"******&&&-------%%%%%%  #==%%%%&&=##XX+++XX &&&%%%***%%%%%%%%%&&&&&&&***%%%",
"%%%&&&***%%%%%%%%%%%%%  #==&---&&=##XX+++XX &&&&&&%%%------%%%%%%%&&&&&&&&&",
"%%%&&&***%%%%%%%%%%%  ##=&&       ====#XX++X   &&&%%%------%%%%%%%&&&&&&&&&",
"%%%&&&***%%%%%%%%%%%  ==-  OO$$$$ OO++=##XXX   &&&%%%------%%%%%%%&&&&&&&&&",
"***%%%&&&%%%%%%%***%  ==-  OO$$$$ OO++=##XXX   %%%***%%%------%%%%%%%&&&---",
"***%%%&&&%%%%%%%**  ##-- ==  $$  ===OO+==XXX   %%%***%%%------%%%%%%%&&&---",
"***%%%&&&%%%%%%%**  ##-- ==  $$  ===OO+==XXX   %%%***%%%------%%%%%%%&&&---",
"%%%%%%&&&---****--  ==;; --==$$==&**==O--##X   %%%&&&&&&%%%%%%-------&&&%%%",
"%%%%%%&&&---****--  ==;; --..$$..o**==O--==X   %%%&&&&&&%%%%%%-------&&&%%%",
"%%%%%%&&&---****--  ==;; --..$$..o**==O--==X   %%%&&&&&&%%%%%%-------&&&%%%",
"------%%%---------  ==-- --..$$..o--==+%%==X          &&&&&&&&%%%%;;;---%%%",
"------%%%---------  ==-- --..$$..o--==+%%==X          &&&&&&&&%%%%;;;---%%%",
"------%%%---------  ##== ==-*$$&&&==OO+%%##X   +XXXX##   &&&&&%%%%;;;---%%%",
"%%%---------;;;;;;;-  ##=OO$$    $OO++-==XX XXX@+=====### &&&&&&&&;;;;;;---",
"%%%---------;;;;;;;-  ##=OO$$    $OO++-==XX XXX@+=====### &&&&&&&&;;;;;;---",
"%%%---------;;;;;;;-  ##=OO$$    $OO++-==XX XXX@+=====### &&&&&&&&;;;;;;---",
"&&&%%%----------&&&&&&  #==  $$OO ++%*=XX  X+++  ###-&=== -&&&&&&&---%%%&&&",
"&&&%%%----------&&       ##==++  +%%##   XX    --    &=== -&&&&&&&---%%%&&&",
"&&&%%%----------&&       ##==++  +%%##   XX    --    &=== -&&&&&&&---%%%&&&",
"***%%%---%%%&&&&* ####  #    ==++-    X++++ %%%%%   #=### %&&&&&&&&&&%%%&&&",
"***%%%---%%%&&&&* ####  #    ==++-    X++++ %%%%%   #=### %&&&&&&&&&&%%%&&&",
"***%%%---%%%&&&&* ==--##=++XX  == XX++@++XX#   %%%--     %%&&&&&&&&&&%%%&&&",
"***%%%---%%%&&&&* ==--==#XX    XX=  ##=%%==XXXX %%------%%%&&&&&&&&&&%%%&&&",
"***---%%%&&&&&&&- ==%%==#XX    XX=  ##=&&==XXXX --&&&---&&&&&&----%%%&&&---",
"***---%%%&&&&&&&- ##==##   &%%%          XX+XXX -     --&&&&&&----%%%&&&---",
"***---%%%&&&&&&&- ##==##   &%%%          XX+XXX -     --&&&&&&----%%%&&&---",
"***%%%%%%***%%%%**      -&&&&  XX+@@@@@@@+++XXX  ====#   %%***----------***",
"***%%%%%%***%%%%***&&&---&&  ##==X+++++++++X   +#===-=### %***----------***",
"***%%%%%%***%%%%***&&&---&&  ##==X+++++++++X   +#===-=### %***----------***",
"&&&***%%%%%%****&&&------%%  ==&&=          +++@+   =;=== *---&&&&------%%%",
"&&&***%%%%%%****&&&------%%  ==&&=          +++@+   =;=== *---&&&&------%%%",
"&&&***%%%%%%****&&&------%%  ####=##  &&&  X++++X    =### *---&&&&------%%%",
"&&&***---%%%%%%%&&&***&&&--  ####=##  ***  X++++X    =### -&&&----%%%------",
"&&&***---%%%%%%%&&&***&&&  ##==&&&==  ***&&      %;;;    --&&&----%%%------",
"&&&***---%%%%%%%&&&***&& ##==%%&&=##  ***&&&&&&%%%;;;------&&&----%%%------",
"***%%%---%%%----%%%***%% ##==%%%%=##  &&&&&&&&&***---&&&%%%;;;----;;;%%%%%%",
"***%%%---%%%----%%%***%%            -&&&&&&&&&&***---&&&%%%;;;----;;;%%%%%%",
"***%%%---%%%----%%%***%%            -&&&&&&&&&&***---&&&%%%;;;----;;;%%%%%%",
"******%%%---*******---%%%%%%---------&&&&%%%------***---%%%&&&-------%%%&&&",
"******%%%---*******---%%%%%%---------&&&&%%%------***---%%%&&&-------%%%&&&",
"******%%%---*******---%%%%%%---------&&&&%%%------***---%%%&&&-------%%%&&&",
"%%%%%%%%%***----%%%%%%%%%&&&---%%%---%%%%%%%%%%------***&&&&&&&&&&***&&&%%%",
"%%%%%%%%%***----%%%%%%%%%&&&---%%%---%%%%%%%%%%------***&&&&&&&&&&***&&&%%%",
"%%%%%%%%%***----%%%%%%%%%&&&---%%%---%%%%%%%%%%------***&&&&&&&&&&***&&&%%%",
"***%%%------%%%%---&&&&&&%%%%%%%%%%%%;;;;;;;---&&&---&&&**********&&&---&&&",
"***%%%------%%%%---&&&&&&%%%%%%%%%%%%;;;;;;;---&&&---&&&**********&&&---&&&",
"***%%%------%%%%---&&&&&&%%%%%%%%%%%%;;;;;;;---&&&---&&&**********&&&---&&&",
"***%%%------%%%%---&&&&&&%%%%%%%%%%%%;;;;;;;---&&&---&&&**********&&&---&&&",
"---***&&&&&&;;;;---&&&***------&&&&&&----%%%;;;%%%***&&&***%%%----%%%---%%%",
"---***&&&&&&;;;;---&&&***------&&&&&&----%%%;;;%%%***&&&***%%%----%%%---%%%",
"---***&&&&&&;;;;---&&&***------&&&&&&----%%%;;;%%%***&&&***%%%----%%%---%%%",
"%%%---------;;;;***&&&&&&***&&&%%%-------&&&&&&---***%%%&&&***%%%%---***---",
"%%%---------;;;;***&&&&&&***&&&%%%-------&&&&&&---***%%%&&&***%%%%---***---",
"%%%---------;;;;***&&&&&&***&&&%%%-------&&&&&&---***%%%&&&***%%%%---***---",
"%%%%%%%%%%%%****---%%%***---&&&******&&&&&&&---------******%%%****---------",
"%%%%%%%%%%%%****---%%%***---&&&******&&&&&&&---------******%%%****---------",
"%%%%%%%%%%%%****---%%%***---&&&******&&&&&&&---------******%%%****---------"
};
