/* XPM */
static char *_b7d725251b04cffe40563357860b338ovRhCphjw03hNnBu[] = {
/* columns rows colors chars-per-pixel */
"75 75 15 1 ",
"  c black",
". c #004121",
"X c #002063",
"o c #006142",
"O c #E76100",
"+ c #0041A5",
"@ c #0061C6",
"# c #6382C6",
"$ c #E7A284",
"% c #9CDEDE",
"& c #94D6EF",
"* c #94CEF7",
"= c #A5C3E7",
"- c #B5DEE7",
"; c #DEE7D6",
/* pixels */
"%%%***---***%%%%%%%---%%%***%%%%%%***----------------%%%----------***%%%%%%",
"%%%***---***%%%%%%%---%%%***%%%%%%***----------------%%%----------***%%%%%%",
"%%%***---***%%%%%%%---%%%***%%%%%%***----------------%%%----------***%%%%%%",
"------------&&&&%%%&&&---%%%----------------%%%&&&&&&---%%%----------%%%***",
"------------&&&&%%%&&&---%%%----------------%%%&&&&&&---%%%----------%%%***",
"------------&&&&%%%&&&---%%%----------------%%%&&&&&&---%%%----------%%%***",
"---******&&&%%%%%%%%%%%%%%%%------&&&*******&&&&&&---%%%&&&***----&&&---%%%",
"---******&&&%%%%%%%%%%%%%%%%------&&&*******&&&&&&---%%%&&&***----&&&---%%%",
"---******&&&%%%%%%%%%%%%%%%%------&&&*******&&&&&&---%%%&&&***----&&&---%%%",
"%%%---%%%---&&&&&&&---&&&---------%%%&&&&&&&&&&***&&&&&&&&&&&&%%%%%%%%%%%%%",
"%%%---%%%---&&&&&&&---&&&---------%%%&&&&&&&&&&***&&&&&&&&&&&&%%%%%%%%%%%%%",
"%%%---%%%---&&&&&&&---&&&---------%%%&&&&&&&&&&***&&&&&&&&&&&&%%%%%%%%%%%%%",
"***---%%%&&&%%%%---%%%%%%%%%%%%----------&&&&&&---&&&&&&%%%%%%&&&&%%%%%%%%%",
"***---%%%&&&%%%%---%%%%%%%%%%%%----------&&&&&&---&&&&&&%%%%%%&&&&%%%%%%%%%",
"***---%%%&&&%%%%---%%%%%%%%           ---&&&&&&---&&&&&&%%%%%%&&&&%%%%%%%%%",
"***---%%%&&&%%%%---%%%%%%%%           ---&&&&&&---&&&&&&%%%%%%&&&&%%%%%%%%%",
"******&&&-------%%%%%%%%%%%           ------&&&%%%***%%%%%%%%%&&&&&&&***%%%",
"******&&&-------%%%%%%%    +@@@@@++++X    --&&&%%%***%%%%%%%%%&&&&&&&***%%%",
"******&&&-------%%%%%  ##==%%%%&=###X++++X -&&&%%%***%%%%%%%%%&&&&&&&***%%%",
"%%%&&&***%%%%%%%%%%%%  ##==&---&=###X++++X &&&&&&&%%%------%%%%%%%&&&&&&&&&",
"%%%&&&***%%%%%%%%%%  ##==&&      ====#XXX+X   &&&&%%%------%%%%%%%&&&&&&&&&",
"%%%&&&***%%%%%%%%%%  ##==&&      ====#XXX+X   &&&&%%%------%%%%%%%&&&&&&&&&",
"***%%%&&&%%%%%%%***  ==--  O$$$$ OOO+=###XX   %%%%***%%%------%%%%%%%&&&---",
"***%%%&&&%%%%%%%** ##%-  == $$  ====O+===XX   %%%%***%%%------%%%%%%%&&&---",
"***%%%&&&%%%%%%%** ##%-  == $$  ====O+===XX   %%%%***%%%------%%%%%%%&&&---",
"%%%%%%&&&---****-- ==-;  --=$$==&&**=O---#X   -%%%&&&&&&%%%%%%-------&&&%%%",
"%%%%%%&&&---****-- ==-;  --=$$==&&**=O---#X   -%%%&&&&&&%%%%%%-------&&&%%%",
"%%%%%%&&&---****-- ==-;  --.$$..o&**=O---=X   -%%%&&&&&&%%%%%%-------&&&%%%",
"------%%%--------- ==;-  --.$$..o&--=+%%%=X   %%%%***&&&&&&&&&%%%%;;;---%%%",
"------%%%--------- ==;-  --.$$..o&--=+%%%=X   %%%%***&&&&&&&&&%%%%;;;---%%%",
"------%%%--------- ==;-  --.$$..o&--=+%%%=X   %%%%***&&&&&&&&&%%%%;;;---%%%",
"%%%---------;;;;;; ##==  ==&$$&&&===O+---#X   *%%%%%%---&&&&&&&&&&;;;;;;---",
"%%%---------;;;;;;;  ##==OO$    $OOO+-===X    *%%%%%%---&&&&&&&&&&;;;;;;---",
"%%%---------;;;;;;;  ##==OO$    $OOO+-===X    *%%%%%%---&&&&&&&&&&;;;;;;---",
"&&&%%%----------&&&&&  ##== $$OO +++%=XXX XXXX ------&&&---&&&&&&&---%%%&&&",
"&&&%%%----------&&&&&  ##== $$OO +++%=XXX XXXX ------&&&---&&&&&&&---%%%&&&",
"&&&%%%----------&&&&&&&  ##=++  +-%%#    X@+++X -----&&&---&&&&&&&---%%%&&&",
"***%%%---%%%&&&&***---%%%   ==++-    X++++ @@@= %%------%%%&&&&&&&&&&%%%&&&",
"***%%%---%%%&&&&***---%%%   ==++-    X++++ @@@= %%------%%%&&&&&&&&&&%%%&&&",
"***%%%---%%%&&&&***---%%%  X  == XXX+@+++X ===%#   -----%%%&&&&&&&&&&%%%&&&",
"***%%%---%%%&&&&***---%%%  X  == XXX+@+++X ===%#   -----%%%&&&&&&&&&&%%%&&&",
"***---%%%&&&&&&&---%%%&&&  #  XX=   X=&&& #===-=   &&---&&&&&&----%%%&&&---",
"***---%%%&&&&&&&---%%%&  ##=##  #%&&&&+++  ###==   &&---&&&&&&----%%%&&&---",
"***---%%%&&&&&&&---%%%&  ##=##  #%&&&&+++  ###==   &&---&&&&&&----%%%&&&---",
"***%%%%%%***%%%%***&&&-  ##&==   +++X+@@@ #===-#   --;;;%%%***----------***",
"***%%%%%%***%%%%***&&&-  ##&==   +++X+@@@ #===-#   --;;;%%%***----------***",
"***%%%%%%***%%%%***&&&---  =##  @+++ @@@@+      -----;;;%%%***----------***",
"&&&***%%%%%%****&&&------  =##  @+++ @@@@+      ;;---;;;***---&&&&------%%%",
"&&&***%%%%%%****&&&------%%   @@X   X++++X -;;;;;;---;;;***---&&&&------%%%",
"&&&***%%%%%%****&&&------%%%  ## ====#XXX --;;;;;;---;;;***---&&&&------%%%",
"&&&***---%%%%%%%&&&***&&&---  ## ====#XXX &&&&&%%%;;;------&&&----%%%------",
"&&&***---%%%%%%%&&&***&&&---%%   ###%=   &&&&&&%%%;;;------&&&----%%%------",
"&&&***---%%%%%%%&&&***&&&---%%   ###%=   &&&&&&%%%;;;------&&&----%%%------",
"***%%%---%%%----%%%***%%%---%%      #=### &&&&&***---&&&%%%;;;----;;;%%%%%%",
"***%%%---%%%----%%%***%%%--     #===-&=== &&&&&***---&&&%%%;;;----;;;%%%%%%",
"***%%%---%%%----%%%***%%%--     #===-&=== &&&&&***---&&&%%%;;;----;;;%%%%%%",
"******%%%---*******---%%%  #  ##=----=### %%------***---%%%&&&-------%%%&&&",
"******%%%---*******---%%%  #  ##=----=### %%------***---%%%&&&-------%%%&&&",
"******%%%---*******---%%%                %%%------***---%%%&&&-------%%%&&&",
"%%%%%%%%%***----%%%%%%%%%&&&---%%%---%%%%%%%%%%------***&&&&&&&&&&***&&&%%%",
"%%%%%%%%%***----%%%%%%%%%&&&---%%%---%%%%%%%%%%------***&&&&&&&&&&***&&&%%%",
"%%%%%%%%%***----%%%%%%%%%&&&---%%%---%%%%%%%%%%------***&&&&&&&&&&***&&&%%%",
"***%%%------%%%%---&&&&&&%%%%%%%%%%%%;;;;;;;---&&&---&&&**********&&&---&&&",
"***%%%------%%%%---&&&&&&%%%%%%%%%%%%;;;;;;;---&&&---&&&**********&&&---&&&",
"***%%%------%%%%---&&&&&&%%%%%%%%%%%%;;;;;;;---&&&---&&&**********&&&---&&&",
"***%%%------%%%%---&&&&&&%%%%%%%%%%%%;;;;;;;---&&&---&&&**********&&&---&&&",
"---***&&&&&&;;;;---&&&***------&&&&&&----%%%;;;%%%***&&&***%%%----%%%---%%%",
"---***&&&&&&;;;;---&&&***------&&&&&&----%%%;;;%%%***&&&***%%%----%%%---%%%",
"---***&&&&&&;;;;---&&&***------&&&&&&----%%%;;;%%%***&&&***%%%----%%%---%%%",
"%%%---------;;;;***&&&&&&***&&&%%%-------&&&&&&---***%%%&&&***%%%%---***---",
"%%%---------;;;;***&&&&&&***&&&%%%-------&&&&&&---***%%%&&&***%%%%---***---",
"%%%---------;;;;***&&&&&&***&&&%%%-------&&&&&&---***%%%&&&***%%%%---***---",
"%%%%%%%%%%%%****---%%%***---&&&******&&&&&&&---------******%%%****---------",
"%%%%%%%%%%%%****---%%%***---&&&******&&&&&&&---------******%%%****---------",
"%%%%%%%%%%%%****---%%%***---&&&******&&&&&&&---------******%%%****---------"
};
