/* XPM */
static char *_13f3e20c5584803b8d2ac2ddb799bb35U3wSMiZQh0FxF7Z[] = {
/* columns rows colors chars-per-pixel */
"75 75 15 1 ",
"  c black",
". c #772828",
"X c #004422",
"o c #002063",
"O c #006644",
"+ c #00AA66",
"@ c #0041A5",
"# c #0061C6",
"$ c #6382C6",
"% c #9CDEDE",
"& c #94D6EF",
"* c #94CEF7",
"= c #A5C3E7",
"- c #B5DEE7",
"; c #DEE7D6",
/* pixels */
"%%%***---***%%%%%%%---%%%***%%%%%%***----------------%%%----------***%%%%%%",
"%%%***---***%%%%%%%---%%%***%%%%%%***----------------%%%----------***%%%%%%",
"%%%***---***%%%%%%%---%%%***%%%%%%***----------------%%%----------***%%%%%%",
"------------&&&&%%%&&&---%%%----------------%%%&&&&&&---%%%----------%%%***",
"------------&&&&%%%&&&---%%%----------------%%%&&&&&&---%%%----------%%%***",
"------------&&&&%%%&&&---%%%----------------%%%&&&&&&---%%%----------%%%***",
"---******&&&%%%%%%%%%%%%%%%%------&&&*******&&&&&&---%%%&&&***----&&&---%%%",
"---******&&&%%%%%%%%%%%%%%%%------&&&*******&&&&&&---%%%&&&***----&&&---%%%",
"---******&&&%%%%%%%%%%%%%%%%------&&&*******&&&&&&---%%%&&&***----&&&---%%%",
"%%%---%%%---&&&&&&&---&&&---------%%%&&&&&&&&&&***&&&&&&&&&&&&%%%%%%%%%%%%%",
"%%%---%%%---&&&&&&&---&&&---------%%%&&&&&&&&&&***&&&&&&&&&&&&%%%%%%%%%%%%%",
"%%%---%%%---&&&&&&&---&&&---------%%%&&&&&&&&&&***&&&&&&&&&&&&%%%%%%%%%%%%%",
"***---%%%&&&%%%%---%%%%%%%%%%%%----------&&&&&&---&&&&&&%%%%%%&&&&%%%%%%%%%",
"***---%%%&&&%%%%---%%%%%%%%%%            &&&&&&---&&&&&&%%%%%%&&&&%%%%%%%%%",
"***---%%%&&&%%%%---%%%%%%%%%%            &&&&&&---&&&&&&%%%%%%&&&&%%%%%%%%%",
"***---%%%&&&%%%%---%%%%%%%%%%            &&&&&&---&&&&&&%%%%%%&&&&%%%%%%%%%",
"******&&&-------%%%%%%%%%    @######@@@oo   &&&%%%***%%%%%%%%%&&&&&&&***%%%",
"******&&&-------%%%%%%%% @@@###########@@@@o  &%%%***%%%%%%%%%&&&&&&&***%%%",
"******&&&-------%%%%%   @@@@#############@@@oo  %%***%%%%%%%%%&&&&&&&***%%%",
"%%%&&&***%%%%%%%%%%%%   @@@@#############@@@oo  &&%%%------%%%%%%%&&&&&&&&&",
"%%%&&&***%%%%%%%%%%%%   @@@@#############@@@oo  &&%%%------%%%%%%%&&&&&&&&&",
"%%%&&&***%%%%%%%%%%%%   @##################@oo  &&%%%------%%%%%%%&&&&&&&&&",
"***%%%&&&%%%%%%%***% @@@###################@oo  %%***%%%------%%%%%%%&&&---",
"***%%%&&&%%%%%%%***% @@@###################@oo  %%***%%%------%%%%%%%&&&---",
"***%%%&&&%%%%%%%***% @@@###################@oo  %%***%%%------%%%%%%%&&&---",
"%%%%%%&&&---****---- @@@###################@oo  %%&&&&&&%%%%%%-------&&&%%%",
"%%%%%%&&&---****---- @@@###################@oo  %%&&&&&&%%%%%%-------&&&%%%",
"%%%%%%&&&---****---- @@@#################@@@oo  %%&&&&&&%%%%%%-------&&&%%%",
"------%%%----------; @@@#################@@@oo  %%***&&&&&&&&&%%%%;;;---%%%",
"------%%%----------; @@@@################@@ooo  %%***&&&&&&&&&%%%%;;;---%%%",
"------%%%----------; @@@@################@@ooo  %%***&&&&&&&&&%%%%;;;---%%%",
"%%%---------;;;;;;;--   @@@@###########@@@@o      %%%---&&&&&&&&&&;;;;;;---",
"%%%---------;;;;;;;- @@@ @@@@#########@@@oo @@##@@ %%---&&&&&&&&&&;;;;;;---",
"%%%---------;;;;;;;- @@@ @@@@#########@@@oo @@##@@ %%---&&&&&&&&&&;;;;;;---",
"&&&%%%----------&&& @###@ooo@@###O++@@@oo  ooo@@##@  &&&---&&&&&&&---%%%&&&",
"&&&%%%----------&&& @###@ooo@@###O++@@@oo  ooo@@##@  &&&---&&&&&&&---%%%&&&",
"&&&%%%----------&&& $@@@o   @#OOOOOO++#@@@@o  oo@@$  &&&---&&&&&&&---%%%&&&",
"***%%%---%%%&&&&   $=$$$    @#OOOOOO++###@@ ..  $$=$$  -%%%&&&&&&&&&&%%%&&&",
"***%%%---%%%&&&&   $=$$$    @#OOOOOO++###@@ ..  $$=$$  -%%%&&&&&&&&&&%%%&&&",
"***%%%---%%%&&& $$$=-===    o@XXXOOOOO#@@oo   $$==-$$  -%%%&&&&&&&&&&%%%&&&",
"***%%%---%%%&&& $$$=-===    o@XXXOOOOO#@@oo   $$==-$$  -%%%&&&&&&&&&&%%%&&&",
"***---%%%&&&&&& $$$=%===$   $=XXXXXXOO===$$ $$==--&==  -&&&&&&----%%%&&&---",
"***---%%%&&&&&& $$$=%===$   $=XXXXXXOO===$$ $$==--&==  -&&&&&&----%%%&&&---",
"***---%%%&&&&&& $$$=%   $   $=%%%%&&&&===$$   $$==&==  -&&&&&&----%%%&&&---",
"***%%%%%%***%%%%   $=$$$ ooo#####@@@###@@oo $$==---$$  ;%%%***----------***",
"***%%%%%%***%%%%   $=$$$ ooo#####@@@###@@oo $$==---$$  ;%%%***----------***",
"***%%%%%%***%%%%***     o####@ooo   @@###@@   $$==$  ;;;%%%***----------***",
"&&&***%%%%%%****&&&     o####@ooo   @@###@@   $$==$  ;;;***---&&&&------%%%",
"&&&***%%%%%%****&&&--   $###@o   &**  @##$$$       --;;;***---&&&&------%%%",
"&&&***%%%%%%****&&&- $$$-===$ &&&&***& $$--=$$  ;;---;;;***---&&&&------%%%",
"&&&***---%%%%%%%&&&* $$$&===$ %&&&%%%* $$&&=$$  %%;;;------&&&----%%%------",
"&&&***---%%%%%%%    $*&&&===$ %&&&%%%* ==&&&&&    ;;;------&&&----%%%------",
"&&&***---%%%%%%%    $*&&&===$ %&&&%%%* ==&&&&&    ;;;------&&&----%%%------",
"***%%%---%%%--- $$$=**%%%===$ %%%%---& ==&&&&&==$$ --&&&%%%;;;----;;;%%%%%%",
"***%%%---%%%-- $===**====$$$$ %%%%---& $$===&&&*==$  &&&%%%;;;----;;;%%%%%%",
"***%%%---%%%-- $===**====$$$$ %%%%---& $$===&&&*==$  &&&%%%;;;----;;;%%%%%%",
"******%%%---** $===--====$$$$ -------& $$===----==$  ---%%%&&&-------%%%&&&",
"******%%%---**               --------&&              ---%%%&&&-------%%%&&&",
"******%%%---*******---%%%%%%---------&&&&%%%------***---%%%&&&-------%%%&&&",
"%%%%%%%%%***----%%%%%%%%%&&&---%%%---%%%%%%%%%%------***&&&&&&&&&&***&&&%%%",
"%%%%%%%%%***----%%%%%%%%%&&&---%%%---%%%%%%%%%%------***&&&&&&&&&&***&&&%%%",
"%%%%%%%%%***----%%%%%%%%%&&&---%%%---%%%%%%%%%%------***&&&&&&&&&&***&&&%%%",
"***%%%------%%%%---&&&&&&%%%%%%%%%%%%;;;;;;;---&&&---&&&**********&&&---&&&",
"***%%%------%%%%---&&&&&&%%%%%%%%%%%%;;;;;;;---&&&---&&&**********&&&---&&&",
"***%%%------%%%%---&&&&&&%%%%%%%%%%%%;;;;;;;---&&&---&&&**********&&&---&&&",
"***%%%------%%%%---&&&&&&%%%%%%%%%%%%;;;;;;;---&&&---&&&**********&&&---&&&",
"---***&&&&&&;;;;---&&&***------&&&&&&----%%%;;;%%%***&&&***%%%----%%%---%%%",
"---***&&&&&&;;;;---&&&***------&&&&&&----%%%;;;%%%***&&&***%%%----%%%---%%%",
"---***&&&&&&;;;;---&&&***------&&&&&&----%%%;;;%%%***&&&***%%%----%%%---%%%",
"%%%---------;;;;***&&&&&&***&&&%%%-------&&&&&&---***%%%&&&***%%%%---***---",
"%%%---------;;;;***&&&&&&***&&&%%%-------&&&&&&---***%%%&&&***%%%%---***---",
"%%%---------;;;;***&&&&&&***&&&%%%-------&&&&&&---***%%%&&&***%%%%---***---",
"%%%%%%%%%%%%****---%%%***---&&&******&&&&&&&---------******%%%****---------",
"%%%%%%%%%%%%****---%%%***---&&&******&&&&&&&---------******%%%****---------",
"%%%%%%%%%%%%****---%%%***---&&&******&&&&&&&---------******%%%****---------"
};
