/* XPM */
static char *_f573d15a4434759be1bface9b077771IDuqjkUD0tkZZ5Xt[] = {
/* columns rows colors chars-per-pixel */
"75 75 20 1 ",
"  c #9CDEDE",
". c #94CEF7",
"X c #73ADDE",
"o c #006BF7",
"O c #0052DE",
"+ c #B5DEE7",
"@ c #10D6F7",
"# c #00B5F7",
"$ c #008CF7",
"% c #8CF7F7",
"& c #0842B5",
"* c #10426B",
"= c black",
"- c #FFFF75",
"; c yellow",
": c #FFE100",
"> c #FFBE00",
", c #FFA000",
"< c #FF7500",
"1 c #FF5600",
/* pixels */
"   ....     ..........XXXoooooooOOOXX...+++++++   ...XXXXoooOOOOOXXX       ",
"   ....     ..........XXXoooooooOOOXX...+++++++   ...XXXXoooOOOOOXXX       ",
"   ....     ..........XXXoooooooOOOXX...+++++++   ...XXXXoooOOOOOXXX       ",
"+++    XXXoooooOOOXXXXoooooo@@@@oooOOXXXXXX.......XXXoooo###oooOOOOOXXXX   ",
"+++    XXXoooooOOOXXXXoooooo@@@@oooOOXXXXXX.......XXXoooo###oooOOOOOXXXX   ",
"+++    XXXoooooOOOXXXXoooooo@@@@oooOOXXXXXX.......XXXoooo###oooOOOOOXXXX   ",
"+++    XXXoooooOOOXXXXoooooo@@@@oooOOXXXXXX.......XXXoooo###oooOOOOOXXXX   ",
"...XXXXooo$$@@@oooOOOOooo%%%%%%%@@@ooOOO$$$$$$$oooooo####@@@###ooOOOOOOOXXX",
"...XXXXooo$$@@@oooOOOOooo%%%%%%%@@@ooOOO$$$$$$$oooooo####@@@###ooOOOOOOOXXX",
"...XXXXooo$$@@@oooOOOOooo%%%%%%%@@@ooOOO$$$$$$$oooooo####@@@###ooOOOOOOOXXX",
"XXXoooo$$$@@@@@@@@oooo$$$############ooo#######ooo###@@@@%%%%%%@@oooOOOOOOO",
"XXXoooo$$$@@@@@@@@oooo$$$############ooo#######ooo###@@@@%%%%%%@@oooOOOOOOO",
"OOOoooo@@@@@######@@@@ooo$$$#######OOOOO###oooo$$$@@@%%%%@@@########ooooOOO",
"OOOoooo@@@@@######@@@@ooo$$$#######OOOOO###oooo$$$@@@%%%%@@@########ooooOOO",
"OOOoooo@@@@@######@@@@ooo$$$#######OOOOO###oooo$$$@@@%%%%@@@########ooooOOO",
"OOO$$$$###############$$$OOOOOOO&&&&&OOOOOOoooo$$$@@@###################ooo",
"OOO$$$$###############$$$OOOOOOO&&&&&OOOOOOoooo$$$@@@###################ooo",
"OOO$$$$###############$$$OOOOOOO&&&&&OOOOOOoooo$$$@@@###################ooo",
"&&&OOOO$$$########$$$$OOO&&&ooooooo&&&&&OOOOOOOOOO$$$############$$$oooo&&&",
"&&&OOOO$$$########$$$$OOO&&&ooooooo&&&&&OOOOOOOOOO$$$############$$$oooo&&&",
"&&&OOOO$$$########$$$$OOO&&&ooooooo&&&&&OOOOOOOOOO$$$############$$$oooo&&&",
"&&&OOOO$$$########$$$$OOO&&&ooooooo&&&&&OOOOOOOOOO$$$############$$$oooo&&&",
"***&&&&&&&&&OOOoooOOOO&&&oooOOOOOOO&&OOOoooooooOOOOOO$$$$######$$ooo&&&&&&&",
"***&&&&&&&&&OOOoooOOOO&&&oooOOOOOOO&&OOOoooooooOOOOOO$$$$######$$ooo&&&&&&&",
"***&&&&&&&&&OOOoooOOOO&&&oooOOOOOOO&&OOOoooooooOOOOOO$$$$######$$ooo&&&&&&&",
"***&&&&OOOoo$$$$$$$$$$oooOOO&&&&&&&$$oooooooooooooOOOOOOO&&&&&&OO$$$$$$$&&&",
"***&&&&OOOoo$$$$$$$$$$oooOOO&&&&&&&$$oooooooooooooOOOOOOO&&&&&&OO$$$$$$$&&&",
"***&&&&OOOoo$$$$$$$$$$ooo================oooooooooOOOOOOO&&&&&&OO$$$$$$$&&&",
"***OOOO@@@########$$$$$$$=--------------=$$ooooOOOooo$$$$$$$$$$ooOOOooooooo",
"***OOOO@@@########$$$$$$$=--------------=$$ooooOOOooo$$$$$$$$$$ooOOOooooooo",
"***OOOO@@@########$$$$$$$=;;;;===========$$ooooOOOooo$$$$$$$$$$ooOOOooooooo",
"***OOOO@@@########$$$$$$$=;;;;=O&&&$$$$$$$$ooooOOOooo$$$$$$$$$$ooOOOooooooo",
"OOOoooo@@@@@#############=::::=======$$$OOOOOOO@@@###############$$$ooooOOO",
"OOOoooo@@@@@#############=:::::::::::==$OOOOOOO@@@###############$$$ooooOOO",
"OOOoooo@@@@@#############=>>>>>>>>>>>>>=OOOOOOO@@@###############$$$ooooOOO",
"OOO$$$$$$$##@@@@@@@@@@$$$==========>>>>=OOO$$$$@@@%%%%%%%@@@############$$$",
"OOO$$$$$$$##@@@@@@@@@@$$$ooooooo&&&=,,,,=OO$$$$@@@%%%%%%%@@@############$$$",
"ooo$$$$$$$#####@@@####ooo======OOOO=,,,,=OOoooo###@@@@@@@%%%%%%@@@@@$$$$ooo",
"ooo$$$$$$$#####@@@####ooo=<<<<=OOOO=<<<<=OOoooo###@@@@@@@%%%%%%@@@@@$$$$ooo",
"ooo$$$$$$$#####@@@####oooo=<<<<====<<<<=OOOoooo###@@@@@@@%%%%%%@@@@@$$$$ooo",
"ooo$$$$$$$#####@@@$$$$oooo=111111111111=ooooooo##########@@@@@@%%###ooooooo",
"ooo$$$$$$$#####@@@$$$$ooooo==11111111==oooooooo##########@@@@@@%%###ooooooo",
"ooo$$$$$$$#####@@@$$$$ooooooo========oooooooooo##########@@@@@@%%###ooooooo",
"ooo$$$$$$$$$###@@@$$$$ooo$$$@@@@@@@@@$$$OOOoooo#############@@@%%$$$ooooOOO",
"ooo$$$$$$$$$###@@@$$$$ooo$$$@@@@@@@@@$$$OOOoooo#############@@@%%$$$ooooOOO",
"ooo$$$$$$$$$###@@@$$$$ooo$$$@@@@@@@@@$$$OOOoooo#############@@@%%$$$ooooOOO",
"ooo$$$$$$$$$###@@@$$$$ooo$$$@@@@@@@@@$$$OOOoooo#############@@@%%$$$ooooOOO",
"ooooooo$$$$$###@@@ooooooo%%%%%%%@@@$$oooOOOoooo#############@@@@@$$$OOOOOOO",
"ooooooo$$$$$###@@@ooooooo%%%%%%%@@@$$oooOOOoooo#############@@@@@$$$OOOOOOO",
"ooooooo$$$$$###@@@ooooooo%%%%%%%@@@$$oooOOOoooo#############@@@@@$$$OOOOOOO",
"ooooooo$$$$$$$$@@@ooooooo$$$@@@@$$$ooOOOOOOoooo$$$#############@@oooOOOOOOO",
"ooooooo$$$$$$$$@@@ooooooo$$$@@@@$$$ooOOOOOOoooo$$$#############@@oooOOOOOOO",
"ooooooo$$$$$$$$@@@ooooooo$$$@@@@$$$ooOOOOOOoooo$$$#############@@oooOOOOOOO",
"ooooooo$$$$$$$$###ooooooo$$$####oooOOOOOOOOOOOO$$$$$$##########@@oooOOOOOOO",
"ooooooo$$$$$$$$###ooooooo$$$####oooOOOOOOOOOOOO$$$$$$##########@@oooOOOOOOO",
"ooooooo$$$$$$$$###ooooooo$$$####oooOOOOOOOOOOOO$$$$$$##########@@oooOOOOOOO",
"ooooooo$$$$$$$$###ooooooo$$$####oooOOOOOOOOOOOO$$$$$$##########@@oooOOOOOOO",
"OOOoooo$$$$$$$$$$$ooooooo$$$####oooOOOOOOOOOOOOooo$$$##########@@oooOOOOOOO",
"OOOoooo$$$$$$$$$$$ooooooo$$$####oooOOOOOOOOOOOOooo$$$##########@@oooOOOOOOO",
"OOOoooo$$$$$$$$$$$ooooooo$$$####oooOOOOOOOOOOOOooo$$$##########@@oooOOOOOOO",
"OOOoooo$$$$$$$$oooooooooo$$$####oooOOOOOOOOOOOOoooooo$$$$######@@oooOOOOOOO",
"OOOoooo$$$$$$$$oooooooooo$$$####oooOOOOOOOOOOOOoooooo$$$$######@@oooOOOOOOO",
"OOOoooo$$$$$$$$oooooooooo$$$####oooOOOOOOOOOOOOoooooo$$$$######@@oooOOOOOOO",
"OOOooooooo$$$$$oooooooooo$$$####oooOOOOOOOOoooo###ooo$$$$$$$#####OOOOOOOOOO",
"OOOooooooo$$$$$oooooooooo$$$####oooOOOOOOOOoooo###ooo$$$$$$$#####OOOOOOOOOO",
"XXXooooooooooooOOOOOOOoooooo$$$$ooooooooOOOoooo######oooo$$$$$$$$OOOOOOOOOO",
"XXXooooooooooooOOOOOOOoooooo$$$$ooooooooOOOoooo######oooo$$$$$$$$OOOOOOOOOO",
"XXXooooooooooooOOOOOOOoooooo$$$$ooooooooOOOoooo######oooo$$$$$$$$OOOOOOOOOO",
"   ....XXXXXOOOOOOOOOOoooooo$$$$oooooOOOOOOoooo$$$$$$ooooooo$$$$$oooOOOOXXX",
"   ....XXXXXOOOOOOOOOOoooooo$$$$oooooOOOOOOoooo$$$$$$ooooooo$$$$$oooOOOOXXX",
"   ....XXXXXOOOOOOOOOOoooooo$$$$oooooOOOOOOoooo$$$$$$ooooooo$$$$$oooOOOOXXX",
"   ....XXXXXOOOOOOOOOOoooooo$$$$oooooOOOOOOoooo$$$$$$ooooooo$$$$$oooOOOOXXX",
"            ...       ...XXXoooooooooXXX...    ..........XXXooo$$OOOXXXX...",
"            ...       ...XXXoooooooooXXX...    ..........XXXooo$$OOOXXXX...",
"            ...       ...XXXoooooooooXXX...    ..........XXXooo$$OOOXXXX..."
};
