/* XPM */
static char *_407_f2fb1e975289cdfaaceef5f2b14c395bb4fb7a46abd32fa11a5834c31c45f814[] = {
/* columns rows colors chars-per-pixel */
"75 75 241 2 ",
"   c #000002",
".  c #020A09",
"X  c #001F0B",
"o  c #14110A",
"O  c #040916",
"+  c #1A1B1D",
"@  c #380D0E",
"#  c #002F0F",
"$  c #002E12",
"%  c #003F15",
"&  c #363004",
"*  c #02152A",
"=  c #081228",
"-  c #021538",
";  c #0E302E",
":  c #2E3237",
">  c #641C15",
",  c #4D2C0A",
"<  c #004917",
"1  c #004F19",
"2  c #124212",
"3  c #005F1E",
"4  c #366616",
"5  c #0A522F",
"6  c #006F24",
"7  c #07692A",
"8  c #007F29",
"9  c #137232",
"0  c #705106",
"q  c #60521E",
"w  c #7B6C04",
"e  c #041B4E",
"r  c #032F4C",
"t  c #363D44",
"y  c #022564",
"u  c #022669",
"i  c #042B6C",
"p  c #032974",
"a  c #032B7A",
"s  c #133674",
"d  c #202E68",
"f  c #432E40",
"g  c #1E5A4E",
"h  c #354A4F",
"j  c #0A436F",
"k  c #27477A",
"l  c #4F5254",
"z  c #58696D",
"x  c #606770",
"c  c #BD0514",
"v  c #BC0324",
"b  c #B8022C",
"n  c #AE2826",
"m  c #CB0F28",
"M  c #FD0633",
"N  c #F20C31",
"B  c #D13822",
"V  c #AA5C15",
"C  c #886C0A",
"Z  c #D6580F",
"A  c #C46F0B",
"S  c #CF710E",
"D  c #EE5F28",
"F  c #FD4936",
"G  c #AC3F59",
"H  c #FD0E42",
"J  c #FD324D",
"K  c #A6535F",
"L  c #F74D57",
"P  c #FF675D",
"I  c #FF676B",
"U  c #00852A",
"Y  c #008F2E",
"T  c #009632",
"R  c #099034",
"E  c #009E33",
"W  c #02AA36",
"Q  c #00AE37",
"!  c #00B439",
"~  c #00BF3D",
"^  c #00C83F",
"/  c #028E78",
"(  c #00AF6E",
")  c #768763",
"_  c #00CF41",
"`  c #00DE46",
"'  c #00EB4A",
"]  c #00F64D",
"[  c #A68A15",
"{  c #CE8F06",
"}  c #D88905",
"|  c #E79306",
" . c #E79D00",
".. c #EB9510",
"X. c #E0991F",
"o. c #E8A508",
"O. c #F3BA08",
"+. c #E6B212",
"@. c #F8A930",
"#. c #DFC315",
"$. c #F2C50F",
"%. c #FDDB05",
"&. c #F7C816",
"*. c #FDD815",
"=. c #FFDF18",
"-. c #FFEF08",
";. c #FFE016",
":. c #FFDA2F",
">. c #FFE126",
",. c #AA9A69",
"<. c #D1B379",
"1. c #E7BF77",
"2. c #FFD14F",
"3. c #F0CE70",
"4. c #FFEC67",
"5. c #02278B",
"6. c #04338A",
"7. c #043695",
"8. c #093293",
"9. c #043897",
"0. c #043699",
"q. c #023999",
"w. c #043AA4",
"e. c #0239AB",
"r. c #0338BA",
"t. c #144C97",
"y. c #095F92",
"u. c #30538C",
"i. c #096291",
"p. c #09649D",
"a. c #3A699A",
"s. c #0B4EAC",
"d. c #2653A4",
"f. c #1673AD",
"g. c #367EA6",
"h. c #237EB3",
"j. c #496893",
"k. c #587898",
"l. c #6C748D",
"z. c #5579B0",
"x. c #6D77AC",
"c. c #033CCA",
"v. c #033CD8",
"b. c #043DE7",
"n. c #043CF6",
"m. c #1F5DCD",
"M. c #084EF3",
"N. c #0442FE",
"B. c #0747FD",
"V. c #437AD6",
"C. c #677FF0",
"Z. c #008080",
"A. c #2E999E",
"S. c #66849B",
"D. c #768893",
"F. c #4E95AB",
"G. c #6A85A1",
"H. c #6987A6",
"J. c #7792AB",
"K. c #708CB4",
"L. c #73D4B0",
"P. c #68E5A2",
"I. c #0D8ED6",
"U. c #088CD8",
"Y. c #108DD4",
"T. c #1795D9",
"R. c #2F90D6",
"E. c #249DE0",
"W. c #37AAEC",
"Q. c #38ADF1",
"!. c #7997D4",
"~. c #5CA9D6",
"^. c #5BB5DC",
"/. c #5D8EE1",
"(. c #49B9F9",
"). c #54BFFF",
"_. c #71BCE7",
"`. c #42C3FF",
"'. c #5CC2F2",
"]. c #53C0FF",
"[. c #5CC3FF",
"{. c #6FCBF7",
"}. c #6DE2FF",
"|. c #91979A",
" X c #8EAE94",
".X c #A6B88F",
"XX c #859AAD",
"oX c #9D9FA1",
"OX c #96A5AD",
"+X c #8CA4BA",
"@X c #94ABBB",
"#X c #AFAFAF",
"$X c #A0ABB1",
"%X c #D3BB90",
"&X c #EBC78D",
"*X c #F6D689",
"=X c #FEEF90",
"-X c #E0D3AD",
";X c #98ADC5",
":X c #96B1C7",
">X c #90B4CF",
",X c #96B7CC",
"<X c #A9BACF",
"1X c #B0BACD",
"2X c #86A4F8",
"3X c #A1B8FF",
"4X c #96C8CF",
"5X c #9CDEDE",
"6X c #B7C6CF",
"7X c #A8C4D6",
"8X c #ACC5D6",
"9X c #BACBD8",
"0X c #B5E3DE",
"qX c #90CCEF",
"wX c #94D6EF",
"eX c #94CEF7",
"rX c #84DAFF",
"tX c #ABD5EE",
"yX c #BFD4E0",
"uX c #B5DEE7",
"iX c #B2E2F4",
"pX c #C8CFDA",
"aX c #DFDFDF",
"sX c #DEE7D6",
"dX c #FFF8D2",
"fX c #C0CAE6",
"gX c #C1D3E0",
"hX c #CCDAE6",
"jX c #D3DCE6",
"kX c #D5E3EB",
"lX c #D9E6EE",
"zX c #C3E2F4",
"xX c #D3EFF6",
"cX c #D9EBF8",
"vX c #E5E7ED",
"bX c #FFFFEF",
"nX c #E6EDF4",
"mX c #EDF2F5",
"MX c #EAF5FC",
"NX c #F3F7F9",
"BX c #FDFCFE",
/* pixels */
"5X5X5XeXeXeXuXuXuXeXeXeX5X5X5X5X5X5X5XuXuXuX5X5X5XeXeXeX5X5X5X5X5X5XeXeX1 . ] 0XuXuXuXuXuXuXuXuXuXuXuXuXuX5X5X5XuXuXuXuXuXuXuXuXuXuXeXeXeX5X5X5X5X5X5X",
"5X5X5XeXeXeXuXuXuXeXeXeX5X5X5X5X5X5X5XuXuXuX5X5X5XeXeXeX5X5X5X5X5X5X` Q 4 , W ! uXuXuXuXuXuXuXuXuXuXuXuXuX5X5X5XuXuXuXuXuXuXuXuXuXuXeXeXeX5X5X5X5X5X5X",
"5X5X5XeXeXeXuXuXuXeXeXeX5X5X5X5X5X5X5XuXuXuX5X5X5XeXeXeX5X5X5X5X5X5XY   [ ;.o . uXuXuXuXuXuXuXuXuXuXuXuXuX5X5X5XuXuXuXuXuXuXuXuXuXuXeXeXeX5X5X5X5X5X5X",
"uXuXuXuXuXuXuXuXuXuXuXuXwXwXwXwX5X5X5XwXwXwXuXuXuX5X5X5XuXuXuXuXuXuXY   ,.=Xo . uXuXuXuX5X5X5XwXwXwXwXwXwXuXuXuX5X5X5XuXuXuXuXuXuXuXuXuXuX5X5X5XeXeXeX",
"uXuXuXuXuXuXuXuXuXuXuXuXwXwXwXwX5X5X5XwXwXwXuXuXuX5X5X5XuXuXuXuXuXuXY   #XuX+ X uXuXuXuX5X5X5XwXwXwXwXwXwXuXuXuX5X5X5XuXuXuXuXuXuXuXuXuXuX5X5X5XeXeXeX",
"uXuXuXuXuXuXuXuXuXuXuXuXwXwXwXwX5X5X5XwXwXwXuXuXuX5X5X5XuXuXuXuXuXuXY   #X0Xo . uXuXuXuX5X5X5XwXwXwXwXwXwXuXuXuX5X5X5XuXuXuXuXuXuXuXuXuXuX5X5X5XeXeXeX",
"uXuXuXeXeXeXeXeXeXwXwXwX5X5X5X5X5X5X5X5X5X5X5X5X5X5X5X5XuXuXuXuXuXuXY   #XeXO . eXeXeXeXwXwXwXwXwXwXuXuXuX5X5X5XwXwXwXeXeXeXuXuXuXuXwXwXwXuXuXuX5X5X5X",
"uXuXuXeXeXeXeXeXeXwXwXwX5X5X5X5X5X5X5X5X5X5X5X5X5X5X5X8   ~ uXuX`   0 o.-XbX*X3.  < eXeXwX#   wXwXwXuXuXuX5X5X5XwXwXwXeXeXeXuXuXuXuXwXwXwXuXuXuX5X5X5X",
"uXuXuXeXeXeXeXeXeXwXwXwX5X5X5X5X5X5X5X5X5X5X5X5X5X' ^ 7 & R _ uX`   0 +.=XdX&X1.  1 eX' ^ & & _ ` wXuXuXuX5X5X5XwXwXwXeXeXeXuXuXuXuXwXwXwXuXuXuX5X5X5X",
"5X5X5XuXuXuX5X5X5XuXuXuXwXwXwXwXwXwXwXuXuXuXwXwXwX^   0  .&   uX'   q 2.2.2.&X1.  1 wX6   {  .  % eXwXwXwXwXwXwXwXwXwXwXwXwX5X5X5X5X5X5X5X5X5X5X5X5X5X",
"5X5X5XuXuXuX5X5X5XuXuXuXwXwXwXwXwXwXwXuXuXuXwXwXwX^   w O.&   uX'   0 2.:.:.3.&X  1 wX6   { O.  % eXwXwXwXwXwXwXwXwXwXwXwXwX5X5X5X5X5X5X5X5X5X5X5X5X5X",
"5X5X5XuXuXuX5X5X5XuXuXuXwXwXwXwXwXwXwXuXuXuXwXwXwX~   w %.,   uX`   w ;.;.;.*X&X  < wX6   #.=.  % eXwXwXwXwXwXwXwXwXwXwXwXwX5X5X5X5X5X5X5X5X5X5X5X5X5X",
"eXeXeXuXuXuX5X5X5XwXwXwX5X5X5X5XuXuXuX5X5X5X5X5X5X~   C %.w q < 2 V { =.=.=.*X*X,.,.% , C &.=.  % uXwXwXwXwXwXwX5X5X5X5X5X5XwXwXwXwX5X5X5X5X5X5X5X5X5X",
"eXeXeXuXuXuX5X5X5XwXwXwX5X5X5X5XuXuXuX5X5X5X5X5X5X~   C %.[ l o . A o.=.=.=.*X*X3.,.  0 A *.=.  % uXwXwXwXwXwXwX5X5X5X5X5X5XwXwXwXwX5X5X5X5X5X5X5X5X5X",
"eXeXeXuXuXuX5X5X5XwXwXwX5X5X5X5XuXuXuX5X5X5X5X5X5X~   0  .&.;.  o  .O.=.=.=.=.>.uX#X  C O.*.;.  % uXwXwXwXwXwXwX5X5X5X5X5X5XwXwXwXwX5X5X5X5X5X5X5X5X5X",
"eXeXeXuXuXuX5X5X5XwXwXwX5X5X5X5XuXuXuX5X5X5X5X5X5X~   0  .*.;.  o  .O.=.&.&.=.>.uX#X  C O.*.;.  % uXwXwXwXwXwXwX5X5X5X5X5X5XwXwXwXwX5X5X5X5X5X5X5X5X5X",
"eXeXeXeXeXeXwXwXwXuXuXuXuXuXuXuX5X5X5X5X5X5X5X5X5X_   0 | &.;.  o | O.*.F M =.>.uX$X  C O.*.=.  % wXeXeXeX5X5X5X5X5X5X5X5X5XwXwXwXwXwXwXwXeXeXeX5X5X5X",
"eXeXeXeXeXeXwXwXwXuXuXuXuXuXuXuX5X5X5X5X5X5X5X5XW 9 > V | *.%., 0 | ....F J @.@.dX%X, [ &.&.&.> , E ^ eXeX5X5X5X5X5X5X5X5X5XwXwXwXwXwXwXwXeXeXeX5X5X5X",
"eXeXeXeXeXeXwXwXwXuXuXuXuXuXuXuX5X5X5X5X5X5X5X5X  @ L D ..%.-.A A | D M L I L P =X3.A +.=.X.@.H m   U eXeX5X5X5X5X5X5X5X5X5XwXwXwXwXwXwXwXeXeXeX5X5X5X",
"5X5X5XwXwXwXeXeXeX5X5X5X5X5X5X5X5X5X5X5X5X5XuXuX  @ J J B ..O.} }  .Z m L I J J =X2.+.&.*.D B F n   U 5X5XuXuXuXuXuXuX5X5X5X5X5X5X5XwXwXwXwXwXwXwXwXwX",
"5X5X5XwXwXwXeXeXeX5X5X5X5X5X5X5X5X5X5X5X5X5XuXuX  @ J m c D .. . . .Z m L I H J =X4.;.;.;.m b D B . 8 5X5XuXuXuXuXuXuX5X5X5X5X5X5X5XwXwXwXwXwXwXwXwXwX",
"5X5X5XwXwXwXeXeXeX5X5X5X5X5X5X5X5X5X5X5X5X5XuXuXO @ M N v S |  . . .Z v N N N N ;.>.;.;.;.n v N b . 8 5X5XuXuXuXuXuXuX5X5X5X5X5X5X5XwXwXwXwXwXwXwXwXwX",
"eXeXeX5X5X5XwXwXwX5X5X5X5X5X5X5XeXeXeX5X5X5XuXuX  @ M m v S |  . . .Z v N N M N *.=.;.;.;.m v M v   8 eXeX5X5X5XuXuXuXuXuXuX5X5X5X5X5X5X5XwXwXwXuXuXuX",
"eXeXeX5X5X5XwXwXwX5X5X5X5X5X5X5XeXeXeX5X5X5XuXuX  o c B A | .. . . .Z v v v m v =.=.;.;.;.o. .m n   8 eXeX5X5X5XuXuXuXuXuXuX5X5X5X5X5X5X5XwXwXwXuXuXuX",
"eXeXeX5X5X5XwXwXwX5X5X5X5X5X5X5XeXeXeX5X5X5X^ Q : f G V A } }  . . .Z n m c B B $.$.&.$.O.{ } G G t 9 ! ' 5X5X5XuXuXuXuXuXuX5X5X5X5X5X5X5XwXwXwXuXuXuX",
"5X5X5X5X5X5XwXwXwXuXuXuXeXeXeXeXuXuXuXuXuX0X#   G.J.9X,.A A A o.+.o.,.,.n c |  . . .| } A A A pX9X8Xz   ~ wXwXwX5X5X5X5X5X5XuXuXuXuXuXuXuXwXwXwX5X5X5X",
"5X5X5X5X5X5XwXwXwXuXuXuXeXeXeXeXuXuX_ 6 6 6 h h ;X;X8X6X&X%X&X,.,..X X X,.K  X X X.X<.%X%X%X%XxXhX8XXXx 9 7 wXwX5X5X5X5X5X5XuXuXuXuXuXuXuXwXwXwX5X5X5X",
"5X5X5X5X5X5XwXwXwXuXuXuXeXeXeXeXuXuXQ       j.k.7X8X1XvXuXuXuX X X}.{.L.L.L.(.).'.{.6XjXMXMXMXMXxX8X8X8X:   wXwX5X5X5X5X5X5XuXuXuXuXuXuXuXwXwXwX5X5X5X",
"uXuXuXuXuXuX5X5X5XuXuXuXuXuXuX% $ $ ; 5.a a t.t.7X9XNXqXW.g.g.vXlX[.'.'.].'.].].).rXmX:XA.R.E.BXMX7XK.d.8.6.# < wXwXwXwXwXwX5X5X5X5XsXsXsXuXuXuX5X5X5X",
"uXuXuXuXuXuX5X5X5XuXuXuXuXuXuX.     - s.q.q.q.q.8XgXuX{.U.f.y.wXMX[.].).].].].].).eXuX!.y.Y.I.5XmX7Xz.7.w.e.  # wXwXwXwXwXwX5X5X5X5XsXsXsXuXuXuX5X5X5X",
"uXuXuXuXuXuX5X5X5XuXuXuXuX1   6.q.n.N.n.N.N.e.q.8XfXuXiX).cXeXU.T.[.].).).).].].).Q.U.qX5X{.'.5XMX7X/.B.n.n.n.v.  6 wXwXwXwX5X5X5X5XsXsXsXuXuXuX5X5X5X",
"5X5X5XuXuXuXuXuXuXuXuX' _ 1 O e.e.n.n.n.N.N.e.q.9XhXwXiX).cXeXT.E.].].).[.[.).).(.(.E.tXeX).(.wXmXyX/.M.n.n.n.v.  6 wXwXwXwXwXwXwXwXsXsXsXsXsXsXuXuXuX",
"5X5X5XuXuXuXuXuXuXuXuXE   u 7.N.N.n.N.N.N.N.e.7.wXwXwXqXY.zXwX).].].].`.{.rX].].].].[.iXeXW.Y.wX5X5X2XN.N.N.N.v.  6 wXwXwXwXwXwXwXwXsXsXsXsXsXsXuXuXuX",
"5X5X5XuXuXuXuXuXuX' Y 7 - a 0.c.v.5.5.5.e.v.w.q.wXNXjX_.I._.qXW.Q.].Q.Q.{.rXQ.Q.].(.W._.qXR.T.kXvX5X2XN.N.N.N.b.y j Y ` wXwXwXwXwXwXsXsXsXsXsXsXuXuXuX",
"wXwXwX5X5X5XuXuXuX'   - 9.q.0.0.6.      e q.0.9.wXmX8X~.I.I.Y.I.T.].W.U.'.{.T.I.].Q.I.I.I.Y.Y.,XtXuX2XN.N.N.N.N.N.5.  Q wXwXwXwXwXwXuXuXuX5X5X5XwXwXwX",
"wXwXwX5X5X5XuXuXuX`   - 7.9.7.* * ^ U   y q.0.0.wXNXmXxXzXzXzXzXiXxX>Xt.^.}././.tXiXzXzXzXzXzXnXnXMX!.e.b.N.N.N.N.5.  Q wXwXwXwXwXwXuXuXuX5X5X5XwXwXwX",
"wXwXwX5X5X5XuXuXuX`   - 7.7.7.. . uXQ   e 0.0.0.wXwXwXwXwXeXeXBXBXBX:Xu.^.}./.C.zXnXwXeX5X5X5XuXBXMX!.7.b.N.N.N.N.5.  Q wXwXwXwXwXwXuXuXuX5X5X5XwXwXwX",
"eXeXeX5X5X5XuXuX  O 7.7.0.*   ' uXuXuXuX/ 7.k.S.5XuXuXuX5X5X5Xx.l.      F.}.O     : G.9X5X5X5X5XmXpXx.7.b.N.0.w.N.5.  Q wXwXwXwXwXwXwXwXwX5X5X5XwXwXwX",
"eXeXeX5X5X5XuXuX  O 9.9.9.=   ' uXuXuXuX/ 7.S.H.5XuXuXBXBXvXaXx.x.+ + O F.}.* * + t J.1XaXBX5X5XmX6Xz.w.b.N.6.0.N.5.  Q wXwXwXwXwXwXwXwXwX5X5X5XwXwXwX",
"eXeXeX5X5X5XuXuX  O 9.9.q.=   ] uXuXuXuX/ 7.>X8X5XuXuXBXBXf   8X1X( 4Xi.^.rXT.T./ NXlXx   aX5X5XjXx.V.B.N.N.u a N.5.  Q wXwXwXwXwXwXwXwXwX5X5X5XwXwXwX",
"eXeXeX5X5X5XuXuX  O 7.s.s.j . T uXuXuXuXA.j.,X7X5XuXuXvXfXK x pXjX( ,Xi.^.rXT.T.j NXxX|.l 1XpX5XjXj.m.B.B.n.y p N.5.  6 E E E E ~ wXwXwXwX5X5X5XwXwXwX",
"eXeXeXuXuXuX5X5X  O 0.s.U.U.=   uXuXuXyXP.4X8X7XwXwXwX1Xx.zXBX5XwX( ,Xi.^.rXT.T.Z.BXlXxXlXJ.G.uXfXw.c.B.B.n.y 5.n.5.            1 uXwX5X5XwXwXwXuXuXuX",
"eXeXeXuXuXuXU 3   O s.s.I.R.=   P.P.L.P.4X8XkXnXwXwXeXvXpXNXBX5X5X( ,Xi.^.rXT.T.i.BXNXNXNXhXpXz.V.v.b.B.c.c.J.XX3X<XoXoXoXoX$XoX) 7 3 3 ' wXwXwXuXuXuX",
"eXeXeXuXuXuX%     . 6.s.I.R.=   0X8X8X8X7X8XmXwXwXwXwXwXwX5X5X5X5X( ,Xi.^.rXT.T./ / 5X5XuXuXiX0.r.n.N.N.e.8.fXgXwXwXeXwXwXwXuXuX#X      ` wXwXwXuXuXuX",
"eXeXeX5XY X D.@X@XXX. r U.V.=   0XNXNXNXNXNXbXuXuXwXwXwXwXwXwXeXeX( ,Xi.^.rXT.T./ i.sXkX9Xd.d.M.n.B.n.N.!.7XcXcX5X5X5XeXeXeXyXuXNXsXkXaX: X uXuXeXeXeX",
"eXeXeX5XU   J.8X8X@X  r I.V.+   0XeXeXwXwXwXuXuXuXwXwXwXwXwXwXeXeX( ,Xi.^.rXY.R./ / sXhX7Xd.w.M.B.B.N.N.>XpXcXMX5X5X5XeXeXeXuXuXuXuXuXuX+   uXuXeXeXeX",
"eXeX^   z 8X8X8X5XBXkX|..       eXeX8Xi.y.y.kXuXuXwXwXwXwXwXwXeXeX( ,Xy.W.`.R.V.S.a.t.9.0.N.N.n.v.y k.6XmXsXsXsX5X5X5XeXeXeXuXuX0XuXnXlXlXlX  % eXeXeX",
"wXwX` 3 l D.$X8XnXlXkXOXl l l l BXyX>Xh.h.h.4X8X1X1X1X1X1X1X1X1X6X1XK.t.R.W.h.h.a.d.r.r.r.v.v.c.r.j.+XpXmXsXsXsXeXeXeXuXuXuXBXnXnXnXlXlXOXoX1 8 5X5X5X",
"wXwXwXeX8   |.8X8X9XlXlXlXNXeXeXmXi.A.).).{.f.y.y y y y y y u y y u y u p.R.s.9.t.r.N.N.n.e.q.y j.mXMXMXBXsXsXsXeXeXeXuXuXuXBX7X7X<XhXlX+   uXuX5X5X5X",
"wXwXwXeX^ U g l 8X8XyXyXyXMXeXeXmXi.h.(.).).Y.f.r.r.r.r.r.r.r.r.r.r.r.r.c.M.c.v.v.c.c.r.e.a.a.+X1XNXNXNXBXsXsXsXeXeXeXuXuXuXBXlX9X+Xl.z R Y uXuX5X5X5X",
"wXwXwXeXeXeX<   8X7X7X8X8XnX5X5XNXi.h.).).).T.I.N.N.n.n.N.N.N.N.n.N.N.N.B.N.N.N.n.b.0.a y k.S.5X5X5XsXsXsXuXuXuXuXuXuXwXwXwXuXuXaXS.:   ` 0X0XuXuXuXuX",
"wXwXwXeXeXeX` _ : : J.H.J.jX5X5XmXi.h.).).).E.I.N.N.N.N.N.N.N.e.e.e.e.w.5.6.a 6.e.t.j.;XpXvXvX5X5X5XsXsXsXuXuXuXuXuXuXwXwXwXuXuXNXlX<XOX; # uXuXuXuXuX",
"wXwXwXeXeXeXyXuX  O G.G.S.jX5X5XmXi.h.).).).E.Y.N.n.N.N.N.N.N.9.q.q.q.9.p y y y q.t.l.9XwXwXwX5X5X5XsXsXsXuXuXuXuXuXuXwXwXwXuXuXuXuXhX8X+   uXuXuXuXuX",
"eXeXeX5X5X5X%     + 7XhXuXuXuXuXmXy.i.i.i.i.i.i.y u y y y y y 7.q.q.d.S.k y ,X8X7XhXwXwXwXwXwXeXeXeXuXuXuXwXwXwX5X5X5XsXsXsXuXuXuXyXBXBXBXBX  % 5X5X5X",
"eXeXeX5X' _ 5 : : : 9XkXuXuXuXuXNXg.g.A.g.g.g.g.u.k u.u.k k k d.d.d.a.j.s p +X;X8XgXNXmXNXBXwXeXeXeXuXuXuXwXwXwX5X5X5XsXsXsXBXmXmXvXvXvXpXpX  % 5X5X5X",
"eXeXeX5X8   $XjXkXkX5X5XuXuXuXuX5X5XwXeXeXeX5X5X5XuXgXBXMXpX1X6X8X8XS.y 6.q.u i 8X8X8X8X8XNXwXeXeXeXuXuXuXwXwXwX5X5X5XsXsXsXNX8X@Xx.x.x.o     % 5X5X5X",
"eXeXeXeX~ 6 z l.x |.9X6XpX9X9XBXeXeXeXuXuXuX5X5X5XNXlXkXhX9X6X@X+Xk.u.a 9.q.a s x.H.@X,X7XkXlXlXlXlXMXeXeXuXuXuX5X5X5XwXwXwXBXjXpX<Xl.h 7 7 7 T wXwXwX",
"eXeXeXeXeXwX<     o G.l.l.G.S.NXeXeXeXuXuXuX5X5X5XmX8X8X8X8X8Xk.k.y a 0.9.9.q.9.y k D.+X<X8X8X8X8X<XkXeXeXuXuXuX5X5X5XwXwXwXuXuXuX0Xl   ` 5X5X5XwXwXwX",
"eXeXeXeXeXeX_ ~ _ W + z >X,X;X@X@X+X+X@X1XgXgXgXgX9X8X8X8Xj.k k s 7.7.7.9.9.q.7.6.a k k u.H.J.8X8X1X9XyXyXyXfXhX5X5X5XwXwXwXmXt f l R ~ ] 5X5X5XwXwXwX",
"5X5X5X5X5X5X5X5XwX` . h 7X<X1XG.G.G.S.S.+X8X8X<X8X8X8X8X8Xu.y y i t.0.7.9.9.0.7.7.6.y y y k.G.8X8X8X8X8X8X<X8X9XwXwXwXwXwXwXmX      E eXeXwXwXwX5X5X5X",
"5X5X5X5X5X5X5X5X5XeXeXE       <X8X8X8X8X8X8X8X8XS.j.y y y 6.0.9.9.q.7.0.v.n.N.N.n.N.N.N.n.a y y s S.S.S.;X1X8X8X7X7X8X:     . wXwXwXeXeXeXwXwXwX5X5X5X",
"5X5X5X5X5X5X5X5X5XeXeXQ X X X +X@X:X:X:X:X:X:X:Xk.j.u y u 6.9.9.9.q.0.w.M.n.N.N.B.N.N.N.n.5.a a t.k.k.k.+X;X,X:X:X:X@Xh X X # wXwXwXeXeXeXwXwXwX5X5X5X",
"eXeXeX5X5X5XuXuXuXuXuXuX5X5X5X. . y y y y y y y y i q.9.9.9.0.q.9.9.c.N.N.N.N.N.N.N.n.B.B.B.n.B.M.9.0.0.u y y y d -   Q eXeXeXeXeXeXwXwXwXuXuXuXwXwXwX",
"eXeXeX5X5X5XuXuXuXuXuX0X5X5X5X.   y y y y y y y p 6.q.7.9.9.0.q.q.r.v.N.N.N.N.N.N.N.N.n.B.n.B.n.b.r.c.r.e.8.a p e ; 3 _ eXeXeXeXeXeXwXwXwXuXuXuXwXwXwX",
"eXeXeX5X5X5XuXuXuXuXuXuX5X5X5X.   y y y y y y y 7.7.9.9.9.9.7.q.w.N.N.N.N.N.N.N.n.N.N.N.N.N.N.N.N.N.N.N.n.n.w.6.  6 eXeXeXeXeXeXeXeXwXwXwXuXuXuXwXwXwX",
"eXeXeX5X5X5XuXuXuXuXuXuX5X5X5XW T = - y y y y y 7.7.9.9.9.9.9.q.w.N.N.N.N.N.N.N.N.N.N.N.N.N.N.N.N.N.N.n.v.c.e ; W ^ eXeXeXeXeXeXeXeXwXwXwXuXuXuXwXwXwX",
"uXuXuXeXeXeXwXwXwXwXwXwXsXsXsXsX'   O u y y y y q.9.9.9.9.9.9.0.w.N.N.N.N.N.N.N.N.N.N.N.n.N.N.N.N.N.N.n.r.w.  X eXeXeX5X5X5XuXuXuXuX5X5X5XuXuXuX5X5X5X",
"uXuXuXeXeXeXwXwXwXwXwXwXsXsXsXsX] ` T . - y y y u p 9.9.9.9.9.9.q.w.c.N.N.N.N.N.N.N.N.N.n.n.n.e.q.p p p * O ` ' eXeXeX5X5X5XuXuXuXuX5X5X5XuXuXuX5X5X5X",
"uXuXuXeXeXeXwXwXwXwXwXwXsXsXsXsXuXuX!   - u y y y i 7.9.9.9.q.9.9.9.c.N.N.N.N.N.N.N.N.N.N.n.n.t.7.y y u O   wXwXeXeXeX5X5X5XuXuXuXuX5X5X5XuXuXuX5X5X5X",
"5X5X5XuXuXuXuXuXuXuXuXuXsXsXsXsXeXeXeXwX6   * * * - y 6.9.9.9.9.0.0.9.9.q.q.q.q.q.u           p.p.y.r   ~ wX5X5XwXwXwXeXeXeX5X5X5X5XuXuXuXeXeXeXuXuXuX",
"5X5X5XuXuXuXuXuXuXuXuXuXsXsXsXsXeXeXeXwXE 1 * * r y a i u u u u p u u u u u i u u r 1 1 1 1 1 j j j 5 1 ^ 5X5X5XwXwXwXeXeXeX5X5X5X5XuXuXuXeXeXeXuXuXuX",
"5X5X5XuXuXuXuXuXuXuXuXuXsXsXsXsXeXeXeXwXwXwX#   i.i.y.r                           1 wXwXwXwXwX      U eXeX5X5X5XwXwXwXeXeXeX5X5X5X5XuXuXuXeXeXeXuXuXuX",
"5X5X5X5X5X5X5X5X5X5X5X5XeXeXeXeXuXuXuX5X5X5XW Y r ; r 5 Y Y Y Y Y Y Y Q E Y Y Y Y ^ wXwXuXuXuXY Y Y ^ uXuXeXeXeXeXeXeX5X5X5XeXeXeXeXuXuXuXuXuXuXuXuXuX",
"5X5X5X5X5X5X5X5X5X5X5X5XeXeXeXeXuXuXuX5X5X5XeXeX      8 wXwXwXeXeX( j Z.i./ Z./ / i.wXwXuXuXuXuXuXuXuXuXuXeXeXeXeXeXeX5X5X5XeXeXeXeXuXuXuXuXuXuXuXuXuX",
"5X5X5X5X5X5X5X5X5X5X5X5XeXeXeXeXuXuXuX5X5X5XeXeXeXuXuXuXwXwXwXeXeXeXeXqXwXwXwXwXwXwXwXwXuXuXuXuXuXuXuXuXuXeXeXeXeXeXeX5X5X5XeXeXeXeXuXuXuXuXuXuXuXuXuX"
};
