/* XPM */
static char *_36bda6968824deab46588b4edc07d15M16nT94UjpJ5ZFJ8[] = {
/* columns rows colors chars-per-pixel */
"75 75 34 1 ",
"  c #180018",
". c #180028",
"X c #200020",
"o c #200028",
"O c #280038",
"+ c #280040",
"@ c #280048",
"# c #300050",
"$ c #380058",
"% c #380060",
"& c #380068",
"* c #480068",
"= c #400078",
"- c #500870",
"; c #480080",
": c #480090",
"> c #480098",
", c #681888",
"< c #5000A8",
"1 c #5800A8",
"2 c #8020A0",
"3 c #A030B8",
"4 c #B038C8",
"5 c #C838D8",
"6 c #E850F0",
"7 c #F068F8",
"8 c #F898F8",
"9 c #9CDEDE",
"0 c #94D6EF",
"q c #94CEF7",
"w c #B5DEE7",
"e c #DEE7D6",
"r c #F8D0F8",
"t c #F8F8F8",
/* pixels */
"999qqqwwwqqq9999999www999qqq999999qqqwwwwwwwwwwwwwwww999wwwwwwwwwwqqq999999",
"999qqqwwwqqq9999999www999qqq999999qqqwwwwwwwwwwwwwwww999wwwwwwwwwwqqq999999",
"999qqqwwwqqq9999999www999qqq999999qqqwwwwwwwwwwwwwwww999wwwwwwwwwwqqq999999",
"wwwwwwwwwwww0000999000www999wwwwwwwwwwwwwwww999000000www999wwwwwwwwww999qqq",
"wwwwwwwwwwww0000999000www999wwwwwwwwwwwwwwww999000000www999wwwwwwwwww999qqq",
"wwwwwwwwwwww0000999000www999www@O%:<<11>:;=w999000000www999wwwwwwwwww999qqq",
"wwwqqqqqq0009999999999999999ww#<<1111111111:#00000www999000qqqwwww000www999",
"wwwqqqqqq00099999999999999@111<;==%OOOO#%&&><<11=@www999000qqqwwww000www999",
"wwwqqqqqq000999999999999#:<1<:;#OOo     ooo&;;:<1<#ww999000qqqwwww000www999",
"999www999www0000000wwO:1;=%   oooooOOOOOoooooo  O%;>1O000000009999999999999",
"999www999www0000000&>11&o  oooOOOO#########OOOoo  oO<11>0000009999999999999",
"999www999www000000011:=  ooOO##&==;;;;;;;;;%###Ooo  %:<1%000009999999999999",
"qqqwww9990009999ww::=OoooOO#&=;;;;=========;;;=&OOoo O#=1@99990000999999999",
"qqqwww999000999<11;  oo#=;;=%O XXXX+++++++++ oO%;;=%Ooo O<1<990000999999999",
"qqqwww99900099911>&oooO%;;;#o XXXX+$$$$$$$$++++o=;;;Ooooo;>1990000999999999",
"qqqwww9990009991>;OooOO=;;&o XX+++$$$$$$$$$*$$$+%&;;#OOo %;1990000999999999",
"qqqqqq000wwwww%%Oo O#&;&o +XX+$$$++XXXXXXXXXX+++*$+O;&##o o%1<0000000qqq999",
"qqqqqq000www11< ooO;;&O+XXX$$+++$$$$$$*********+XXX++&=;#Oo &:1=00000qqq999",
"qqqqqq000ww#11>ooOO;=OoXX++$+++$$$$$$$**********XXXX$+%=&OOoO=1<00000qqq999",
"999000qqq9:1<;%oOO&%O XX+$$++$$$$$$$************$+XX++++;#Oo o<199000000000",
"999000qqq911=#oO#%; XXX+$$+$**$$$$*22444444-*******$XX++==%O  =>@9000000000",
"999000qqq9:%  o=;;#XXX+$$$$****444-*$$$$$**23454***$$XXX++;=Oo o11000000000",
"qqq999000&%o oo;;& XX+++***$*25,2-*************3,***$*$+X++;OO  <1&99000www",
"qqq999000>O ooO;&O XX+$$****,44-33**-,,,,,**$$**42**+**$X+++#Oo >1>99000www",
"qqq9990001o ooO=#oXX+$$$****44,368*,,222,,,**$$*44,*+***X+++#Oo ;<199000www",
"9999990>1:oo##=XXXX$$$$**,4*$$*6776777777663,,22***-2--**XXX+;#O o:1w000999",
"999999O<1;oO#&;XXXX$$$**,24*$*,77767776777743,,2,***3---*+XX++#O o;1w000999",
"999999=11=oO#=;XXXX$$**$244$$*4766766666667643,,2,**4---$$XX++#O  =1w000999",
"wwwwww<1<#OO&;;XXXX$$***42,$*486777rrrrr7767665,22,*332-+-*X++&#o #<ewww999",
"wwwww11>= #%;;%XXX+363*2**$4867rttttttttttr86667**22*333-+$* o+=oo =&www999",
"wwwww11>& #&;=#XXX+583-2*$$6767ttttttttttttr7666-*,2*233-X+-Xo++Oo &:www999",
"999ww1<;# #=;&OXXX+-3**2*$$7678ttttttttttttrr8662--2**22-XX*X ++Oo #<eeewww",
"999ww1<;O %=;%OXXX+***$2$$*7678ttttttttttttrr8764,*,-*22-+X$X ++Oo O1eeewww",
"999ww1>=O %;=%oXXX+**$*2$$*767rttttttttttttrrr8642*,,*-2-+X$XX++Oo O1eeewww",
"000991;# o=;%oXXX+$***,,**267rtttttttttttttttrr876,*5-**2-*X+X%=#Oo 1999000",
"000991;# o;;%oXXX+$***,,*-467rtttttttttttttttrr876,*5,**2-*X+X%=#Oo 1999000",
"000991;O o;;#oXXX+$***,,*-468rtttttttttttttttrr876,*62**2-*X$X#=#Oo 1999000",
"qqq991=O o;;#oX+++$-**-,*,468rttttttttttttttttr876,*r62*---X*X#=#Oo 1999000",
"qqq991;# o=;%oX+++$--**,**267rttttttttttttttttr775**62-*---X*+%=#Oo 1999000",
"qqq991;#oo=;%o +++$--**2**267rrttttttttttttttrr774*$5,**---X*+%;OOoo1999000",
"qqq991:%oo=;&O ++++-,3*2**,668rttttttttttttttr8662*$4-*---*X*X&;OOoo1999000",
"qqqww1:&oo&;=Oo++++-,5*2-*-768rtttttttttttttrr865,$$4-*---*X*X=;OOoo1000www",
"qqqww1<;# #=;&O++++,23222226767rtttttttttttr7767-***2*----+X+ ;;Oo #<000www",
"qqqww11>= #%;;%++*+-233-33536768rrttttttttt77778**-,*----$XX o;=oo =&000www",
"qqq9991<; O#;;&X+-+-,33-236357778rrttttttrr77787**,2*----+XX O;=oo ;#wwwqqq",
"qqq9991<;oO#;;=X+$$-,3323333467677rtttttrr877885**,4*----XXXo#;&ooo;wwwwqqq",
"qqq999>11%oO%=;XXX+*-22533343347777777777777543-2254---*,XX$&;%#  %1wwwwqqq",
"000qqq9>1:oo##=+XXX**2355533454445677777776322--552---*-+X+*;;#O o:1wwww999",
"000qqq9=1>ooO#&++XX**-33655334444456666666532--254--,**-XX++;;OOoO>1wwww999",
"000qqq99:1 oOO#+++X*---356653345555555544432223532-----2X+*o;&OoO=1:wwww999",
"000qqqwww>O ooO;+++X+**33456665333333333333566632222-2*XX+O;#Oo >1>99wwwwww",
"000qqqwww&%o oo;;++XX+*333566665333333333336655322222-+X+O&;OO  <1&99wwwwww",
"000qqqwww9>=o  &;;+$$XX*33356886666656666663333332$*$XXX$;;&ooo#1:999wwwwww",
"qqq999www91:Oo #=;;+$+X$2335577666666666665333332**2XXXX+;;#ooO&<Oeee999999",
"qqq999www9:1<;%oOO&%++$$X++-5555555555533444333+35-+X***;#Oo o<1wweee999999",
"qqq999www9@>1>=oOO#=%++*+..*-355555554355553-*++53+X+**+;OOoo#11wweee999999",
"qqqqqq999www:11  oO=;;&+*--+..+*--355543-*$+*-35XXXX*;;;Ooo ;<:wwwwww999000",
"qqqqqq999www@>1o  o%=;;+**-*+..+++*--**++..-3553XXX++;;=Oo o<1@wwwwww999000",
"qqqqqq999wwwqqq>;%ooOO#;=%O+$-,,------25653+XXXX$*$+%OOO O%>=0wwwwwww999000",
"999999999qqqwww11>&oooO+;;;#o +$**-----$++XXXX +++;;Ooooo;>1000000qqq000999",
"999999999qqqwww<11;  oo#=;;=%O X+++++++XXXXX o+$;;=%Ooo O<1<000000qqq000999",
"999999999qqqwwww9O1&O  oOOO++;;&&%########+*$++;#OOO  oO1>O0000000qqq000999",
"qqq999wwwwww9999www111>O   oOOO#++++++++%%##OOOOo   ;111qqqqqqqqqq000www000",
"qqq999wwwwww9999www&>11&o  oooOOOO#########OOOoo  oO<11>qqqqqqqqqq000www000",
"qqq999wwwwww9999www0@<1>%Oo oooOOOOOOOOOOOOooooo o%&1<;@qqqqqqqqqq000www000",
"qqq999wwwwww9999www0000>111=#o       oo      oo#>111w000qqqqqqqqqq000www000",
"wwwqqq000000eeeewww000qqqww=<11<<>:;;==;::>1111<99qqq000qqq999wwww999www999",
"wwwqqq000000eeeewww000qqqwww@:<1111<<<<<1111<<:@99qqq000qqq999wwww999www999",
"wwwqqq000000eeeewww000qqqwwwwww@O%:<<11>:;=9eee999qqq000qqq999wwww999www999",
"999wwwwwwwwweeeeqqq000000qqq000999wwwwwww000000wwwqqq999000qqq9999wwwqqqwww",
"999wwwwwwwwweeeeqqq000000qqq000999wwwwwww000000wwwqqq999000qqq9999wwwqqqwww",
"999wwwwwwwwweeeeqqq000000qqq000999wwwwwww000000wwwqqq999000qqq9999wwwqqqwww",
"999999999999qqqqwww999qqqwww000qqqqqq0000000wwwwwwwwwqqqqqq999qqqqwwwwwwwww",
"999999999999qqqqwww999qqqwww000qqqqqq0000000wwwwwwwwwqqqqqq999qqqqwwwwwwwww",
"999999999999qqqqwww999qqqwww000qqqqqq0000000wwwwwwwwwqqqqqq999qqqqwwwwwwwww"
};
