/* XPM */
static char *cGxheWVyX3VwXzI_[] = {
/* columns rows colors chars-per-pixel */
"75 75 14 1 ",
"  c #9CDEDE",
". c #94CEF7",
"X c #B5DEE7",
"o c #94D6EF",
"O c black",
"+ c #0041A5",
"@ c #0061C6",
"# c #002063",
"$ c #DEE7D6",
"% c #6382C6",
"& c #006644",
"* c #00AA66",
"= c #004422",
"- c #A5C3E7",
/* pixels */
"   ...XXX...       XXX   ...      ...XXXXXXXXXXXXXXXX   XXXXXXXXXX...      ",
"   ...XXX...       XXX   ...      ...XXXXXXXXXXXXXXXX   XXXXXXXXXX...      ",
"   ...XXX...       XXX   ...      ...XXXXXXXXXXXXXXXX   XXXXXXXXXX...      ",
"XXXXXXXXXXXXoooo   oooXXX   XXXXXXXXXXXXXXXX   ooooooXXX   XXXXXXXXXX   ...",
"XXXXXXXXXXXXoooo   oooXXX   XXXXXXXXXXXXXXXX   ooooooXXX   XXXXXXXXXX   ...",
"XXXXXXXXXXXXoooo   oooXXX   XXXXXXXXXXXXXXXX   ooooooXXX   XXXXXXXXXX   ...",
"XXX......ooo                XXXXXXooo.......ooooooXXX   ooo...XXXXoooXXX   ",
"XXX......ooo                XXXXXXooo.......ooooooXXX   ooo...XXXXoooXXX   ",
"XXX......ooo                XXXXXXooo.......ooooooXXX   ooo...XXXXoooXXX   ",
"   XXX   XXXoooooooXXXoooXXXXXXXXX   oooooooooo...oooooooooooo             ",
"   XXX   XXXoooooooXXXoooXXXXXXXXX   oooooooooo...oooooooooooo             ",
"   XXX   XXXoooooooXXXoooXXXXXXXXX   oooooooooo...oooooooooooo             ",
"...XXX   ooo    XXX            XXXXXXXXXXooooooXXXoooooo      oooo         ",
"...XXX   ooo    XXX            XXXXXXXXXXooooooXXXoooooo      oooo         ",
"...XXX   ooo    XXX         OOOOOOOOOOOOOooooooXXXoooooo      oooo         ",
"...XXX   ooo    XXX      OOO++@@@@@@@+++#OOOoooXXXoooooo      oooo         ",
"......oooXXXXXXX         OOO++@@@@@@@+++#OOOooo   ...         ooooooo...   ",
"......oooXXXXXXX        O++@@@@@@@@@@@@@+++#OOO   ...         ooooooo...   ",
"......oooXXXXXXX      OO+++@@@@@@@@@@@@@@##+###O  ...         ooooooo...   ",
"   ooo...             OO+++@@@@@@@@@@@@@@##+###Ooo   XXXXXX       ooooooooo",
"   ooo...             OO+@@@@@@@@@@@@@@@@@@+###Ooo   XXXXXX       ooooooooo",
"   ooo...             OO+@@@@@@@@@@@@@@@@@@+###Ooo   XXXXXX       ooooooooo",
"...   ooo       ...   OO+@@@@@@@@@@@@@@@@@@+###O  ...   XXXXXX       oooXXX",
"...   ooo       ...  O++@@@@@@@@@@@@@@@@@@@+###O  ...   XXXXXX       oooXXX",
"...   ooo       ...  O++@@@@@@@@@@@@@@@@@@@+###O  ...   XXXXXX       oooXXX",
"      oooXXX....XXXXXO++@@@@@@@@@@@@@@@@@@@+###OOOoooooo      XXXXXXXooo   ",
"      oooXXX....XXXOOO++@@@@@@@@@@@@@@@@@@@+###OOOoooooo      XXXXXXXooo   ",
"      oooXXX....XXXOOO++@@@@@@@@@@@@@@@@@+++###OOOoooooo      XXXXXXXooo   ",
"XXXXXX   XXXXXXXXXXOOO++@@@@@@@@@@@@@@@@@+++###OOO...ooooooooo    $$$XXX   ",
"XXXXXX   XXXXXXXXXXOOO+++@@@@@@@@@@@@@@@@++####OOO...ooooooooo    $$$XXX   ",
"XXXXXX   XXXXXXXXXXOO%OO+++@@@@@@@@@@@@@+++#OOO%OO...ooooooooo    $$$XXX   ",
"   XXXXXXXXX$$$$$$$OO%OO+++@@@@@@@@@@@@@+++#OOO%OO   XXXoooooooooo$$$$$$XXX",
"   XXXXXXXXX$$$$$$$XXO%%O+++@@@@@@@@@@+++##O%%%O     XXXoooooooooo$$$$$$XXX",
"   XXXXXXXXX$$$$$$$XXXOO@##+++@@@@&**+++#OO@OOO      XXXoooooooooo$$$$$$XXX",
"ooo   XXXXXXXXXXooooooooOOO+@@&&&&&&&*@@@OOO   XXXXXXoooXXXoooooooXXX   ooo",
"ooo   XXXXXXXXXXooooooooOOO+@@&&&&&&&*@@@OOO   XXXXXXoooXXXoooooooXXX   ooo",
"ooo   XXXXXXXXXXoooooooooooO@@&&&&&&&*@@+OO.   XXXXXXoooXXXoooooooXXX   ooo",
"...   XXX   oooo...XXX   XXO@@&&&&&&&*@@+OOX      XXXXXX   oooooooooo   ooo",
"...   XXX   oooo...XXX   XXO%%====&&&&@@%OOX      XXXXXX   oooooooooo   ooo",
"...   XXX   oooo...XXX   XXO%%====&&&&@@%OOX      XXXXXX   oooooooooo   ooo",
"...   XXX   oooo...XXX   XXO%%=======&  -OOX      XXXXXX   oooooooooo   ooo",
"...XXX   oooooooXXX   oooooO%%%%%%---ooo-OO XXXXXXoooXXXooooooXXXX   oooXXX",
"...XXX   oooooooXXX   ooOOO+++%%%%%%%o--%OO XXXXXXoooXXXooooooXXXX   oooXXX",
"...XXX   oooooooXXX   ooOOO+++%%%%%%%o--%OO XXXXXXoooXXXooooooXXXX   oooXXX",
"...      ...    ...oooOO%++@@@@@@@%%%%%%+OO$XXXXXXXXX$$$   ...XXXXXXXXXX...",
"...      ...    ...oooOO-%%%++++++OOO+@@@++OXXXXXXXXX$$$   ...XXXXXXXXXX...",
"...      ...    ...oooOO-%%%++++++OOO+@@@++OXXXXXXXXX$$$   ...XXXXXXXXXX...",
"ooo...      ....oooXXXOOX---OOOOOOO..O++@%%%OOO$$$XXX$$$...XXXooooXXXXXX   ",
"ooo...      ....oooXXXOO%  -------O..O%%%---OOO$$$XXX$$$...XXXooooXXXXXX   ",
"ooo...      ....oooXXXXXO   --%%%%O..O%%---XOOO$$$XXX$$$...XXXooooXXXXXX   ",
"ooo...XXX       ooo...ooOXXX--%%%%O  O%%---oOOO   $$$XXXXXXoooXXXX   XXXXXX",
"ooo...XXX       ooo...ooOXX---OOOO   O---oooOOO   $$$XXXXXXoooXXXX   XXXXXX",
"ooo...XXX       ooo...ooOXX---OOOO   O---oooOOO   $$$XXXXXXoooXXXX   XXXXXX",
"...   XXX   XXXX   ...  OXX---OOOOXXXO---oooOOO...XXXooo   $$$XXXX$$$      ",
"...   XXX   XXXX   ...OO%---%%OOOOXXXO%%-oooOOO...XXXooo   $$$XXXX$$$      ",
"...   XXX   XXXX   ...OO%---%%OOOOXXXO%%-oooOOO...XXXooo   $$$XXXX$$$      ",
"......   XXX.......XXXOO---%OOXXXXXXXOOO--- %%%OXX...XXX   oooXXXXXXX   ooo",
"......   XXX.......XXXOOOOOOXXXXXXXXXoOOO---XXXOXX...XXX   oooXXXXXXX   ooo",
"......   XXX.......XXXOOOOOOXXXXXXXXXoOOO---XXXOXX...XXX   oooXXXXXXX   ooo",
"         ...XXXX         oooXXX   XXX   OOO----OXXXXX...oooooooooo...ooo   ",
"         ...XXXX         oooXXX   XXX    OOOOOOOXXXXX...oooooooooo...ooo   ",
"         ...XXXX         oooXXX   XXX          XXXXXX...oooooooooo...ooo   ",
"...   XXXXXX    XXXoooooo            $$$$$$$XXXoooXXXooo..........oooXXXooo",
"...   XXXXXX    XXXoooooo            $$$$$$$XXXoooXXXooo..........oooXXXooo",
"...   XXXXXX    XXXoooooo            $$$$$$$XXXoooXXXooo..........oooXXXooo",
"...   XXXXXX    XXXoooooo            $$$$$$$XXXoooXXXooo..........oooXXXooo",
"XXX...oooooo$$$$XXXooo...XXXXXXooooooXXXX   $$$   ...ooo...   XXXX   XXX   ",
"XXX...oooooo$$$$XXXooo...XXXXXXooooooXXXX   $$$   ...ooo...   XXXX   XXX   ",
"XXX...oooooo$$$$XXXooo...XXXXXXooooooXXXX   $$$   ...ooo...   XXXX   XXX   ",
"   XXXXXXXXX$$$$...oooooo...ooo   XXXXXXXooooooXXX...   ooo...    XXX...XXX",
"   XXXXXXXXX$$$$...oooooo...ooo   XXXXXXXooooooXXX...   ooo...    XXX...XXX",
"   XXXXXXXXX$$$$...oooooo...ooo   XXXXXXXooooooXXX...   ooo...    XXX...XXX",
"            ....XXX   ...XXXooo......oooooooXXXXXXXXX......   ....XXXXXXXXX",
"            ....XXX   ...XXXooo......oooooooXXXXXXXXX......   ....XXXXXXXXX",
"            ....XXX   ...XXXooo......oooooooXXXXXXXXX......   ....XXXXXXXXX"
};
