/* XPM */
static char *cGxheWVyX2Rvd25fMg__[] = {
/* columns rows colors chars-per-pixel */
"75 75 15 1 ",
"  c #9CDEDE",
". c #94CEF7",
"X c #B5DEE7",
"o c #94D6EF",
"O c black",
"+ c #6382C6",
"@ c #A5C3E7",
"# c #0061C6",
"$ c #0041A5",
"% c #002063",
"& c #E7A284",
"* c #E76100",
"= c #DEE7D6",
"- c #004121",
"; c #006142",
/* pixels */
"   ...XXX...       XXX   ...      ...XXXXXXXXXXXXXXXX   XXXXXXXXXX...      ",
"   ...XXX...       XXX   ...      ...XXXXXXXXXXXXXXXX   XXXXXXXXXX...      ",
"   ...XXX...       XXX   ...      ...XXXXXXXXXXXXXXXX   XXXXXXXXXX...      ",
"XXXXXXXXXXXXoooo   oooXXX   XXXXXXXXXXXXXXXX   ooooooXXX   XXXXXXXXXX   ...",
"XXXXXXXXXXXXoooo   oooXXX   XXXXXXXXXXXXXXXX   ooooooXXX   XXXXXXXXXX   ...",
"XXXXXXXXXXXXoooo   oooXXX   XXXXXXXXXXXXXXXX   ooooooXXX   XXXXXXXXXX   ...",
"XXX......ooo                XXXXXXooo.......ooooooXXX   ooo...XXXXoooXXX   ",
"XXX......ooo                XXXXXXooo.......ooooooXXX   ooo...XXXXoooXXX   ",
"XXX......ooo                XXXXXXooo.......ooooooXXX   ooo...XXXXoooXXX   ",
"   XXX   XXXoooooooXXXoooXXXXXXXXX   oooooooooo...oooooooooooo             ",
"   XXX   XXXoooooooXXXoooXXXXXXXXX   oooooooooo...oooooooooooo             ",
"   XXX   XXXoooooooXXXoooXXXXXXXXX   oooooooooo...oooooooooooo             ",
"...XXX   ooo    XXX            XXXXXXXXXXooooooXXXoooooo      oooo         ",
"...XXX   ooo    XOOOOOOO       XXXXXXXXXXooooooXXXoooooo      oooo         ",
"...XXX   ooo    XOOOOOOO       XXXXXXXXXXooooooXXXoooooo      oooo         ",
"...XXX   ooo    XOOOOOOO       XXXXXXXXXXooooooXXXoooooo      oooo         ",
"......oooXXXXXXX ++@@@@+OO    OOOOOOOOOOOXXXooo   ...         ooooooo...   ",
"......oooXXXXXOOO@@    @OOOOOO######$$$%%OOXooo   ...         ooooooo...   ",
"......oooXXXXXOOO@@    @OOOOOO######$$$%%OOXooo   ...         ooooooo...   ",
"   ooo...     OOO     X+OO++@@XoooX@+%%$$$$OOooooo   XXXXXX       ooooooooo",
"   ooo...     OOO     X+OO++@@XoooX@+%%$$$$OOooooo   XXXXXX       ooooooooo",
"   ooo...     OOO     X+OO++@@XoooX@+%%$$$$OOooooo   XXXXXX       ooooooooo",
"...   ooo     OOO..@@++O++@@XXOOOOOO@@@++%%%%OOO  ...   XXXXXX       oooXXX",
"...   ooo       .@@  @@O@@XXOO&&&&&O*$$@@++%%OOO  ...   XXXXXX       oooXXX",
"...   ooo       .@@  @@O@@XXOO&&&&&O*$$@@++%%OOO  ...   XXXXXX       oooXXX",
"      oooXXX....X@@XX@@O@@XXOO&&&&&O*$$@@++%%OOO  oooooo      XXXXXXXooo   ",
"      oooXXX....X++XXOO+=XOO@@&&OOO@@**$$@@%%OOO  oooooo      XXXXXXXooo   ",
"      oooXXX....XOO@@OO@=XOOXX&&@@@..@@**XX%%OOO  oooooo      XXXXXXXooo   ",
"XXXXXX   XXXXXXXXOO++OO@XXOO..&&---;X@@**XX%%OOO  ...ooooooooo    ===XXX   ",
"XXXXXX   XXXXXXXXOO++OO@XXOO..&&---;X@@**XX%%OOO  ...ooooooooo    ===XXX   ",
"XXXXXX   XXXXXXXXOO++OO@XXOO..&&---;X@@**XX%%OOO  ...ooooooooo    ===XXX   ",
"   XXXXXXXXX=======OOOO@ooOOoo&&---; @@$$oo%%OOO     XXXoooooooooo======XXX",
"   XXXXXXXXX=======OOOO@ooOOoo&&---; @@$$oo%%OOO     XXXoooooooooo======XXX",
"   XXXXXXXXX=======XXOO+@@OO@@&&oo  @**$$oo%%OOO     XXXoooooooooo======XXX",
"ooo   XXXXXXXXXXoooooooO++@@**OOOOO&*$$..@@OO  XXXXXXoooXXXoooooooXXX   ooo",
"ooo   XXXXXXXXXXoooooooO++@@**OOOOO&*$$..@@OO  XXXXXXoooXXXoooooooXXX   ooo",
"ooo   XXXXXXXXXXoooooooO++@@**OOOOO&*$$..@@OO  XXXXXXoooXXXoooooooXXX   ooo",
"...   XXX   oooo...XXX  OO++@@&&***O$  @@%%OO     XXXXXX   oooooooooo   ooo",
"...   XXX   oooo...XXX   XOOOOOOOOO$ ++OOOO%%OOO  XXXXXX   oooooooooo   ooo",
"...   XXX   oooo...XXX   XOO++OO+++OOOO%%$$##OOO  XXXXXX   oooooooooo   ooo",
"...   XXX   oooo...XXX   XOO++OO+++OOOO%%$$##OOO  XXXXXX   oooooooooo   ooo",
"...XXX   oooooooXXX   ooooOO++OO+++OOOO%%$$##OOOXXoooXXXooooooXXXX   oooXXX",
"...XXX   oooooooXXX   ooooOO@@++  o@+%%$$##%%OOOXXoooXXXooooooXXXX   oooXXX",
"...XXX   oooooooXXX   ooooOO@@++  o@+%%$$##%%OOOXXoooXXXooooooXXXX   oooXXX",
"...      ...    ...oooXXXoOO++o...oo@++%%%%OO%%%OXXXX===   ...XXXXXXXXXX...",
"...      ...    ...oooXXXoooOO@@@@@+OOOOOOO$$%%%OOOOOOOO   ...XXXXXXXXXX...",
"...      ...    ...oooXXXoooOO@@@@@+OOOOOOO$$%%%OOOOOOOO   ...XXXXXXXXXX...",
"ooo...      ....oooXXXXXX   OO@@@@@+OOOOOOO$$%%%OOOOOOOO...XXXooooXXXXXX   ",
"ooo...      ....oooXXXXXX   ooOOOOOO###$$####$$$%O@@@@++...XXXooooXXXXXX   ",
"ooo...      ....oooXXXXXX   oo++@@@%$$$%%OO$$###%@++X=@@OO.XXXooooXXXXXX   ",
"ooo...XXX       ooo...oooXXX  ++@@@%$$$%%OO$$###%@++=X@@OOXoooXXXX   XXXXXX",
"ooo...XXX       ooo...oooXXX  ++@@@%$$$%%OO$$###%@++=X@@OOXoooXXXX   XXXXXX",
"ooo...XXX       ooo...oooXXX  @@oo @OOOOOOO$$$$$% OO@@XXOOXoooXXXX   XXXXXX",
"...   XXX   XXXX   ...   XXX  +++++@+OOooooOO%%%+@OOOO@@OO ===XXXX===      ",
"...   XXX   XXXX   ...   XXXOO@@  XX@OOooooooOOOOOOOXoOO   ===XXXX===      ",
"...   XXX   XXXX   ...   XXXOO@@  XX@OOooooooOOOOOOOXoOO   ===XXXX===      ",
"......   XXX.......XXX      OO@@XXXX@OOoo   XOOOOOOO.XOO   oooXXXXXXX   ooo",
"......   XXX.......XXX    OO++XXXXX@+OOoo   XXXXXX...XXX   oooXXXXXXX   ooo",
"......   XXX.......XXX    OO++XXXXX@+OOoo   XXXXXX...XXX   oooXXXXXXX   ooo",
"         ...XXXX         oOOOOOOOOOOO          XXXXXX...oooooooooo...ooo   ",
"         ...XXXX         oooXXX   XXX          XXXXXX...oooooooooo...ooo   ",
"         ...XXXX         oooXXX   XXX          XXXXXX...oooooooooo...ooo   ",
"...   XXXXXX    XXXoooooo            =======XXXoooXXXooo..........oooXXXooo",
"...   XXXXXX    XXXoooooo            =======XXXoooXXXooo..........oooXXXooo",
"...   XXXXXX    XXXoooooo            =======XXXoooXXXooo..........oooXXXooo",
"...   XXXXXX    XXXoooooo            =======XXXoooXXXooo..........oooXXXooo",
"XXX...oooooo====XXXooo...XXXXXXooooooXXXX   ===   ...ooo...   XXXX   XXX   ",
"XXX...oooooo====XXXooo...XXXXXXooooooXXXX   ===   ...ooo...   XXXX   XXX   ",
"XXX...oooooo====XXXooo...XXXXXXooooooXXXX   ===   ...ooo...   XXXX   XXX   ",
"   XXXXXXXXX====...oooooo...ooo   XXXXXXXooooooXXX...   ooo...    XXX...XXX",
"   XXXXXXXXX====...oooooo...ooo   XXXXXXXooooooXXX...   ooo...    XXX...XXX",
"   XXXXXXXXX====...oooooo...ooo   XXXXXXXooooooXXX...   ooo...    XXX...XXX",
"            ....XXX   ...XXXooo......oooooooXXXXXXXXX......   ....XXXXXXXXX",
"            ....XXX   ...XXXooo......oooooooXXXXXXXXX......   ....XXXXXXXXX",
"            ....XXX   ...XXXooo......oooooooXXXXXXXXX......   ....XXXXXXXXX"
};
