/* XPM */
static char *cGxheWVyX3VwXzE_[] = {
/* columns rows colors chars-per-pixel */
"75 75 14 1 ",
"  c #9CDEDE",
". c #94CEF7",
"X c #B5DEE7",
"o c #94D6EF",
"O c black",
"+ c #002063",
"@ c #0041A5",
"# c #0061C6",
"$ c #DEE7D6",
"% c #6382C6",
"& c #00AA66",
"* c #006644",
"= c #004422",
"- c #A5C3E7",
/* pixels */
"   ...XXX...       XXX   ...      ...XXXXXXXXXXXXXXXX   XXXXXXXXXX...      ",
"   ...XXX...       XXX   ...      ...XXXXXXXXXXXXXXXX   XXXXXXXXXX...      ",
"   ...XXX...       XXX   ...      ...XXXXXXXXXXXXXXXX   XXXXXXXXXX...      ",
"XXXXXXXXXXXXoooo   oooXXX   XXXXXXXXXXXXXXXX   ooooooXXX   XXXXXXXXXX   ...",
"XXXXXXXXXXXXoooo   oooXXX   XXXXXXXXXXXXXXXX   ooooooXXX   XXXXXXXXXX   ...",
"XXXXXXXXXXXXoooo   oooXXX   XXXXXXXXXXXXXXXX   ooooooXXX   XXXXXXXXXX   ...",
"XXX......ooo                XXXXXXooo.......ooooooXXX   ooo...XXXXoooXXX   ",
"XXX......ooo                XXXXXXooo.......ooooooXXX   ooo...XXXXoooXXX   ",
"XXX......ooo                XXXXXXooo.......ooooooXXX   ooo...XXXXoooXXX   ",
"   XXX   XXXoooooooXXXoooXXXXXXXXX   oooooooooo...oooooooooooo             ",
"   XXX   XXXoooooooXXXoooXXXXXXXXX   oooooooooo...oooooooooooo             ",
"   XXX   XXXoooooooXXXoooXXXXXXXXX   oooooooooo...oooooooooooo             ",
"...XXX   ooo    XXX            XXXXXXXXXXooooooXXXoooooo      oooo         ",
"...XXX   ooo    XXX           OOOOOOOOOOOOOooooXXXoooooo      oooo         ",
"...XXX   ooo    XXX        OOO+@@@#######@@OOOoXXXoooooo      oooo         ",
"...XXX   ooo    XXX        OOO+@@@#######@@OOOoXXXoooooo      oooo         ",
"......oooXXXXXXX        OOO+@@@#############@@O   ...         ooooooo...   ",
"......oooXXXXXXX       O+++@++##############@@@OO ...         ooooooo...   ",
"......oooXXXXXXX       O+++@++##############@@@OO ...         ooooooo...   ",
"   ooo...             XO+++@##################@OOo   XXXXXX       ooooooooo",
"   ooo...             XO+++@##################@OOo   XXXXXX       ooooooooo",
"   ooo...             XO+++@##################@OOo   XXXXXX       ooooooooo",
"...   ooo       ...   XO+++@###################@@O...   XXXXXX       oooXXX",
"...   ooo       ...   XO+++@###################@@O...   XXXXXX       oooXXX",
"...   ooo       ...  OOO+++@###################@@O...   XXXXXX       oooXXX",
"      oooXXX....XXXXXOOO+++@###################@@OOOoooo      XXXXXXXooo   ",
"      oooXXX....XXXXXOOO+++@@@#################@@OOOoooo      XXXXXXXooo   ",
"      oooXXX....XXXXXOOO+++@@@#################@@OOOoooo      XXXXXXXooo   ",
"XXXXXX   XXXXXXXXXX$$OOO++++@@################@@@OOO.ooooooooo    $$$XXX   ",
"XXXXXX   XXXXXXXXXX$$OO%OOO+@@@#############@@@OO%OO.ooooooooo    $$$XXX   ",
"XXXXXX   XXXXXXXXXX$$OO%OOO+@@@#############@@@OO%OO.ooooooooo    $$$XXX   ",
"   XXXXXXXXX$$$$$$$XXXoO%%%O++@@@##########@@@O%%O   XXXoooooooooo$$$$$$XXX",
"   XXXXXXXXX$$$$$$$XXXooOOO#OO+@@@&&*####@@@++#OO    XXXoooooooooo$$$$$$XXX",
"   XXXXXXXXX$$$$$$$XXXoooooOOO###&*******##@OOO      XXXoooooooooo$$$$$$XXX",
"ooo   XXXXXXXXXXoooooooooooOOO###&*******##@OOOXXXXXXoooXXXoooooooXXX   ooo",
"ooo   XXXXXXXXXXooooooooooooOO@##&*******##O   XXXXXXoooXXXoooooooXXX   ooo",
"ooo   XXXXXXXXXXooooooooooooOO@##&*******##O   XXXXXXoooXXXoooooooXXX   ooo",
"...   XXX   oooo...XXX   XXXOO%##****====%%O      XXXXXX   oooooooooo   ooo",
"...   XXX   oooo...XXX   XXXOO%##****====%%O      XXXXXX   oooooooooo   ooo",
"...   XXX   oooo...XXX   XXXOO-XX*=======%%O      XXXXXX   oooooooooo   ooo",
"...   XXX   oooo...XXX   XXXOO-XXX---%%%%%%O      XXXXXX   oooooooooo   ooo",
"...XXX   oooooooXXX   ooooooOO%-- %%%%%%%@@@OOOXXXoooXXXooooooXXXX   oooXXX",
"...XXX   oooooooXXX   ooooooOO%-- %%%%%%%@@@OOOXXXoooXXXooooooXXXX   oooXXX",
"...XXX   oooooooXXX   ooooooOO@%%%%%%#######@@%OOXoooXXXooooooXXXX   oooXXX",
"...      ...    ...oooXXXooO@@###@OOO@@@@@@%%%-OOXXXX$$$   ...XXXXXXXXXX...",
"...      ...    ...oooXXXooO@@###@OOO@@@@@@%%%-OOXXXX$$$   ...XXXXXXXXXX...",
"...      ...    ...oooXXOOO%%%#@@OooOOOOOOO---XOOXXXX$$$   ...XXXXXXXXXX...",
"ooo...      ....oooXXXXXOOO---%%%O..O-------$$%OO$XXX$$$...XXXooooXXXXXX   ",
"ooo...      ....oooXXXXXOOO ---%%O..O%%%%--X$$O$$$XXX$$$...XXXooooXXXXXX   ",
"ooo...      ....oooXXXXXOOO ---%%O..O%%%%--X$$O$$$XXX$$$...XXXooooXXXXXX   ",
"ooo...XXX       ooo...ooOOOX  ---O   OOOO---ooO   $$$XXXXXXoooXXXX   XXXXXX",
"ooo...XXX       ooo...ooOOOX  ---O   OOOO---ooO   $$$XXXXXXoooXXXX   XXXXXX",
"ooo...XXX       ooo...ooOOOX  ---O   OOOO---ooO   $$$XXXXXXoooXXXX   XXXXXX",
"...   XXX   XXXX   ...  OOOX  -%%OXXXOOOO%%---%OO.XXXooo   $$$XXXX$$$      ",
"...   XXX   XXXX   ...  OOOX  -%%OXXXOOOO%%---%OO.XXXooo   $$$XXXX$$$      ",
"...   XXX   XXXX   ... O%%%X---OOOXXXooooOO%---OO.XXXooo   $$$XXXX$$$      ",
"......   XXX.......XXX O   ---OOOXXXXoooo  OOOOOOX...XXX   oooXXXXXXX   ooo",
"......   XXX.......XXX O   ---OOOXXXXoooo  OOOOOOX...XXX   oooXXXXXXX   ooo",
"......   XXX.......XXX O----OOOXXXXXXoooo   XXXXXX...XXX   oooXXXXXXX   ooo",
"         ...XXXX       OOOOOOOX   XXX          XXXXXX...oooooooooo...ooo   ",
"         ...XXXX         oooXXX   XXX          XXXXXX...oooooooooo...ooo   ",
"         ...XXXX         oooXXX   XXX          XXXXXX...oooooooooo...ooo   ",
"...   XXXXXX    XXXoooooo            $$$$$$$XXXoooXXXooo..........oooXXXooo",
"...   XXXXXX    XXXoooooo            $$$$$$$XXXoooXXXooo..........oooXXXooo",
"...   XXXXXX    XXXoooooo            $$$$$$$XXXoooXXXooo..........oooXXXooo",
"...   XXXXXX    XXXoooooo            $$$$$$$XXXoooXXXooo..........oooXXXooo",
"XXX...oooooo$$$$XXXooo...XXXXXXooooooXXXX   $$$   ...ooo...   XXXX   XXX   ",
"XXX...oooooo$$$$XXXooo...XXXXXXooooooXXXX   $$$   ...ooo...   XXXX   XXX   ",
"XXX...oooooo$$$$XXXooo...XXXXXXooooooXXXX   $$$   ...ooo...   XXXX   XXX   ",
"   XXXXXXXXX$$$$...oooooo...ooo   XXXXXXXooooooXXX...   ooo...    XXX...XXX",
"   XXXXXXXXX$$$$...oooooo...ooo   XXXXXXXooooooXXX...   ooo...    XXX...XXX",
"   XXXXXXXXX$$$$...oooooo...ooo   XXXXXXXooooooXXX...   ooo...    XXX...XXX",
"            ....XXX   ...XXXooo......oooooooXXXXXXXXX......   ....XXXXXXXXX",
"            ....XXX   ...XXXooo......oooooooXXXXXXXXX......   ....XXXXXXXXX",
"            ....XXX   ...XXXooo......oooooooXXXXXXXXX......   ....XXXXXXXXX"
};
