/* XPM */
static char *cGxheWVyX2Rvd25fMQ__[] = {
/* columns rows colors chars-per-pixel */
"75 75 15 1 ",
"  c #9CDEDE",
". c #94CEF7",
"X c #B5DEE7",
"o c #94D6EF",
"O c black",
"+ c #6382C6",
"@ c #A5C3E7",
"# c #002063",
"$ c #0041A5",
"% c #0061C6",
"& c #E76100",
"* c #E7A284",
"= c #006142",
"- c #004121",
"; c #DEE7D6",
/* pixels */
"   ...XXX...       XXX   ...      ...XXXXXXXXXXXXXXXX   XXXXXXXXXX...      ",
"   ...XXX...       XXX   ...      ...XXXXXXXXXXXXXXXX   XXXXXXXXXX...      ",
"   ...XXX...       XXX   ...      ...XXXXXXXXXXXXXXXX   XXXXXXXXXX...      ",
"XXXXXXXXXXXXoooo   oooXXX   XXXXXXXXXXXXXXXX   ooooooXXX   XXXXXXXXXX   ...",
"XXXXXXXXXXXXoooo   oooXXX   XXXXXXXXXXXXXXXX   ooooooXXX   XXXXXXXXXX   ...",
"XXXXXXXXXXXXoooo   oooXXX   XXXXXXXXXXXXXXXX   ooooooXXX   XXXXXXXXXX   ...",
"XXX......ooo                XXXXXXooo.......ooooooXXX   ooo...XXXXoooXXX   ",
"XXX......ooo                XXXXXXooo.......ooooooXXX   ooo...XXXXoooXXX   ",
"XXX......ooo                XXXXXXooo.......ooooooXXX   ooo...XXXXoooXXX   ",
"   XXX   XXXoooooooXXXoooXXXXXXXXX   oooooooooo...oooooooooooo             ",
"   XXX   XXXoooooooXXXoooXXXXXXXXX   oooooooooo...oooooooooooo             ",
"   XXX   XXXoooooooXXXoooXXXXXXXXX   oooooooooOOOOOOOooooooooo             ",
"...XXX   ooo    XXX            XXXXXXXXXXoooooOOOOOOOooo      oooo         ",
"...XXX   ooo    XXX            XXXXXXXXXXoooooOOOOOOOooo      oooo         ",
"...XXX   ooo    XXX          OOOOOOOOOOOXoooOO+@@@@++ooo      oooo         ",
"...XXX   ooo    XXX        OO##$$$%%%%%%OOOOOO@XXXo@@OOO      oooo         ",
"......oooXXXXXXX           OO##$$$%%%%%%OOOOOO@   .@@OOO      ooooooo...   ",
"......oooXXXXXXX         OO$$$$##+@ooXXX@@++OO+   ...OOO      ooooooo...   ",
"......oooXXXXXXX         OO$$$$##+@ooXXX@@++OO+   ...OOO      ooooooo...   ",
"   ooo...             XXXOO$$$$##+@XXooo@@++OO+ooo   OOOXXX       ooooooooo",
"   ooo...             OOO####++@@@OOOOOOoo@@++O++@@  OOOXXX       ooooooooo",
"   ooo...             OOO##++@@$$&O*****OOoo@@O@@o @@XXXXXX       ooooooooo",
"...   ooo       ...   OOO##++@@$$&O*****OOXX@@O@@ .@@   XXXXXX       oooXXX",
"...   ooo       ...   OOO##++@@$$&O*****OOXX@@O@@ .@@   XXXXXX       oooXXX",
"...   ooo       ...   OOO##@@$$&&@@OOO**@@OO  +OO .++   XXXXXX       oooXXX",
"      oooXXX....XXXXXXOOO##XX&&@@o.@@@**XXOOXX@OO@@OOooo      XXXXXXXooo   ",
"      oooXXX....XXXXXXOOO##XX&&@@o=---**XXOOXX@OO++OOooo      XXXXXXXooo   ",
"      oooXXX....XXXXXXOOO##XX&&@@o=---**XXOOXX@OO++OOooo      XXXXXXXooo   ",
"XXXXXX   XXXXXXXXXX;;;OOO##X.&&@@o=---** XOO  @OO++OOooooooooo    ;;;XXX   ",
"XXXXXX   XXXXXXXXXX;;;OOO##X.$$@@o=---** XOO  @OOOO..ooooooooo    ;;;XXX   ",
"XXXXXX   XXXXXXXXXX;;;OOO##X.$$@@o=---** XOO  @OOOO..ooooooooo    ;;;XXX   ",
"   XXXXXXXXX;;;;;;;XXXOOO##oo$$&&@   X**@@OO@@+OO    XXXoooooooooo;;;;;;XXX",
"   XXXXXXXXX;;;;;;;XXXoooOO@@oo$$&*OOOOO&&@@++O      XXXoooooooooo;;;;;;XXX",
"   XXXXXXXXX;;;;;;;XXXoooOO@@oo$$&*OOOOO&&@@++O      XXXoooooooooo;;;;;;XXX",
"ooo   XXXXXXXXXXoooooooooOO@@..$$&*OOOOO&&@@++OXXXXXXoooXXXoooooooXXX   ooo",
"ooo   XXXXXXXXXXoooooooooOO##@@XX$O&&&**@@++OO XXXXXXoooXXXoooooooXXX   ooo",
"ooo   XXXXXXXXXXooooooOOO##OOOO++X$OOOOOOOOO   XXXXXXoooXXXoooooooXXX   ooo",
"...   XXX   oooo...XXXOOO%%$$##OOOO+++OO++OO      XXXXXX   oooooooooo   ooo",
"...   XXX   oooo...XXXOOO%%$$##OOOO+++OO++OO      XXXXXX   oooooooooo   ooo",
"...   XXX   oooo...XXXOOO%%$$##OOOO+++OO++OO      XXXXXX   oooooooooo   ooo",
"...   XXX   oooo...XXXOOO##%%$$##+@   ++@@OO      XXXXXX   oooooooooo   ooo",
"...XXX   oooooooXXX   OOO##%%$$##+@ooo++@@OOXXXXXXoooXXXooooooXXXX   oooXXX",
"...XXX   oooooooXXX  O###OO####++@oooooo++OOXXXXXXoooXXXooooooXXXX   oooXXX",
"...XXX   oooooOOOOOOOO###$$OOOOOOO+@@@@@OO  XXXXXXoooXXXooooooXXXX   oooXXX",
"...      ...  OOOOOOOO###$$OOOOOOO+@@@@@OO;;XXXXXXXXX;;;   ...XXXXXXXXXX...",
"...      ...  OOOOOOOO###$$OOOOOOO+@@@@@OO;;XXXXXXXXX;;;   ...XXXXXXXXXX...",
"...      ...  ++@@@@O#$$$%%%%$$%%%OOOOOOX;;;XXXXXXXXX;;;   ...XXXXXXXXXX...",
"ooo...      OO@@oo++@#%%%$$OO##$$$#@@@++oXXX;;;;;;XXX;;;...XXXooooXXXXXX   ",
"ooo...      OO@@oo++@#%%%$$OO##$$$#@@@++oXXX;;;;;;XXX;;;...XXXooooXXXXXX   ",
"ooo...      OO@@oo++@#%%%$$OO##$$$#@@@++oXXX;;;;;;XXX;;;...XXXooooXXXXXX   ",
"ooo...XXX   OO  @@OO.#$$$$$OOOOOOO@  .@@.oooooo   ;;;XXXXXXoooXXXX   XXXXXX",
"ooo...XXX   OO@@OOOO@+###OOX   OO+@+++++.oooooo   ;;;XXXXXXoooXXXX   XXXXXX",
"ooo...XXX     OOooOOOOOOOXXX   OO@   .@@OOooooo   ;;;XXXXXXoooXXXX   XXXXXX",
"...   XXX   XXOO  OOOOOOOXXX   OO@XXXo@@OOooooo...XXXooo   ;;;XXXX;;;      ",
"...   XXX   XXOO  OOOOOOOXXX   OO@XXXo@@OOooooo...XXXooo   ;;;XXXX;;;      ",
"...   XXX   XXXX   ...   XXX   OO+@XXooo++OOooo...XXXooo   ;;;XXXX;;;      ",
"......   XXX.......XXX      XXXOO+@XXooo++OOXXXXXX...XXX   oooXXXXXXX   ooo",
"......   XXX.......XXX      XXXXXOOOOOOOOOOOXXXXXX...XXX   oooXXXXXXX   ooo",
"......   XXX.......XXX      XXXXXXXXXoooo   XXXXXX...XXX   oooXXXXXXX   ooo",
"         ...XXXX         oooXXX   XXX          XXXXXX...oooooooooo...ooo   ",
"         ...XXXX         oooXXX   XXX          XXXXXX...oooooooooo...ooo   ",
"         ...XXXX         oooXXX   XXX          XXXXXX...oooooooooo...ooo   ",
"...   XXXXXX    XXXoooooo            ;;;;;;;XXXoooXXXooo..........oooXXXooo",
"...   XXXXXX    XXXoooooo            ;;;;;;;XXXoooXXXooo..........oooXXXooo",
"...   XXXXXX    XXXoooooo            ;;;;;;;XXXoooXXXooo..........oooXXXooo",
"...   XXXXXX    XXXoooooo            ;;;;;;;XXXoooXXXooo..........oooXXXooo",
"XXX...oooooo;;;;XXXooo...XXXXXXooooooXXXX   ;;;   ...ooo...   XXXX   XXX   ",
"XXX...oooooo;;;;XXXooo...XXXXXXooooooXXXX   ;;;   ...ooo...   XXXX   XXX   ",
"XXX...oooooo;;;;XXXooo...XXXXXXooooooXXXX   ;;;   ...ooo...   XXXX   XXX   ",
"   XXXXXXXXX;;;;...oooooo...ooo   XXXXXXXooooooXXX...   ooo...    XXX...XXX",
"   XXXXXXXXX;;;;...oooooo...ooo   XXXXXXXooooooXXX...   ooo...    XXX...XXX",
"   XXXXXXXXX;;;;...oooooo...ooo   XXXXXXXooooooXXX...   ooo...    XXX...XXX",
"            ....XXX   ...XXXooo......oooooooXXXXXXXXX......   ....XXXXXXXXX",
"            ....XXX   ...XXXooo......oooooooXXXXXXXXX......   ....XXXXXXXXX",
"            ....XXX   ...XXXooo......oooooooXXXXXXXXX......   ....XXXXXXXXX"
};
