/* XPM */
static char *_97e3b3b9cb84bc2af7b91b43551c880pA70dOFigrddx8Om[] = {
/* columns rows colors chars-per-pixel */
"75 75 15 1 ",
"  c black",
". c #004121",
"X c #002063",
"o c #006142",
"O c #E76100",
"+ c #0041A5",
"@ c #0061C6",
"# c #6382C6",
"$ c #E7A284",
"% c #9CDEDE",
"& c #94D6EF",
"* c #94CEF7",
"= c #A5C3E7",
"- c #B5DEE7",
"; c #DEE7D6",
/* pixels */
"%%%***---***%%%%%%%---%%%***%%%%%%***----------------%%%----------***%%%%%%",
"%%%***---***%%%%%%%---%%%***%%%%%%***----------------%%%----------***%%%%%%",
"%%%***---***%%%%%%%---%%%***%%%%%%***----------------%%%----------***%%%%%%",
"------------&&&&%%%&&&---%%%----------------%%%&&&&&&---%%%----------%%%***",
"------------&&&&%%%&&&---%%%----------------%%%&&&&&&---%%%----------%%%***",
"------------&&&&%%%&&&---%%%----------------%%%&&&&&&---%%%----------%%%***",
"---******&&&%%%%%%%%%%%%%%%%------&&&*******&&&&&&---%%%&&&***----&&&---%%%",
"---******&&&%%%%%%%%%%%%%%%%------&&&*******&&&&&&---%%%&&&***----&&&---%%%",
"---******&&&%%%%%%%%%%%%%%%%------&&&*******&&&&&&---%%%&&&***----&&&---%%%",
"%%%---%%%---&&&&&&&---&&&---------%%%&&&&&&&&&&***&&&&&&&&&&&&%%%%%%%%%%%%%",
"%%%---%%%---&&&&&&&---&&&---------%%%&&&&&&&&&&***&&&&&&&&&&&&%%%%%%%%%%%%%",
"%%%---%%%---&&&&&&&---&&&---------%%%&&&&&&&&&&***&&&&&&&&&&&&%%%%%%%%%%%%%",
"***---%%%&&&%%%%---%%%%%%%%%%%%----------&&&&&&---&&&&&&%%%%%%&&&&%%%%%%%%%",
"***---%%%&&&%%%%---%%%%%%%%%%%%----------&&&&&&---&&&&&&%%%%%%&&&&%%%%%%%%%",
"***---%%%&&&%%%%---%%%%%%%%%%%%----------&&&&&&---&&&&&&%%%%%%&&&&%%%%%%%%%",
"***---%%%&&&%%%%---%%%%%%%%%%%%----------&&&&&&---&&&&&&%%%%%%&&&&%%%%%%%%%",
"******&&&-------%%%%%%%%%%%%%%%&&&&&&-------&&&%%%***%%%%%%%%%&&&&&&&***%%%",
"******&&&-------%%%%%%%%%%%%%%%&&&&&&-------&&&%%%***%%%%%%%%%&&&&&&&***%%%",
"******&&&-------%%%%%%%%%%%%%%%&&            &&%%%***%%%%%%%%%&&&&&&&***%%%",
"%%%&&&***%%%%%%%%%%%%%---&&&-    X++++@@@@@++   &&%%%------%%%%%%%&&&&&&&&&",
"%%%&&&***%%%%%%%%%%%%%---&&& XX+++XX##=&&&&&&==#  %%%------%%%%%%%&&&&&&&&&",
"%%%&&&***%%%%%%%%%%%%%---&&& XX+++XX##=&&&&&&==#  %%%------%%%%%%%&&&&&&&&&",
"***%%%&&&%%%%%%%***%%%------ XX+++XX##=&&---%==#  ***%%%------%%%%%%%&&&---",
"***%%%&&&%%%%%%%***%%%---   X++XX#====       %%=##  *%%%------%%%%%%%&&&---",
"***%%%&&&%%%%%%%***%%%---   XXX##=++OO $$$$OO  %==  *%%%------%%%%%%%&&&---",
"%%%%%%&&&---****------;;;   XXX##=++OO $$$$OO  %==  &&&&%%%%%%-------&&&%%%",
"%%%%%%&&&---****------;;;   XXX==+OO===  $$  == %%##  &&%%%%%%-------&&&%%%",
"%%%%%%&&&---****------;;;   XXX==+OO===  $$  == %%##  &&%%%%%%-------&&&%%%",
"------%%%----------;;;---   X##&&O==-%%==$$==%% %%==  &&&&&&&&%%%%;;;---%%%",
"------%%%----------;;;---   X==&&O==-%o..$$..%% %%==  &&&&&&&&%%%%;;;---%%%",
"------%%%----------;;;---   X==&&O==-%o..$$..%% %%==  &&&&&&&&%%%%;;;---%%%",
"%%%---------;;;;;;          X==&&+==%-o..$$..** %%==  --&&&&&&&&&&;;;;;;---",
"%%%---------;;;;;;          X==&&+==%-o..$$..** %%==  --&&&&&&&&&&;;;;;;---",
"%%%---------;;;   ##XXXX+   X##&&+OO==---$$&*== ==##  --&&&&&&&&&&;;;;;;---",
"&&&%%%-------- ###=====+@XXX XX==-++OO$    $$OO=##  -&&&---&&&&&&&---%%%&&&",
"&&&%%%-------- ###=====+@XXX XX==-++OO$    $$OO=##  -&&&---&&&&&&&---%%%&&&",
"&&&%%%-------- ###=====+@XXX XX==-++OO$    $$OO=##  -&&&---&&&&&&&---%%%&&&",
"***%%%---%%%&& ===*-###  +++X  XX=%%++ OO$$  ==#  ------%%%&&&&&&&&&&%%%&&&",
"***%%%---%%%&& ===*    %%    XX   ##%%+  ++==##       --%%%&&&&&&&&&&%%%&&&",
"***%%%---%%%&& ===*    %%    XX   ##%%+  ++==##       --%%%&&&&&&&&&&%%%&&&",
"***%%%---%%%&& ###=#   %%--- ++++X    %++==    #  #### -%%%&&&&&&&&&&%%%&&&",
"***---%%%&&&&& ###=#   &&&&& ++++X    &++==    #  #### -&&&&&&----%%%&&&---",
"***---%%%&&&&&&     %%&&&   #XX++@++XX ==  XX++=##&&== -&&&&&&----%%%&&&---",
"***---%%%&&&&&&&---%%%&& XXXX==%%=##  =XX    XX#==&&== -&&&&&&----%%%&&&---",
"***%%%%%%***%%%%***&&&-- XXXX==**=##  =XX    XX#==--== ;%%%***----------***",
"***%%%%%%***%%%%**     - XXX+XX          ;;;-   ##==## ;%%%***----------***",
"***%%%%%%***%%%%**     - XXX+XX          ;;;-   ##==## ;%%%***----------***",
"&&&***%%%%%%***   #====  XXX+++@@@@@@@+XX  -;;;;      ;;***---&&&&------%%%",
"&&&***%%%%%%** ###=-===#+   X+++++++++X==##  ;;;;;---;;;***---&&&&------%%%",
"&&&***%%%%%%** ###=-===#+   X+++++++++X==##  ;;;;;---;;;***---&&&&------%%%",
"&&&***---%%%%% ===&=   +@+++          =**==  &&%%%;;;------&&&----%%%------",
"&&&***---%%%%% ===&=   +@+++          =**==  &&%%%;;;------&&&----%%%------",
"&&&***---%%%%% ###=    X++++X  &&&  ##=####  &&%%%;;;------&&&----%%%------",
"***%%%---%%%-- ###=    X++++X  %%%  ##=####  &&***---&&&%%%;;;----;;;%%%%%%",
"***%%%---%%%---    ***%      %%%%%  ==&&&==##  ***---&&&%%%;;;----;;;%%%%%%",
"***%%%---%%%----%%%***%%%---%%%%%%  ##=&&&&==## **---&&&%%%;;;----;;;%%%%%%",
"******%%%---*******---%%%%%%------  ##=&&%%==## --***---%%%&&&-------%%%&&&",
"******%%%---*******---%%%%%%--------            --***---%%%&&&-------%%%&&&",
"******%%%---*******---%%%%%%--------            --***---%%%&&&-------%%%&&&",
"%%%%%%%%%***----%%%%%%%%%&&&---%%%---%%%%%%%%%%------***&&&&&&&&&&***&&&%%%",
"%%%%%%%%%***----%%%%%%%%%&&&---%%%---%%%%%%%%%%------***&&&&&&&&&&***&&&%%%",
"%%%%%%%%%***----%%%%%%%%%&&&---%%%---%%%%%%%%%%------***&&&&&&&&&&***&&&%%%",
"***%%%------%%%%---&&&&&&%%%%%%%%%%%%;;;;;;;---&&&---&&&**********&&&---&&&",
"***%%%------%%%%---&&&&&&%%%%%%%%%%%%;;;;;;;---&&&---&&&**********&&&---&&&",
"***%%%------%%%%---&&&&&&%%%%%%%%%%%%;;;;;;;---&&&---&&&**********&&&---&&&",
"***%%%------%%%%---&&&&&&%%%%%%%%%%%%;;;;;;;---&&&---&&&**********&&&---&&&",
"---***&&&&&&;;;;---&&&***------&&&&&&----%%%;;;%%%***&&&***%%%----%%%---%%%",
"---***&&&&&&;;;;---&&&***------&&&&&&----%%%;;;%%%***&&&***%%%----%%%---%%%",
"---***&&&&&&;;;;---&&&***------&&&&&&----%%%;;;%%%***&&&***%%%----%%%---%%%",
"%%%---------;;;;***&&&&&&***&&&%%%-------&&&&&&---***%%%&&&***%%%%---***---",
"%%%---------;;;;***&&&&&&***&&&%%%-------&&&&&&---***%%%&&&***%%%%---***---",
"%%%---------;;;;***&&&&&&***&&&%%%-------&&&&&&---***%%%&&&***%%%%---***---",
"%%%%%%%%%%%%****---%%%***---&&&******&&&&&&&---------******%%%****---------",
"%%%%%%%%%%%%****---%%%***---&&&******&&&&&&&---------******%%%****---------",
"%%%%%%%%%%%%****---%%%***---&&&******&&&&&&&---------******%%%****---------"
};
