/* XPM */
static char *_9e8a3097af84064a8405a297e110596F6ISxAvWCXDfjWBt[] = {
/* columns rows colors chars-per-pixel */
"75 75 15 1 ",
"  c black",
". c #004121",
"X c #002063",
"o c #006142",
"O c #E76100",
"+ c #0041A5",
"@ c #0061C6",
"# c #6382C6",
"$ c #E7A284",
"% c #9CDEDE",
"& c #94D6EF",
"* c #94CEF7",
"= c #A5C3E7",
"- c #B5DEE7",
"; c #DEE7D6",
/* pixels */
"%%%***---***%%%%%%%---%%%***%%%%%%***----------------%%%----------***%%%%%%",
"%%%***---***%%%%%%%---%%%***%%%%%%***----------------%%%----------***%%%%%%",
"%%%***---***%%%%%%%---%%%***%%%%%%***----------------%%%----------***%%%%%%",
"------------&&&&%%%&&&---%%%----------------%%%&&&&&&---%%%----------%%%***",
"------------&&&&%%%&&&---%%%----------------%%%&&&&&&---%%%----------%%%***",
"------------&&&&%%%&&&---%%%----------------%%%&&&&&&---%%%----------%%%***",
"---******&&&%%%%%%%%%%%%%%%%------&&&*******&&&&&&---%%%&&&***----&&&---%%%",
"---******&&&%%%%%%%%%%%%%%%%------&&&*******&&&&&&---%%%&&&***----&&&---%%%",
"---******&&&%%%%%%%%%%%%%%%%------&&&*******&&&&&&---%%%&&&***----&&&---%%%",
"%%%---%%%---&&&&&&&---&&&---------%%%&&&&&&&&&&***&&&&&&&&&&&&%%%%%%%%%%%%%",
"%%%---%%%---&&&&&&&---&&&---------%%%&&&&&&&&&&***&&&&&&&&&&&&%%%%%%%%%%%%%",
"%%%---%%%---&&&&&&&---&&&---------%%%&&&&&&&&&&***&&&&&&&&&&&&%%%%%%%%%%%%%",
"***---%%%&&&%%%%---%%%%%%%%%%%%----------&&&&&&---&&&&&&%%%%%%&&&&%%%%%%%%%",
"***---%%%&&&%%%%---%%%%%%%%%%           -&&&&&&---&&&&&&%%%%%%&&&&%%%%%%%%%",
"***---%%%&&&%%%%---%%%%%%%%%%           -&&&&&&---&&&&&&%%%%%%&&&&%%%%%%%%%",
"***---%%%&&&%%%%---%%%%%%%%%%           -&&&&&&---&&&&&&%%%%%%&&&&%%%%%%%%%",
"******&&&-------%%%%%%%%%    X++++@@@@@+    &&&%%%***%%%%%%%%%&&&&&&&***%%%",
"******&&&-------%%%%%%%% X++++X###=&&---==##  &%%%***%%%%%%%%%&&&&&&&***%%%",
"******&&&-------%%%%%%%% X++++X###=&&---==##  &%%%***%%%%%%%%%&&&&&&&***%%%",
"%%%&&&***%%%%%%%%%%%%   X+XXX#====      &&==##  &&%%%------%%%%%%%&&&&&&&&&",
"%%%&&&***%%%%%%%%%%%%   X+XXX#====      &&==##  &&%%%------%%%%%%%&&&&&&&&&",
"%%%&&&***%%%%%%%%%%%%   XX###=+OOO $$$$O  &&==  &&%%%------%%%%%%%&&&&&&&&&",
"***%%%&&&%%%%%%%***%%   XX===+O====  $$ ==  %%## %***%%%------%%%%%%%&&&---",
"***%%%&&&%%%%%%%***%%   XX===+O====  $$ ==  %%## %***%%%------%%%%%%%&&&---",
"***%%%&&&%%%%%%%***%%   X#---O=&&&&==$$=&-  %%== %***%%%------%%%%%%%&&&---",
"%%%%%%&&&---****-----   X#---O=&&&*==$$=--  --== %&&&&&&%%%%%%-------&&&%%%",
"%%%%%%&&&---****-----   X=---O=&&&o..$$.--  --== %&&&&&&%%%%%%-------&&&%%%",
"%%%%%%&&&---****-----   X=---+=&&&o..$$.--  --== %&&&&&&%%%%%%-------&&&%%%",
"------%%%----------;;   X=--*+=&&&o..$$.%-  %%== %***&&&&&&&&&%%%%;;;---%%%",
"------%%%----------;;   X=--*+=&&&o..$$.%-  %%== %***&&&&&&&&&%%%%;;;---%%%",
"------%%%----------;;   X#--*+O===---$$%==  ==## %***&&&&&&&&&%%%%;;;---%%%",
"%%%---------;;;;;;;--    X===&+OOO$    $OO==##  %%%%%---&&&&&&&&&&;;;;;;---",
"%%%---------;;;;;;;--    X===&+OOO$    $OO==##  %%%%%---&&&&&&&&&&;;;;;;---",
"%%%---------;;;;;;;- XXXX XXX=&+++ OO$$ ==##  *%%%%%%---&&&&&&&&&&;;;;;;---",
"&&&%%%----------&&&& XXXX XXX=*+++ OO$$ ==##  %------&&&---&&&&&&&---%%%&&&",
"&&&%%%----------&&& X+++@X    #---+  ++=##  %%%------&&&---&&&&&&&---%%%&&&",
"&&&%%%----------&&& =@@@ ++++X    %++==   **%%%------&&&---&&&&&&&---%%%&&&",
"***%%%---%%%&&&&*** =@@@ ++++X    %++==   --%%%%%%------%%%&&&&&&&&&&%%%&&&",
"***%%%---%%%&&&&   #-=== X+++@+XXX ==  X  --%%%%%%------%%%&&&&&&&&&&%%%&&&",
"***%%%---%%%&&&&   #-=== X+++@+XXX ==  X  --%%%%%%------%%%&&&&&&&&&&%%%&&&",
"***%%%---%%%&&&&   =-===# --%=X   =XX  #  --%%%%%%------%%%&&&&&&&&&&%%%&&&",
"***---%%%&&&&&&&   ==###  +++%%%%%#  ##=##  ------&&&---&&&&&&----%%%&&&---",
"***---%%%&&&&&&&   ==###  +++%%%%%#  ##=##  ------&&&---&&&&&&----%%%&&&---",
"***---%%%&&&&&&&   #%===# @@@+X+++   ==&##  ------&&&---&&&&&&----%%%&&&---",
"***%%%%%%***%%%%   #&===# @@@+X+++   ==-##  ---------;;;%%%***----------***",
"***%%%%%%***%%%%***      +@@@@ +++@  ##=  ;;---------;;;%%%***----------***",
"***%%%%%%***%%%%***      +@@@@ +++@  ##=  ;;---------;;;%%%***----------***",
"&&&***%%%%%%****&&&----- X++++X   X@@   &---;;;;;;---;;;***---&&&&------%%%",
"&&&***%%%%%%****&&&------ XXX#==== ##  &&---;;;;;;---;;;***---&&&&------%%%",
"&&&***%%%%%%****&&&------ XXX#==== ##  &&---;;;;;;---;;;***---&&&&------%%%",
"&&&***---%%%%%%%&&&***&&&-   =%###   ****&&&&&&%%%;;;------&&&----%%%------",
"&&&***---%%%%%%%&&&***&&&-   =%###   ****&&&&&&%%%;;;------&&&----%%%------",
"&&&***---%%%%%%%&&&***&&& ###=#      ****&&&&&&%%%;;;------&&&----%%%------",
"***%%%---%%%----%%%***%%% ===%%===#     &&&&&&&***---&&&%%%;;;----;;;%%%%%%",
"***%%%---%%%----%%%***%%% ===%%===#     &&&&&&&***---&&&%%%;;;----;;;%%%%%%",
"***%%%---%%%----%%%***%%% ###=%%%%=##  #  &&&&&***---&&&%%%;;;----;;;%%%%%%",
"******%%%---*******---%%% ###=----=##  #  %%------***---%%%&&&-------%%%&&&",
"******%%%---*******---%%%%                %%------***---%%%&&&-------%%%&&&",
"******%%%---*******---%%%%%%---------&&&&%%%------***---%%%&&&-------%%%&&&",
"%%%%%%%%%***----%%%%%%%%%&&&---%%%---%%%%%%%%%%------***&&&&&&&&&&***&&&%%%",
"%%%%%%%%%***----%%%%%%%%%&&&---%%%---%%%%%%%%%%------***&&&&&&&&&&***&&&%%%",
"%%%%%%%%%***----%%%%%%%%%&&&---%%%---%%%%%%%%%%------***&&&&&&&&&&***&&&%%%",
"***%%%------%%%%---&&&&&&%%%%%%%%%%%%;;;;;;;---&&&---&&&**********&&&---&&&",
"***%%%------%%%%---&&&&&&%%%%%%%%%%%%;;;;;;;---&&&---&&&**********&&&---&&&",
"***%%%------%%%%---&&&&&&%%%%%%%%%%%%;;;;;;;---&&&---&&&**********&&&---&&&",
"***%%%------%%%%---&&&&&&%%%%%%%%%%%%;;;;;;;---&&&---&&&**********&&&---&&&",
"---***&&&&&&;;;;---&&&***------&&&&&&----%%%;;;%%%***&&&***%%%----%%%---%%%",
"---***&&&&&&;;;;---&&&***------&&&&&&----%%%;;;%%%***&&&***%%%----%%%---%%%",
"---***&&&&&&;;;;---&&&***------&&&&&&----%%%;;;%%%***&&&***%%%----%%%---%%%",
"%%%---------;;;;***&&&&&&***&&&%%%-------&&&&&&---***%%%&&&***%%%%---***---",
"%%%---------;;;;***&&&&&&***&&&%%%-------&&&&&&---***%%%&&&***%%%%---***---",
"%%%---------;;;;***&&&&&&***&&&%%%-------&&&&&&---***%%%&&&***%%%%---***---",
"%%%%%%%%%%%%****---%%%***---&&&******&&&&&&&---------******%%%****---------",
"%%%%%%%%%%%%****---%%%***---&&&******&&&&&&&---------******%%%****---------",
"%%%%%%%%%%%%****---%%%***---&&&******&&&&&&&---------******%%%****---------"
};
