/* XPM */
static char *_0211_f3740d48486a168f1e0d6ca10fe4f547ad5668a1d30f6e7e2af013f0f3fc4d54[] = {
/* columns rows colors chars-per-pixel */
"75 75 12 1 ",
"  c #10426B",
". c #0842B5",
"X c #0052DE",
"o c #006BF7",
"O c #008CF7",
"+ c #00B5F7",
"@ c #73ADDE",
"# c #10D6F7",
"$ c #9CDEDE",
"% c #94CEF7",
"& c #B5DEE7",
"* c #8CF7F7",
/* pixels */
"$$$%%%%$$$$$%%%%%%%%%%@@@oooooooXXX@@%%%&&&&&&&$$$%%%@@@@oooXXXXX@@@$$$$$$$",
"$$$%%%%$$$$$%%%%%%%%%%@@@oooooooXXX@@%%%&&&&&&&$$$%%%@@@@oooXXXXX@@@$$$$$$$",
"$$$%%%%$$$$$%%%%%%%%%%@@@oooooooXXX@@%%%&&&&&&&$$$%%%@@@@oooXXXXX@@@$$$$$$$",
"&&&$$$$@@@oooooXXX@@@@oooooo####oooXX@@@@@@%%%%%%%@@@oooo+++oooXXXXX@@@@$$$",
"&&&$$$$@@@oooooXXX@@@@oooooo####oooXX@@@@@@%%%%%%%@@@oooo+++oooXXXXX@@@@$$$",
"&&&$$$$@@@oooooXXX@@@@oooooo####oooXX@@@@@@%%%%%%%@@@oooo+++oooXXXXX@@@@$$$",
"&&&$$$$@@@oooooXXX@@@@oooooo####oooXX@@@@@@%%%%%%%@@@oooo+++oooXXXXX@@@@$$$",
"%%%@@@@oooOO###oooXXXXooo*******###ooXXXOOOOOOOoooooo++++###+++ooXXXXXXX@@@",
"%%%@@@@oooOO###oooXXXXooo*******###ooXXXOOOOOOOoooooo++++###+++ooXXXXXXX@@@",
"%%%@@@@oooOO###oooXXXXooo*******###ooXXXOOOOOOOoooooo++++###+++ooXXXXXXX@@@",
"@@@ooooOOO########ooooOOO++++++++++++ooo+++++++ooo+++####******##oooXXXXXXX",
"@@@ooooOOO########ooooOOO++++++++++++ooo+++++++ooo+++####******##oooXXXXXXX",
"XXXoooo#####++++++####oooOOO+++++++XXXXX+++ooooOOO###****###++++++++ooooXXX",
"XXXoooo#####++++++####oooOOO+++++++XXXXX+++ooooOOO###****###++++++++ooooXXX",
"XXXoooo#####++++++####oooOOO+++++++XXXXX+++ooooOOO###****###++++++++ooooXXX",
"XXXOOOO+++++++++++++++OOOXXXXXXX.....XXXXXXooooOOO###+++++++++++++++++++ooo",
"XXXOOOO+++++++++++++++OOOXXXXXXX.....XXXXXXooooOOO###+++++++++++++++++++ooo",
"XXXOOOO+++++++++++++++OOOXXXXXXX.....XXXXXXooooOOO###+++++++++++++++++++ooo",
"...XXXXOOO++++++++OOOOXXX...ooooooo.....XXXXXXXXXXOOO++++++++++++OOOoooo...",
"...XXXXOOO++++++++OOOOXXX...ooooooo.....XXXXXXXXXXOOO++++++++++++OOOoooo...",
"...XXXXOOO++++++++OOOOXXX...ooooooo.....XXXXXXXXXXOOO++++++++++++OOOoooo...",
"...XXXXOOO++++++++OOOOXXX...ooooooo.....XXXXXXXXXXOOO++++++++++++OOOoooo...",
"   .........XXXoooXXXX...oooXXXXXXX..XXXoooooooXXXXXXOOOO++++++OOooo.......",
"   .........XXXoooXXXX...oooXXXXXXX..XXXoooooooXXXXXXOOOO++++++OOooo.......",
"   .........XXXoooXXXX...oooXXXXXXX..XXXoooooooXXXXXXOOOO++++++OOooo.......",
"   ....XXXooOOOOOOOOOOoooXXX.......OOoooooooooooooXXXXXXX......XXOOOOOOO...",
"   ....XXXooOOOOOOOOOOoooXXX.......OOoooooooooooooXXXXXXX......XXOOOOOOO...",
"   ....XXXooOOOOOOOOOOoooXXX.......OOoooooooooooooXXXXXXX......XXOOOOOOO...",
"   XXXX###++++++++OOOOOOOOOOXXXX...OOOOOOOOooooXXXoooOOOOOOOOOOooXXXooooooo",
"   XXXX###++++++++OOOOOOOOOOXXXX...OOOOOOOOooooXXXoooOOOOOOOOOOooXXXooooooo",
"   XXXX###++++++++OOOOOOOOOOXXXX...OOOOOOOOooooXXXoooOOOOOOOOOOooXXXooooooo",
"   XXXX###++++++++OOOOOOOOOOXXXX...OOOOOOOOooooXXXoooOOOOOOOOOOooXXXooooooo",
"XXXoooo#####+++++++++++++ooooooo...XXOOOXXXXXXX###+++++++++++++++OOOooooXXX",
"XXXoooo#####+++++++++++++ooooooo...XXOOOXXXXXXX###+++++++++++++++OOOooooXXX",
"XXXoooo#####+++++++++++++ooooooo...XXOOOXXXXXXX###+++++++++++++++OOOooooXXX",
"XXXOOOOOOO++##########OOOooooooo........XXXOOOO###*******###++++++++++++OOO",
"XXXOOOOOOO++##########OOOooooooo........XXXOOOO###*******###++++++++++++OOO",
"oooOOOOOOO+++++###++++ooooooXXXXXXXXXXXXXXXoooo+++#######******#####OOOOooo",
"oooOOOOOOO+++++###++++ooooooXXXXXXXXXXXXXXXoooo+++#######******#####OOOOooo",
"oooOOOOOOO+++++###++++ooooooXXXXXXXXXXXXXXXoooo+++#######******#####OOOOooo",
"oooOOOOOOO+++++###OOOOooooooooooOOOOOoooooooooo++++++++++######**+++ooooooo",
"oooOOOOOOO+++++###OOOOooooooooooOOOOOoooooooooo++++++++++######**+++ooooooo",
"oooOOOOOOO+++++###OOOOooooooooooOOOOOoooooooooo++++++++++######**+++ooooooo",
"oooOOOOOOOOO+++###OOOOoooOOO#########OOOXXXoooo+++++++++++++###**OOOooooXXX",
"oooOOOOOOOOO+++###OOOOoooOOO#########OOOXXXoooo+++++++++++++###**OOOooooXXX",
"oooOOOOOOOOO+++###OOOOoooOOO#########OOOXXXoooo+++++++++++++###**OOOooooXXX",
"oooOOOOOOOOO+++###OOOOoooOOO#########OOOXXXoooo+++++++++++++###**OOOooooXXX",
"oooooooOOOOO+++###ooooooo*******###OOoooXXXoooo+++++++++++++#####OOOXXXXXXX",
"oooooooOOOOO+++###ooooooo*******###OOoooXXXoooo+++++++++++++#####OOOXXXXXXX",
"oooooooOOOOO+++###ooooooo*******###OOoooXXXoooo+++++++++++++#####OOOXXXXXXX",
"oooooooOOOOOOOO###oooooooOOO####OOOooXXXXXXooooOOO+++++++++++++##oooXXXXXXX",
"oooooooOOOOOOOO###oooooooOOO####OOOooXXXXXXooooOOO+++++++++++++##oooXXXXXXX",
"oooooooOOOOOOOO###oooooooOOO####OOOooXXXXXXooooOOO+++++++++++++##oooXXXXXXX",
"oooooooOOOOOOOO+++oooooooOOO++++oooXXXXXXXXXXXXOOOOOO++++++++++##oooXXXXXXX",
"oooooooOOOOOOOO+++oooooooOOO++++oooXXXXXXXXXXXXOOOOOO++++++++++##oooXXXXXXX",
"oooooooOOOOOOOO+++oooooooOOO++++oooXXXXXXXXXXXXOOOOOO++++++++++##oooXXXXXXX",
"oooooooOOOOOOOO+++oooooooOOO++++oooXXXXXXXXXXXXOOOOOO++++++++++##oooXXXXXXX",
"XXXooooOOOOOOOOOOOoooooooOOO++++oooXXXXXXXXXXXXoooOOO++++++++++##oooXXXXXXX",
"XXXooooOOOOOOOOOOOoooooooOOO++++oooXXXXXXXXXXXXoooOOO++++++++++##oooXXXXXXX",
"XXXooooOOOOOOOOOOOoooooooOOO++++oooXXXXXXXXXXXXoooOOO++++++++++##oooXXXXXXX",
"XXXooooOOOOOOOOooooooooooOOO++++oooXXXXXXXXXXXXooooooOOOO++++++##oooXXXXXXX",
"XXXooooOOOOOOOOooooooooooOOO++++oooXXXXXXXXXXXXooooooOOOO++++++##oooXXXXXXX",
"XXXooooOOOOOOOOooooooooooOOO++++oooXXXXXXXXXXXXooooooOOOO++++++##oooXXXXXXX",
"XXXoooooooOOOOOooooooooooOOO++++oooXXXXXXXXoooo+++oooOOOOOOO+++++XXXXXXXXXX",
"XXXoooooooOOOOOooooooooooOOO++++oooXXXXXXXXoooo+++oooOOOOOOO+++++XXXXXXXXXX",
"@@@ooooooooooooXXXXXXXooooooOOOOooooooooXXXoooo++++++ooooOOOOOOOOXXXXXXXXXX",
"@@@ooooooooooooXXXXXXXooooooOOOOooooooooXXXoooo++++++ooooOOOOOOOOXXXXXXXXXX",
"@@@ooooooooooooXXXXXXXooooooOOOOooooooooXXXoooo++++++ooooOOOOOOOOXXXXXXXXXX",
"$$$%%%%@@@@@XXXXXXXXXXooooooOOOOoooooXXXXXXooooOOOOOOoooooooOOOOOoooXXXX@@@",
"$$$%%%%@@@@@XXXXXXXXXXooooooOOOOoooooXXXXXXooooOOOOOOoooooooOOOOOoooXXXX@@@",
"$$$%%%%@@@@@XXXXXXXXXXooooooOOOOoooooXXXXXXooooOOOOOOoooooooOOOOOoooXXXX@@@",
"$$$%%%%@@@@@XXXXXXXXXXooooooOOOOoooooXXXXXXooooOOOOOOoooooooOOOOOoooXXXX@@@",
"$$$$$$$$$$$$%%%$$$$$$$%%%@@@ooooooooo@@@%%%$$$$%%%%%%%%%%@@@oooOOXXX@@@@%%%",
"$$$$$$$$$$$$%%%$$$$$$$%%%@@@ooooooooo@@@%%%$$$$%%%%%%%%%%@@@oooOOXXX@@@@%%%",
"$$$$$$$$$$$$%%%$$$$$$$%%%@@@ooooooooo@@@%%%$$$$%%%%%%%%%%@@@oooOOXXX@@@@%%%"
};
